<svg width="32" height="32" viewBox="0 0 32 32" fill="none" xmlns="http://www.w3.org/2000/svg">
<rect width="32" height="32" fill="white" fill-opacity="0.01" style="mix-blend-mode:multiply"/>
<path d="M21.0211 31.3761C20.1031 31.3761 19.1571 31.1011 18.2411 30.8351C17.4291 30.5991 16.6631 30.3761 16.0141 30.3761C15.3651 30.3761 14.5971 30.5991 13.7851 30.8351C12.8681 31.1011 11.9211 31.3761 11.0031 31.3761C6.89905 31.3761 2.65405 26.0041 2.65405 17.0161C2.65405 11.7041 4.97205 8.65705 9.01405 8.65705C9.98405 8.65705 10.9691 8.92906 11.9211 9.19206C12.6691 9.39906 13.3751 9.59406 14.0501 9.65806L13.9821 10.3751C13.2441 10.3051 12.4741 10.0921 11.7291 9.88605C10.8231 9.63605 9.88605 9.37606 9.01405 9.37606C4.10705 9.37606 3.37405 14.1631 3.37405 17.0161C3.37405 25.5541 7.25305 30.6561 11.0031 30.6561C11.8181 30.6561 12.7161 30.3961 13.5841 30.1441C14.4461 29.8941 15.2601 29.6581 16.0101 29.6561C16.0101 29.6561 16.0101 29.6561 16.0111 29.6561C16.0111 29.6561 16.0131 29.6561 16.0141 29.6561C16.0151 29.6561 16.0171 29.6561 16.0181 29.6561C16.7681 29.6581 17.5811 29.8941 18.4421 30.1441C19.3091 30.3961 20.2061 30.6561 21.0211 30.6561C21.0221 30.6561 21.0231 30.6561 21.0241 30.6561C24.7751 30.6551 28.6541 25.5531 28.6541 17.0161C28.6541 14.1631 27.9221 9.37606 23.0141 9.37606C21.9091 9.37606 20.8261 9.61406 19.6791 9.86606C18.5741 10.1091 17.4301 10.3601 16.2721 10.3741L16.0151 10.3751C15.9421 10.3921 15.8271 10.3371 15.7591 10.2711C15.6911 10.2031 15.6531 10.1111 15.6531 10.0161V7.27106C15.6531 7.17106 15.6951 7.07606 15.7671 7.00806C15.8401 6.94006 15.9331 6.90806 16.0381 6.91206C16.2911 6.93206 22.1951 7.27606 23.5731 2.53406C22.4061 2.28606 18.5601 1.79906 16.3171 5.46006L15.7031 5.08406C18.6071 0.349056 24.0621 1.91006 24.1161 1.92706C24.2991 1.98106 24.4071 2.16806 24.3641 2.35306C23.2201 7.27406 17.8641 7.63506 16.3731 7.63906V9.65306C17.4211 9.62605 18.4891 9.39106 19.5231 9.16405C20.6571 8.91405 21.8301 8.65705 23.0131 8.65705C27.0551 8.65705 29.3731 11.7041 29.3731 17.0161C29.3731 26.0031 25.1271 31.3751 21.0221 31.3761C21.0231 31.3761 21.0221 31.3761 21.0211 31.3761ZM24.6281 24.3971L23.9371 24.1981L24.3071 22.9161L24.9981 23.1151L24.6281 24.3971ZM25.3691 21.0761L24.6601 20.9551C25.7901 14.3671 23.8861 13.3531 23.8661 13.3441L24.1531 12.6841C24.4071 12.7901 26.5971 13.9261 25.3691 21.0761ZM13.7961 7.37806C13.0511 7.37806 10.7431 7.25206 9.26005 5.76906C7.51005 4.01906 7.64905 1.12006 7.65605 0.997056C7.66605 0.814056 7.81205 0.668056 7.99505 0.658056C8.12005 0.652056 11.0181 0.513056 12.7671 2.26206C14.5171 4.01106 14.3781 6.91106 14.3711 7.03406C14.3611 7.21706 14.2151 7.36306 14.0321 7.37306C14.0141 7.37406 13.9301 7.37806 13.7961 7.37806ZM8.37505 1.37506C8.39505 2.14706 8.57305 4.06206 9.77005 5.26006C10.9711 6.46006 12.8831 6.63506 13.6541 6.65506C13.6331 5.88306 13.4561 3.96706 12.2591 2.77006C11.0581 1.57006 9.14605 1.39506 8.37505 1.37506Z" fill="#3B8DF5"/>
</svg>
