<svg width="32" height="32" viewBox="0 0 32 32" fill="none" xmlns="http://www.w3.org/2000/svg">
<g clip-path="url(#clip0_526_3641)">
<rect width="32" height="32" fill="white" fill-opacity="0.01" style="mix-blend-mode:multiply"/>
<path d="M27.3599 20.36H26.6399V15.64H27.3609L27.3599 20.36ZM31.3599 16C31.3599 7.53001 24.4699 0.640015 15.9999 0.640015C7.52989 0.640015 0.639893 7.53001 0.639893 16C0.639893 24.47 7.52989 31.36 15.9999 31.36C24.4699 31.36 31.3599 24.47 31.3599 16ZM15.1309 15.64H4.99989C4.80089 15.64 4.63989 15.801 4.63989 16V20C4.63989 20.199 4.80089 20.36 4.99989 20.36H19.8509L26.0899 26.598C23.4619 29.102 19.9069 30.64 15.9999 30.64C7.92689 30.64 1.35989 24.072 1.35989 16C1.35989 12.093 2.89889 8.53901 5.40189 5.91101L15.1309 15.64ZM24.9999 20.36C25.1989 20.36 25.3599 20.199 25.3599 20V16C25.3599 15.801 25.1989 15.64 24.9999 15.64H16.1489L5.91089 5.40101C8.53889 2.89801 12.0929 1.36001 15.9999 1.36001C24.0719 1.36001 30.6399 7.92701 30.6399 16C30.6399 19.907 29.1019 23.462 26.5989 26.09L20.8699 20.361L24.9999 20.36ZM16.8689 16.36H24.6399V19.64H20.1499L16.8689 16.36ZM5.35989 16.36H15.8509L19.1309 19.64H5.35989V16.36ZM27.3599 13C27.3599 10.596 25.4039 8.64001 22.9999 8.64001H17.9999C17.0959 8.64001 16.3599 7.90401 16.3599 7.00001V6.00001H15.6399V7.00001C15.6399 8.30101 16.6989 9.36001 17.9999 9.36001H22.9999C25.0069 9.36001 26.6399 10.993 26.6399 13V14H27.3609L27.3599 13ZM25.3599 13C25.3599 11.699 24.3009 10.64 22.9999 10.64H17.9999C15.9929 10.64 14.3599 9.00702 14.3599 7.00001V6.00001H13.6399V7.00001C13.6399 9.40401 15.5959 11.36 17.9999 11.36H22.9999C23.9039 11.36 24.6399 12.096 24.6399 13V14H25.3609L25.3599 13Z" fill="#3B8DF5"/>
</g>
<defs>
<clipPath id="clip0_526_3641">
<rect width="32" height="32" fill="white"/>
</clipPath>
</defs>
</svg>
