<svg width="32" height="32" viewBox="0 0 32 32" fill="none" xmlns="http://www.w3.org/2000/svg">
<rect width="32" height="32" fill="white" fill-opacity="0.01" style="mix-blend-mode:multiply"/>
<path d="M7.977 31.359C7.435 31.359 6.902 31.171 6.471 30.819C5.591 30.1 5.382 28.771 5.986 27.726L10.682 19.592L11.306 19.951L6.61 28.086C6.181 28.828 6.317 29.763 6.927 30.26C7.313 30.575 7.788 30.7 8.272 30.613C8.746 30.526 9.156 30.237 9.397 29.82L14.148 21.592L14.771 21.951L10.021 30.179C9.675 30.78 9.085 31.196 8.402 31.321C8.259 31.347 8.117 31.359 7.977 31.359ZM18.001 31.357C17.459 31.357 16.927 31.169 16.495 30.815C15.616 30.097 15.407 28.768 16.01 27.724L18.776 22.932L13.459 19.862C12.165 19.115 11.427 17.688 11.54 16.222C10.731 16.02 10.131 15.287 10.131 14.417V8.91699C10.131 7.61599 11.19 6.55699 12.491 6.55699H18.662C18.14 5.55299 18.149 4.32499 18.729 3.32099C19.656 1.71699 21.714 1.16399 23.319 2.09099C24.096 2.53999 24.652 3.26499 24.884 4.13199C25.116 4.99899 24.997 5.90399 24.548 6.68199C24.042 7.55799 23.19 8.14499 22.223 8.31499C22.436 8.61299 22.601 8.92799 22.72 9.25199L25.82 11.042L27.89 7.45599C28.402 6.56799 29.542 6.26199 30.43 6.77499C31.319 7.28799 31.623 8.42799 31.111 9.31599L28.361 14.079C27.711 15.204 26.262 15.592 25.137 14.943L21.985 13.123L20.165 16.275L19.542 15.915L21.792 12.018C22.524 10.749 22.315 9.34299 21.234 8.25499C21.129 8.14999 21.099 7.98999 21.16 7.85499C21.222 7.71999 21.344 7.62999 21.508 7.64199C22.492 7.68699 23.427 7.18599 23.926 6.32299C24.279 5.71199 24.372 5.00099 24.19 4.31999C24.008 3.63899 23.571 3.06999 22.961 2.71599C21.699 1.98799 20.083 2.42199 19.354 3.68299C18.805 4.63499 18.907 5.84399 19.609 6.68899C19.663 6.75399 19.692 6.83499 19.692 6.91899C19.692 7.27899 19.692 7.27899 12.492 7.27899C11.588 7.27899 10.852 8.01499 10.852 8.91899V14.419C10.852 15.047 11.364 15.559 11.992 15.559C12.62 15.559 13.132 15.047 13.132 14.419V9.98599C13.132 9.78699 13.293 9.62599 13.492 9.62599H17.013V10.346H13.85V14.417C13.85 15.352 13.158 16.127 12.259 16.258C12.159 17.458 12.76 18.628 13.82 19.239L19.448 22.489C19.621 22.589 19.679 22.808 19.58 22.98L16.634 28.084C16.205 28.826 16.342 29.761 16.951 30.258C17.337 30.573 17.81 30.699 18.295 30.611C18.77 30.524 19.18 30.235 19.421 29.818L23.421 22.89C23.64 22.51 23.698 22.068 23.585 21.645C23.472 21.221 23.2 20.868 22.821 20.649L16.758 17.149L17.118 16.525L23.18 20.025C23.726 20.339 24.117 20.848 24.28 21.458C24.443 22.068 24.359 22.703 24.044 23.249L20.044 30.177C19.697 30.778 19.106 31.195 18.424 31.319C18.283 31.345 18.142 31.357 18.001 31.357ZM22.345 12.498L25.496 14.318C26.279 14.77 27.284 14.501 27.737 13.717L30.487 8.95399C30.8 8.40999 30.614 7.71099 30.07 7.39699C29.524 7.08399 28.828 7.27099 28.512 7.81399L26.262 11.711C26.162 11.884 25.942 11.943 25.771 11.843L22.928 10.202C22.986 10.931 22.818 11.677 22.413 12.376L22.345 12.498ZM8 17.36H1V16.64H8V17.36ZM8 13.36H1V12.64H8V13.36ZM8 9.35999H1V8.63999H8V9.35999Z" fill="#3B8DF5"/>
</svg>
