<svg width="32" height="32" viewBox="0 0 32 32" fill="none" xmlns="http://www.w3.org/2000/svg">
<path d="M6.86592 8.80844C5.93386 9.22825 5.3313 10.1603 5.3313 11.183V29.2101C5.3313 30.5233 6.39974 31.5918 7.71299 31.5918H23.9366C25.2498 31.5918 26.3182 30.5233 26.3182 29.2101C26.3182 19.8597 26.3182 16.3774 26.3182 11.183C26.3182 10.1603 25.7157 9.22825 24.7836 8.80844C24.1234 8.511 23.697 7.85113 23.697 7.12706V5.692H23.9867C24.6327 5.692 25.158 5.16669 25.158 4.52075V1.5775C25.158 0.931563 24.6327 0.40625 23.9867 0.40625H7.6628C7.01686 0.40625 6.49155 0.931563 6.49155 1.5775V4.52075C6.49155 5.16669 7.01686 5.692 7.6628 5.692H7.9528V7.12706C7.9528 7.85081 7.52611 8.511 6.86592 8.80844ZM25.5577 28.0888H13.6138C13.1725 28.0888 12.8134 27.7296 12.8134 27.2883V13.0721C12.8134 12.6308 13.1725 12.2716 13.6138 12.2716H25.5577V28.0888ZM7.6628 4.93138C7.43642 4.93138 7.25217 4.74719 7.25217 4.52075V1.5775C7.25217 1.35113 7.43636 1.16688 7.6628 1.16688H9.06849V2.59306C9.06849 2.80313 9.23874 2.97338 9.4488 2.97338C9.65886 2.97338 9.82911 2.80313 9.82911 2.59306V1.16688H11.1938V2.59306C11.1938 2.80313 11.364 2.97338 11.5741 2.97338C11.7842 2.97338 11.9544 2.80313 11.9544 2.59306V1.16688H13.3191V2.59306C13.3191 2.80313 13.4894 2.97338 13.6994 2.97338C13.9095 2.97338 14.0797 2.80313 14.0797 2.59306V1.16688H15.4447V2.59306C15.4447 2.80313 15.6149 2.97338 15.825 2.97338C16.035 2.97338 16.2053 2.80313 16.2053 2.59306V1.16688H17.57V2.59306C17.57 2.80313 17.7402 2.97338 17.9503 2.97338C18.1604 2.97338 18.3306 2.80313 18.3306 2.59306V1.16688H19.6953V2.59306C19.6953 2.80313 19.8655 2.97338 20.0756 2.97338C20.2857 2.97338 20.4559 2.80313 20.4559 2.59306V1.16688H21.8206V2.59306C21.8206 2.80313 21.9909 2.97338 22.2009 2.97338C22.411 2.97338 22.5812 2.80313 22.5812 2.59306V1.16688H23.9869C24.2133 1.16688 24.3975 1.35106 24.3975 1.5775V4.52075C24.3975 4.74713 24.2134 4.93138 23.9869 4.93138C16.3005 4.93138 19.7895 4.93138 7.6628 4.93138ZM8.71342 7.12706V5.692H22.9365V7.12706C22.9365 8.14975 23.5387 9.08181 24.4711 9.50194C25.1313 9.79906 25.5577 10.4589 25.5577 11.1831V11.5111H13.6138C12.753 11.5111 12.0527 12.2114 12.0527 13.0721V27.2883C12.0527 28.1491 12.753 28.8494 13.6138 28.8494H25.5577V29.2101C25.5577 30.1038 24.8303 30.8311 23.9366 30.8311H7.71305C6.8193 30.8311 6.09199 30.1038 6.09199 29.2101V11.183C6.09199 10.4593 6.51836 9.79931 7.17855 9.50187C8.11086 9.08181 8.71342 8.14944 8.71342 7.12706Z" fill="#3B8DF5"/>
<path d="M15.4096 21.3352H17.6171V24.6267C17.6171 24.7832 17.7131 24.9238 17.859 24.9809C18.0042 25.0376 18.17 25.0004 18.2771 24.8846L23.2428 19.5056C23.3436 19.3963 23.3715 19.2382 23.3141 19.1009C23.2568 18.9637 23.1246 18.8724 22.9757 18.8677L20.5396 18.7872L20.7467 15.7604C20.7577 15.6006 20.6671 15.4508 20.5203 15.3864C20.3733 15.3216 20.2021 15.3564 20.0916 15.4728L15.1339 20.6932C15.029 20.8034 15.0002 20.9654 15.0602 21.105C15.1202 21.2446 15.2575 21.3352 15.4096 21.3352ZM19.9157 16.7622L19.7541 19.1282C19.7392 19.3426 19.9059 19.5272 20.121 19.5341L22.12 19.6003L18.3778 23.6539V20.9549C18.3778 20.7448 18.2076 20.5746 17.9975 20.5746H16.2953L19.9157 16.7622Z" fill="#3B8DF5"/>
</svg>
