<svg width="32" height="32" viewBox="0 0 32 32" fill="none" xmlns="http://www.w3.org/2000/svg">
<path d="M7.04488 8.80844C6.11282 9.22825 5.51025 10.1603 5.51025 11.183V29.2101C5.51025 30.5233 6.57869 31.5918 7.89194 31.5918H24.1155C25.4288 31.5918 26.4972 30.5233 26.4972 29.2101C26.4972 19.8597 26.4972 16.3774 26.4972 11.183C26.4972 10.1603 25.8946 9.22825 24.9626 8.80844C24.3024 8.511 23.876 7.85113 23.876 7.12706V5.692H24.1657C24.8116 5.692 25.3369 5.16669 25.3369 4.52075V1.5775C25.3369 0.931563 24.8116 0.40625 24.1657 0.40625H7.84175C7.19582 0.40625 6.6705 0.931563 6.6705 1.5775V4.52075C6.6705 5.16669 7.19582 5.692 7.84175 5.692H8.13175V7.12706C8.13175 7.85081 7.70507 8.511 7.04488 8.80844ZM7.84175 4.93138C7.61538 4.93138 7.43113 4.74719 7.43113 4.52075V1.5775C7.43113 1.35113 7.61532 1.16688 7.84175 1.16688H9.24744V2.59306C9.24744 2.80313 9.41769 2.97338 9.62775 2.97338C9.83782 2.97338 10.0081 2.80313 10.0081 2.59306V1.16688H11.3728V2.59306C11.3728 2.80313 11.543 2.97338 11.7531 2.97338C11.9631 2.97338 12.1334 2.80313 12.1334 2.59306V1.16688H13.4981V2.59306C13.4981 2.80313 13.6683 2.97338 13.8784 2.97338C14.0884 2.97338 14.2587 2.80313 14.2587 2.59306V1.16688H15.6236V2.59306C15.6236 2.80313 15.7939 2.97338 16.0039 2.97338C16.214 2.97338 16.3843 2.80313 16.3843 2.59306V1.16688H17.7489V2.59306C17.7489 2.80313 17.9192 2.97338 18.1293 2.97338C18.3393 2.97338 18.5096 2.80313 18.5096 2.59306V1.16688H19.8743V2.59306C19.8743 2.80313 20.0445 2.97338 20.2546 2.97338C20.4646 2.97338 20.6349 2.80313 20.6349 2.59306V1.16688H21.9996V2.59306C21.9996 2.80313 22.1698 2.97338 22.3799 2.97338C22.5899 2.97338 22.7602 2.80313 22.7602 2.59306V1.16688H24.1659C24.3923 1.16688 24.5765 1.35106 24.5765 1.5775V4.52075C24.5765 4.74713 24.3923 4.93138 24.1659 4.93138C16.4794 4.93138 19.9685 4.93138 7.84175 4.93138ZM8.89238 7.12706V5.692H23.1154V7.12706C23.1154 8.14975 23.7177 9.08181 24.6501 9.50194C25.3103 9.79906 25.7366 10.4589 25.7366 11.1831V11.5111C25.7366 11.5111 25.7366 11.4109 25.7366 12.2716V28.0888C25.7366 28.9495 25.7366 28.8494 25.7366 28.8494V29.2101C25.7366 30.1038 25.0093 30.8311 24.1156 30.8311H7.892C6.99825 30.8311 6.27094 30.1038 6.27094 29.2101V11.183C6.27094 10.4593 6.69732 9.79931 7.3575 9.50188C8.28982 9.08181 8.89238 8.14944 8.89238 7.12706Z" fill="#3B8DF5"/>
<path d="M26.265 15.4277V14.6667C26.2369 14.6675 26.2086 14.6679 26.1802 14.6679H5.73169V15.4285H26.1801C26.2085 15.4285 26.2368 15.4282 26.265 15.4277Z" fill="#3B8DF5"/>
<path fill-rule="evenodd" clip-rule="evenodd" d="M22.0344 18.7505C23.1604 20.7046 23.2426 23.1892 22.0339 25.2828C20.8251 27.3764 18.6323 28.5476 16.377 28.5495C15.251 26.5954 15.1688 24.1107 16.3775 22.0171C17.5863 19.9235 19.7791 18.7524 22.0344 18.7505Z" stroke="#3B8DF5" stroke-width="0.7" stroke-miterlimit="22.9256" stroke-linecap="round" stroke-linejoin="round"/>
<path d="M16.6824 21.516C16.4122 20.615 15.9213 19.766 15.2096 19.0543C13.6715 17.5163 11.4931 17.0092 9.53269 17.5327C9.00918 19.4931 9.51627 21.6715 11.0543 23.2095C12.2705 24.4257 13.8871 24.9972 15.4797 24.9243" stroke="#3B8DF5" stroke-width="0.7" stroke-miterlimit="22.9256" stroke-linecap="round" stroke-linejoin="round"/>
<path d="M15.6346 23.6339L11.7212 19.7205" stroke="#3B8DF5" stroke-width="0.7" stroke-miterlimit="22.9256" stroke-linecap="round" stroke-linejoin="round"/>
<path d="M16.592 28.1791L20.1613 21.9971" stroke="#3B8DF5" stroke-width="0.7" stroke-miterlimit="22.9256" stroke-linecap="round" stroke-linejoin="round"/>
<path d="M18.2733 25.2331L17.9692 24.0984" stroke="#3B8DF5" stroke-width="0.7" stroke-miterlimit="22.9256" stroke-linecap="round" stroke-linejoin="round"/>
<path d="M19.2815 23.5674L20.3466 23.282" stroke="#3B8DF5" stroke-width="0.7" stroke-miterlimit="22.9256" stroke-linecap="round" stroke-linejoin="round"/>
<path d="M13.9941 21.9132L14.1766 21.2322" stroke="#3B8DF5" stroke-width="0.7" stroke-miterlimit="22.9256" stroke-linecap="round" stroke-linejoin="round"/>
<path d="M12.9053 20.9248L12.1262 21.1336" stroke="#3B8DF5" stroke-width="0.7" stroke-miterlimit="22.9256" stroke-linecap="round" stroke-linejoin="round"/>
</svg>
