<svg width="32" height="32" viewBox="0 0 32 32" fill="none" xmlns="http://www.w3.org/2000/svg">
<path d="M7.04488 8.80844C6.11282 9.22825 5.51025 10.1603 5.51025 11.183V29.2101C5.51025 30.5233 6.57869 31.5918 7.89194 31.5918H24.1155C25.4288 31.5918 26.4972 30.5233 26.4972 29.2101C26.4972 19.8597 26.4972 16.3774 26.4972 11.183C26.4972 10.1603 25.8946 9.22825 24.9626 8.80844C24.3024 8.511 23.876 7.85113 23.876 7.12706V5.692H24.1657C24.8116 5.692 25.3369 5.16669 25.3369 4.52075V1.5775C25.3369 0.931563 24.8116 0.40625 24.1657 0.40625H7.84175C7.19582 0.40625 6.6705 0.931563 6.6705 1.5775V4.52075C6.6705 5.16669 7.19582 5.692 7.84175 5.692H8.13175V7.12706C8.13175 7.85081 7.70507 8.511 7.04488 8.80844ZM7.84175 4.93138C7.61538 4.93138 7.43113 4.74719 7.43113 4.52075V1.5775C7.43113 1.35113 7.61532 1.16688 7.84175 1.16688H9.24744V2.59306C9.24744 2.80313 9.41769 2.97338 9.62775 2.97338C9.83782 2.97338 10.0081 2.80313 10.0081 2.59306V1.16688H11.3728V2.59306C11.3728 2.80313 11.543 2.97338 11.7531 2.97338C11.9631 2.97338 12.1334 2.80313 12.1334 2.59306V1.16688H13.4981V2.59306C13.4981 2.80313 13.6683 2.97338 13.8784 2.97338C14.0884 2.97338 14.2587 2.80313 14.2587 2.59306V1.16688H15.6236V2.59306C15.6236 2.80313 15.7939 2.97338 16.0039 2.97338C16.214 2.97338 16.3843 2.80313 16.3843 2.59306V1.16688H17.7489V2.59306C17.7489 2.80313 17.9192 2.97338 18.1293 2.97338C18.3393 2.97338 18.5096 2.80313 18.5096 2.59306V1.16688H19.8743V2.59306C19.8743 2.80313 20.0445 2.97338 20.2546 2.97338C20.4646 2.97338 20.6349 2.80313 20.6349 2.59306V1.16688H21.9996V2.59306C21.9996 2.80313 22.1698 2.97338 22.3799 2.97338C22.5899 2.97338 22.7602 2.80313 22.7602 2.59306V1.16688H24.1659C24.3923 1.16688 24.5765 1.35106 24.5765 1.5775V4.52075C24.5765 4.74713 24.3923 4.93138 24.1659 4.93138C16.4794 4.93138 19.9685 4.93138 7.84175 4.93138ZM8.89238 7.12706V5.692H23.1154V7.12706C23.1154 8.14975 23.7177 9.08181 24.6501 9.50194C25.3103 9.79906 25.7366 10.4589 25.7366 11.1831V11.5111C25.7366 11.5111 25.7366 11.4109 25.7366 12.2716V28.0888C25.7366 28.9495 25.7366 28.8494 25.7366 28.8494V29.2101C25.7366 30.1038 25.0093 30.8311 24.1156 30.8311H7.892C6.99825 30.8311 6.27094 30.1038 6.27094 29.2101V11.183C6.27094 10.4593 6.69732 9.79931 7.3575 9.50188C8.28982 9.08181 8.89238 8.14944 8.89238 7.12706Z" fill="#3B8DF5"/>
<path d="M12.6083 17.8298C12.1938 18.1774 11.9313 18.7125 11.9313 19.3083C11.9313 19.904 12.1893 20.4441 12.6038 20.7917M9.45553 17.8689C9.87009 18.2166 10.1351 18.7625 10.1351 19.3583C10.1351 19.954 9.87009 20.4913 9.45553 20.839M17.6083 17.8298C17.1938 18.1774 16.9313 18.7125 16.9313 19.3083C16.9313 19.904 17.1893 20.4441 17.6038 20.7917M14.4555 17.8689C14.8701 18.2166 15.1351 18.7625 15.1351 19.3583C15.1351 19.954 14.8701 20.4913 14.4555 20.839M22.6083 17.8298C22.1938 18.1774 21.9313 18.7125 21.9313 19.3083C21.9313 19.904 22.1893 20.4441 22.6038 20.7917M19.4555 17.8689C19.8701 18.2166 20.1351 18.7625 20.1351 19.3583C20.1351 19.954 19.8701 20.4913 19.4555 20.839M13.4847 15.8833C13.4847 17.2916 12.3762 18.4333 11.0089 18.4333C9.64162 18.4333 8.5332 17.2916 8.5332 15.8833C8.5332 14.4749 9.64162 13.3333 11.0089 13.3333C12.3762 13.3333 13.4847 14.4749 13.4847 15.8833ZM13.5332 22.7833C13.5332 24.1916 12.4248 25.3333 11.0575 25.3333C9.69017 25.3333 8.58175 24.1916 8.58175 22.7833C8.58175 21.3749 9.69017 20.2333 11.0575 20.2333C12.4248 20.2333 13.5332 21.3749 13.5332 22.7833ZM18.4847 15.8833C18.4847 17.2916 17.3762 18.4333 16.0089 18.4333C14.6416 18.4333 13.5332 17.2916 13.5332 15.8833C13.5332 14.4749 14.6416 13.3333 16.0089 13.3333C17.3762 13.3333 18.4847 14.4749 18.4847 15.8833ZM18.5332 22.7833C18.5332 24.1916 17.4248 25.3333 16.0575 25.3333C14.6902 25.3333 13.5817 24.1916 13.5817 22.7833C13.5817 21.3749 14.6902 20.2333 16.0575 20.2333C17.4248 20.2333 18.5332 21.3749 18.5332 22.7833ZM23.4847 15.8833C23.4847 17.2916 22.3762 18.4333 21.0089 18.4333C19.6416 18.4333 18.5332 17.2916 18.5332 15.8833C18.5332 14.4749 19.6416 13.3333 21.0089 13.3333C22.3762 13.3333 23.4847 14.4749 23.4847 15.8833ZM23.5332 22.7833C23.5332 24.1916 22.4248 25.3333 21.0575 25.3333C19.6902 25.3333 18.5817 24.1916 18.5817 22.7833C18.5817 21.3749 19.6902 20.2333 21.0575 20.2333C22.4248 20.2333 23.5332 21.3749 23.5332 22.7833Z" stroke="#3B8DF5" stroke-width="0.7" stroke-miterlimit="22.9256" stroke-linecap="round" stroke-linejoin="round"/>
</svg>
