<svg width="14" height="13" viewBox="0 0 14 13" fill="none" xmlns="http://www.w3.org/2000/svg">
<path d="M6.82437 7.96263C6.9401 8.34281 7.21421 8.44419 7.35838 8.44419H7.37056C7.54315 8.44419 7.7868 8.32591 7.90863 7.9922L8.24772 7.04598C8.40203 7.27831 8.67208 7.42827 8.95635 7.42827H10.264V6.42502H9.02741L8.7797 5.73225C8.63756 5.33095 8.33096 5.29716 8.2335 5.29716C7.98782 5.30349 7.79086 5.45979 7.6934 5.72591L7.40508 6.51795L6.70254 4.20309C6.60102 3.86515 6.36345 3.74476 6.16244 3.74476C6.06904 3.74476 5.75228 3.77855 5.62843 4.20731L4.98883 6.42502H3.72386V7.42827H5.08223C5.44366 7.42827 5.78071 7.17482 5.8802 6.82632L6.17462 5.8104L6.82437 7.96263Z" fill="#6C7584"/>
<path fill-rule="evenodd" clip-rule="evenodd" d="M8.77767 0.302031C9.23655 0.101381 9.72792 0 10.2254 0C10.7208 0 11.2142 0.103493 11.6731 0.304143C12.132 0.504793 12.5462 0.796263 12.8954 1.16588C13.6041 1.91568 14.002 2.92738 14.002 3.9792C14.002 5.03103 13.6041 6.04273 12.8954 6.79253L7.00101 13.0021L1.1066 6.79253C0.397969 6.04273 0 5.03314 0 3.9792C0 2.92526 0.397969 1.91568 1.1066 1.16377C1.45584 0.794151 1.87005 0.500569 2.32893 0.302031C2.78782 0.103493 3.28122 0 3.77665 0C4.27208 0 4.76548 0.103493 5.22437 0.302031C5.68325 0.502681 6.09746 0.796263 6.4467 1.16377L7.00101 1.74671L7.55533 1.16377C7.90457 0.796263 8.31878 0.502681 8.77767 0.302031ZM11.2853 1.26093C10.9503 1.11308 10.5888 1.03916 10.2254 1.03916C9.8599 1.03916 9.49848 1.11519 9.16142 1.26304C8.82436 1.413 8.5198 1.62843 8.26599 1.90301L7.00101 3.24419L5.73198 1.89245C5.47614 1.6221 5.17157 1.40666 4.83655 1.26093C4.50152 1.11519 4.1401 1.03916 3.77665 1.03916C3.4132 1.03916 3.05381 1.11308 2.71675 1.26093C2.3797 1.40877 2.07716 1.6221 1.82132 1.89245C1.29543 2.44793 1.00102 3.1935 1.00102 3.97287C1.00102 4.75223 1.29543 5.49781 1.82132 6.05329L7.00101 11.5089L12.1807 6.05329C12.7066 5.49781 13.001 4.75223 13.001 3.97287C13.001 3.1935 12.7066 2.44793 12.1807 1.89245C11.9249 1.6221 11.6203 1.40666 11.2853 1.26093Z" fill="#6C7584"/>
</svg>
