<svg width="24" height="24" viewBox="0 0 24 24" fill="none" xmlns="http://www.w3.org/2000/svg">
<mask id="mask0_2_11392" style="mask-type:alpha" maskUnits="userSpaceOnUse" x="0" y="0" width="24" height="24">
<rect width="24" height="24" fill="#D9D9D9"/>
</mask>
<g mask="url(#mask0_2_11392)">
<path d="M19 22.5C18.75 22.5 18.5167 22.4417 18.3 22.325C18.0833 22.2083 17.9083 22.05 17.775 21.85C15.7583 21.4833 13.9792 20.5833 12.4375 19.15C10.8958 17.7167 9.81667 15.95 9.2 13.85C7.6 14.6 6.33333 15.7042 5.4 17.1625C4.46667 18.6208 4 20.2333 4 22H2C2 19.7667 2.6125 17.7333 3.8375 15.9C5.0625 14.0667 6.7 12.7167 8.75 11.85C8.4 9.93333 8.37083 8.20417 8.6625 6.6625C8.95417 5.12083 9.56667 3.875 10.5 2.925C10.5333 2.525 10.6917 2.1875 10.975 1.9125C11.2583 1.6375 11.6 1.5 12 1.5C12.4167 1.5 12.7708 1.64583 13.0625 1.9375C13.3542 2.22917 13.5 2.58333 13.5 3C13.5 3.41667 13.3542 3.77083 13.0625 4.0625C12.7708 4.35417 12.4167 4.5 12 4.5H11.9C11.8667 4.5 11.825 4.49167 11.775 4.475C11.4083 4.89167 11.1167 5.40417 10.9 6.0125C10.6833 6.62083 10.5417 7.3 10.475 8.05C10.8083 7.71667 11.1958 7.42917 11.6375 7.1875C12.0792 6.94583 12.5667 6.75833 13.1 6.625C13.6 6.49167 14.1375 6.40417 14.7125 6.3625C15.2875 6.32083 15.8917 6.325 16.525 6.375C16.6583 6.24167 16.8083 6.14583 16.975 6.0875C17.1417 6.02917 17.3167 6 17.5 6C17.9167 6 18.2708 6.14583 18.5625 6.4375C18.8542 6.72917 19 7.08333 19 7.5C19 7.91667 18.8542 8.27083 18.5625 8.5625C18.2708 8.85417 17.9167 9 17.5 9C17.2667 9 17.0375 8.94583 16.8125 8.8375C16.5875 8.72917 16.4083 8.575 16.275 8.375C15.725 8.34167 15.1958 8.34583 14.6875 8.3875C14.1792 8.42917 13.725 8.51667 13.325 8.65C12.675 8.86667 12.1625 9.18333 11.7875 9.6C11.4125 10.0167 11.175 10.55 11.075 11.2C11.5417 11.1167 11.9375 11.0625 12.2625 11.0375C12.5875 11.0125 13.3 11 14.4 11C14.5333 10.8333 14.6958 10.7083 14.8875 10.625C15.0792 10.5417 15.2833 10.5 15.5 10.5C15.9167 10.5 16.2708 10.6458 16.5625 10.9375C16.8542 11.2292 17 11.5833 17 12C17 12.4167 16.8542 12.7708 16.5625 13.0625C16.2708 13.3542 15.9167 13.5 15.5 13.5C15.2833 13.5 15.0792 13.4583 14.8875 13.375C14.6958 13.2917 14.5333 13.1667 14.4 13C13.35 13 12.6583 13.0125 12.325 13.0375C11.9917 13.0625 11.6167 13.1167 11.2 13.2C11.4167 13.7667 11.8417 14.2 12.475 14.5C13.1083 14.8 13.9333 14.9667 14.95 15C15.4333 15.0333 15.9542 15.025 16.5125 14.975C17.0708 14.925 17.6333 14.85 18.2 14.75C18.3333 14.5167 18.5167 14.3333 18.75 14.2C18.9833 14.0667 19.2333 14 19.5 14C19.9167 14 20.2708 14.1458 20.5625 14.4375C20.8542 14.7292 21 15.0833 21 15.5C21 15.9167 20.8542 16.2708 20.5625 16.5625C20.2708 16.8542 19.9167 17 19.5 17C19.3333 17 19.1792 16.975 19.0375 16.925C18.8958 16.875 18.7583 16.8 18.625 16.7C18.0583 16.8 17.5042 16.8792 16.9625 16.9375C16.4208 16.9958 15.9083 17.025 15.425 17.025C14.9417 17.025 14.4833 17 14.05 16.95C13.6167 16.9 13.2083 16.825 12.825 16.725C13.4583 17.5417 14.2292 18.2292 15.1375 18.7875C16.0458 19.3458 17 19.7167 18 19.9C18.1333 19.7667 18.2875 19.6667 18.4625 19.6C18.6375 19.5333 18.8167 19.5 19 19.5C19.4167 19.5 19.7708 19.6458 20.0625 19.9375C20.3542 20.2292 20.5 20.5833 20.5 21C20.5 21.4167 20.3542 21.7708 20.0625 22.0625C19.7708 22.3542 19.4167 22.5 19 22.5Z" fill="#939BA7"/>
</g>
</svg>
