<svg width="22" height="18" viewBox="0 0 22 18" fill="none" xmlns="http://www.w3.org/2000/svg">
<path d="M11.0001 18L7.8001 15.15C6.6001 14.0667 5.57093 13.1 4.7126 12.25C3.85426 11.4 3.14593 10.6 2.5876 9.85C2.02926 9.1 1.62093 8.375 1.3626 7.675C1.10426 6.975 0.975098 6.24167 0.975098 5.475C0.975098 3.90833 1.5001 2.60417 2.5501 1.5625C3.6001 0.520833 4.90843 0 6.4751 0C7.34176 0 8.16677 0.183333 8.9501 0.55C9.73343 0.916667 10.4168 1.43333 11.0001 2.1C11.5834 1.43333 12.2668 0.916667 13.0501 0.55C13.8334 0.183333 14.6584 0 15.5251 0C17.0918 0 18.4001 0.520833 19.4501 1.5625C20.5001 2.60417 21.0251 3.90833 21.0251 5.475C21.0251 6.24167 20.8959 6.975 20.6376 7.675C20.3793 8.375 19.9709 9.1 19.4126 9.85C18.8543 10.6 18.1459 11.4 17.2876 12.25C16.4293 13.1 15.4001 14.0667 14.2001 15.15L11.0001 18ZM5.8251 10.5H16.1751C16.4418 10.2167 16.6834 9.95417 16.9001 9.7125C17.1168 9.47083 17.3168 9.23333 17.5001 9H4.5001C4.68343 9.23333 4.88343 9.47083 5.1001 9.7125C5.31676 9.95417 5.55843 10.2167 5.8251 10.5ZM11.0001 15.3C11.6001 14.7667 12.1626 14.2708 12.6876 13.8125C13.2126 13.3542 13.6918 12.9167 14.1251 12.5H7.8751C8.30843 12.9167 8.7876 13.3542 9.3126 13.8125C9.8376 14.2708 10.4001 14.7667 11.0001 15.3Z" fill="url(#paint0_radial_6_608)"/>
<defs>
<radialGradient id="paint0_radial_6_608" cx="0" cy="0" r="1" gradientUnits="userSpaceOnUse" gradientTransform="translate(11.0001 9) rotate(180) scale(10.025 30.25)">
<stop stop-color="#0974FB"/>
<stop offset="1" stop-color="#318BFC"/>
</radialGradient>
</defs>
</svg>
