<svg width="24" height="24" viewBox="0 0 24 24" fill="none" xmlns="http://www.w3.org/2000/svg">
<mask id="mask0_2_11359" style="mask-type:alpha" maskUnits="userSpaceOnUse" x="0" y="0" width="24" height="24">
<rect width="24" height="24" fill="#D9D9D9"/>
</mask>
<g mask="url(#mask0_2_11359)">
<path d="M17 16C16.1667 16 15.4583 15.7083 14.875 15.125C14.2917 14.5417 14 13.8333 14 13C14 12.1667 14.2917 11.4583 14.875 10.875C15.4583 10.2917 16.1667 10 17 10C17.8333 10 18.5417 10.2917 19.125 10.875C19.7083 11.4583 20 12.1667 20 13C20 13.8333 19.7083 14.5417 19.125 15.125C18.5417 15.7083 17.8333 16 17 16ZM11 23V20.1C11 19.75 11.0833 19.4208 11.25 19.1125C11.4167 18.8042 11.65 18.5583 11.95 18.375C12.4833 18.0583 13.0458 17.7958 13.6375 17.5875C14.2292 17.3792 14.8333 17.225 15.45 17.125L17 19L18.55 17.125C19.1667 17.225 19.7667 17.3792 20.35 17.5875C20.9333 17.7958 21.4917 18.0583 22.025 18.375C22.325 18.5583 22.5625 18.8042 22.7375 19.1125C22.9125 19.4208 23 19.75 23 20.1V23H11ZM9 20.1V21H5C4.45 21 3.97917 20.8042 3.5875 20.4125C3.19583 20.0208 3 19.55 3 19V5C3 4.45 3.19583 3.97917 3.5875 3.5875C3.97917 3.19583 4.45 3 5 3H19C19.55 3 20.0208 3.19583 20.4125 3.5875C20.8042 3.97917 21 4.45 21 5V10C20.4833 9.35 19.9 8.85417 19.25 8.5125C18.6 8.17083 17.85 8 17 8V7H7V9H14C13.6667 9.26667 13.3667 9.56667 13.1 9.9C12.8333 10.2333 12.6083 10.6 12.425 11H7V13H12C12 13.35 12.0375 13.6917 12.1125 14.025C12.1875 14.3583 12.2917 14.6833 12.425 15H7V17H10.45C10 17.3833 9.64583 17.8458 9.3875 18.3875C9.12917 18.9292 9 19.5 9 20.1Z" fill="url(#paint0_radial_2_11359)"/>
</g>
<defs>
<radialGradient id="paint0_radial_2_11359" cx="0" cy="0" r="1" gradientUnits="userSpaceOnUse" gradientTransform="translate(13 13) rotate(180) scale(10 33.6111)">
<stop stop-color="#0974FB"/>
<stop offset="1" stop-color="#318BFC"/>
</radialGradient>
</defs>
</svg>
