<svg width="22" height="22" viewBox="0 0 22 22" fill="none" xmlns="http://www.w3.org/2000/svg">
<path d="M8.24997 2.75C8.92984 2.75 9.59445 2.95161 10.1597 3.32932C10.725 3.70704 11.1656 4.2439 11.4258 4.87203C11.686 5.50015 11.7541 6.19131 11.6214 6.85812C11.4888 7.52493 11.1614 8.13744 10.6806 8.61818C10.1999 9.09892 9.5874 9.42631 8.92059 9.55895C8.25378 9.69159 7.56262 9.62351 6.9345 9.36334C6.30637 9.10316 5.76951 8.66257 5.39179 8.09727C5.01408 7.53198 4.81247 6.86737 4.81247 6.1875C4.81247 5.27582 5.17463 4.40148 5.81929 3.75682C6.46395 3.11216 7.33829 2.75 8.24997 2.75ZM8.24997 1.375C7.29815 1.375 6.3677 1.65725 5.57629 2.18605C4.78488 2.71486 4.16805 3.46647 3.8038 4.34584C3.43955 5.22521 3.34425 6.19284 3.52994 7.12637C3.71563 8.05991 4.17398 8.91741 4.84702 9.59045C5.52006 10.2635 6.37756 10.7218 7.3111 10.9075C8.24463 11.0932 9.21226 10.9979 10.0916 10.6337C10.971 10.2694 11.7226 9.65259 12.2514 8.86118C12.7802 8.06977 13.0625 7.13932 13.0625 6.1875C13.0625 4.91115 12.5554 3.68707 11.6529 2.78455C10.7504 1.88203 9.52632 1.375 8.24997 1.375Z" fill="#3B8DF5"/>
<path d="M15.125 20.625H13.75V17.1875C13.75 16.2758 13.3878 15.4015 12.7431 14.7568C12.0985 14.1122 11.2242 13.75 10.3125 13.75H6.18747C5.27579 13.75 4.40145 14.1122 3.75679 14.7568C3.11213 15.4015 2.74997 16.2758 2.74997 17.1875V20.625H1.37497V17.1875C1.37497 15.9111 1.882 14.6871 2.78452 13.7845C3.68704 12.882 4.91112 12.375 6.18747 12.375H10.3125C11.5888 12.375 12.8129 12.882 13.7154 13.7845C14.6179 14.6871 15.125 15.9111 15.125 17.1875V20.625Z" fill="#3B8DF5"/>
<path d="M22 2.75H15.125V4.125H22V2.75Z" fill="#3B8DF5"/>
<path d="M22 6.1875H15.125V7.5625H22V6.1875Z" fill="#3B8DF5"/>
<path d="M19.9375 9.625H15.125V11H19.9375V9.625Z" fill="#3B8DF5"/>
</svg>
