<svg width="24" height="24" viewBox="0 0 24 24" fill="none" xmlns="http://www.w3.org/2000/svg">
<mask id="mask0_2_11375" style="mask-type:alpha" maskUnits="userSpaceOnUse" x="0" y="0" width="24" height="24">
<rect width="24" height="24" fill="#D9D9D9"/>
</mask>
<g mask="url(#mask0_2_11375)">
<path d="M2.30005 20.9501L1.67505 19.0501C2.37505 18.8168 2.93755 18.4084 3.36255 17.8251C3.78755 17.2418 4.00005 16.5834 4.00005 15.8501V5.4001C3.60005 4.96676 3.23755 4.5001 2.91255 4.0001C2.58755 3.5001 2.30838 2.96676 2.07505 2.4001L3.92505 1.6001C4.62505 3.23343 5.70422 4.54176 7.16255 5.5251C8.62088 6.50843 10.2334 7.0001 12 7.0001C13.7667 7.0001 15.3792 6.50843 16.8375 5.5251C18.2959 4.54176 19.375 3.23343 20.075 1.6001L21.925 2.4001C21.6917 2.96676 21.4084 3.5001 21.075 4.0001C20.7417 4.5001 20.3834 4.96676 20 5.4001V15.8501C20 16.5834 20.2084 17.2418 20.625 17.8251C21.0417 18.4084 21.6 18.8168 22.3 19.0501L21.675 20.9501C20.575 20.5834 19.6875 19.9334 19.0125 19.0001C18.3375 18.0668 18 17.0168 18 15.8501V7.1501C17.1167 7.73343 16.1709 8.1876 15.1625 8.5126C14.1542 8.8376 13.1 9.0001 12 9.0001C10.9 9.0001 9.84172 8.8376 8.82505 8.5126C7.80838 8.1876 6.86672 7.73343 6.00005 7.1501V15.8501C6.00005 17.0168 5.65838 18.0668 4.97505 19.0001C4.29172 19.9334 3.40005 20.5834 2.30005 20.9501ZM10 19.0001C9.16672 19.0001 8.45838 18.7084 7.87505 18.1251C7.29172 17.5418 7.00005 16.8334 7.00005 16.0001V9.7251L8.35005 10.0501C9.11672 10.2334 9.81255 10.5543 10.4375 11.0126C11.0625 11.4709 11.5834 12.0168 12 12.6501C12.4167 12.0168 12.9375 11.4709 13.5625 11.0126C14.1875 10.5543 14.8834 10.2334 15.65 10.0501L17 9.7251V16.0001C17 16.8334 16.7084 17.5418 16.125 18.1251C15.5417 18.7084 14.8334 19.0001 14 19.0001C13.6167 19.0001 13.2542 18.9293 12.9125 18.7876C12.5709 18.6459 12.2667 18.4584 12 18.2251C11.7334 18.4584 11.4292 18.6459 11.0875 18.7876C10.7459 18.9293 10.3834 19.0001 10 19.0001Z" fill="url(#paint0_radial_2_11375)"/>
</g>
<defs>
<radialGradient id="paint0_radial_2_11375" cx="0" cy="0" r="1" gradientUnits="userSpaceOnUse" gradientTransform="translate(11.9875 11.2751) rotate(180) scale(10.3125 32.5187)">
<stop stop-color="#0974FB"/>
<stop offset="1" stop-color="#318BFC"/>
</radialGradient>
</defs>
</svg>
