<svg width="24" height="24" viewBox="0 0 24 24" fill="none" xmlns="http://www.w3.org/2000/svg">
<mask id="mask0_2_11382" style="mask-type:alpha" maskUnits="userSpaceOnUse" x="0" y="0" width="24" height="24">
<rect width="24" height="24" fill="#D9D9D9"/>
</mask>
<g mask="url(#mask0_2_11382)">
<path d="M9.1 21.45L8.375 20C8.225 19.7167 8.11667 19.425 8.05 19.125C7.98333 18.825 7.95 18.5167 7.95 18.2C7.95 17.8167 8.00417 17.4375 8.1125 17.0625C8.22083 16.6875 8.39167 16.3333 8.625 16C8.75833 15.8167 8.85833 15.6208 8.925 15.4125C8.99167 15.2042 9.025 14.9833 9.025 14.75C9.025 14.4833 8.975 14.2333 8.875 14L8.575 13.3C8.40833 12.9833 8.27083 12.6583 8.1625 12.325C8.05417 11.9917 8 11.65 8 11.3V7.5C8 7.08333 7.85417 6.72917 7.5625 6.4375C7.27083 6.14583 6.91667 6 6.5 6C6.15 6 5.84167 6.11667 5.575 6.35C5.30833 6.58333 5.13333 6.86667 5.05 7.2C5.61667 7.41667 6.08333 7.77917 6.45 8.2875C6.81667 8.79583 7 9.36667 7 10C7 10.8333 6.70833 11.5417 6.125 12.125C5.54167 12.7083 4.83333 13 4 13C3.16667 13 2.45833 12.7083 1.875 12.125C1.29167 11.5417 1 10.8333 1 10C1 9.33333 1.19167 8.74167 1.575 8.225C1.95833 7.70833 2.45 7.35 3.05 7.15C3.13333 6.25 3.50417 5.5 4.1625 4.9C4.82083 4.3 5.6 4 6.5 4C6.61667 4 6.73333 4.00417 6.85 4.0125C6.96667 4.02083 7.08333 4.04167 7.2 4.075C7.93333 3.69167 8.70417 3.41667 9.5125 3.25C10.3208 3.08333 11.15 3 12 3C12.8333 3 13.6542 3.08333 14.4625 3.25C15.2708 3.41667 16.0417 3.69167 16.775 4.075C16.8917 4.04167 17.0083 4.02083 17.125 4.0125C17.2417 4.00417 17.3583 4 17.475 4C18.3917 4 19.1792 4.3 19.8375 4.9C20.4958 5.5 20.8667 6.25 20.95 7.15C21.55 7.35 22.0417 7.70833 22.425 8.225C22.8083 8.74167 23 9.33333 23 10C23 10.8333 22.7083 11.5417 22.125 12.125C21.5417 12.7083 20.8333 13 20 13C19.1667 13 18.4583 12.7083 17.875 12.125C17.2917 11.5417 17 10.8333 17 10C17 9.36667 17.1833 8.79583 17.55 8.2875C17.9167 7.77917 18.3833 7.41667 18.95 7.2C18.8667 6.86667 18.6917 6.58333 18.425 6.35C18.1583 6.11667 17.8417 6 17.475 6C17.0583 6 16.7083 6.14583 16.425 6.4375C16.1417 6.72917 16 7.08333 16 7.5V11.3C16 11.65 15.9417 11.9917 15.825 12.325C15.7083 12.6583 15.575 12.9833 15.425 13.3C15.3083 13.5333 15.2042 13.7667 15.1125 14C15.0208 14.2333 14.975 14.4833 14.975 14.75C14.975 14.9833 15.0083 15.2042 15.075 15.4125C15.1417 15.6208 15.2417 15.8167 15.375 16C15.5917 16.3333 15.7583 16.6875 15.875 17.0625C15.9917 17.4375 16.05 17.8167 16.05 18.2C16.05 18.5167 16.0125 18.825 15.9375 19.125C15.8625 19.425 15.7583 19.7167 15.625 20L14.9 21.45L13.1 20.55L13.825 19.1C13.9083 18.9667 13.9667 18.825 14 18.675C14.0333 18.525 14.05 18.3667 14.05 18.2C14.05 18 14.0167 17.8083 13.95 17.625C13.8833 17.4417 13.8 17.2667 13.7 17.1C13.4667 16.7667 13.2875 16.4 13.1625 16C13.0375 15.6 12.975 15.1917 12.975 14.775C12.975 14.3917 13.0292 14.0292 13.1375 13.6875C13.2458 13.3458 13.3917 13.0083 13.575 12.675C13.675 12.4417 13.7708 12.2125 13.8625 11.9875C13.9542 11.7625 14 11.5333 14 11.3V7.5C14 7.1 14.0625 6.72083 14.1875 6.3625C14.3125 6.00417 14.4917 5.675 14.725 5.375C14.2917 5.24167 13.8458 5.14583 13.3875 5.0875C12.9292 5.02917 12.4667 5 12 5C11.5333 5 11.0708 5.02917 10.6125 5.0875C10.1542 5.14583 9.70833 5.24167 9.275 5.375C9.50833 5.675 9.6875 6.00417 9.8125 6.3625C9.9375 6.72083 10 7.1 10 7.5V11.3C10 11.5333 10.0417 11.7667 10.125 12C10.2083 12.2333 10.3083 12.4583 10.425 12.675C10.5917 13.0083 10.7333 13.3458 10.85 13.6875C10.9667 14.0292 11.025 14.3917 11.025 14.775C11.025 15.1917 10.9625 15.5958 10.8375 15.9875C10.7125 16.3792 10.5333 16.75 10.3 17.1C10.1833 17.2667 10.0958 17.4417 10.0375 17.625C9.97917 17.8083 9.95 18 9.95 18.2C9.95 18.3667 9.96667 18.525 10 18.675C10.0333 18.825 10.0917 18.9667 10.175 19.1L10.9 20.55L9.1 21.45Z" fill="#939BA7"/>
</g>
</svg>
