<svg width="18" height="22" viewBox="0 0 18 22" fill="none" xmlns="http://www.w3.org/2000/svg">
<path fill-rule="evenodd" clip-rule="evenodd" d="M6.11996 1.44193C6.83829 0.739069 7.81293 0.34375 8.82806 0.34375C9.84317 0.34375 10.8179 0.73906 11.5362 1.44193C12.2554 2.14573 12.6598 3.10046 12.6598 4.09773C12.6589 5.09342 12.2536 6.0482 11.5354 6.75194C10.8163 7.45465 9.84324 7.85017 8.82823 7.85106C7.81321 7.85106 6.83821 7.45666 6.11986 6.75278C5.40068 6.04883 4.99629 5.09415 4.99629 4.09773C4.99629 3.10054 5.4007 2.14581 6.11996 1.44193ZM10.4877 2.47779C9.81775 1.82218 8.80778 1.62442 7.92931 1.98066C7.73131 2.06086 7.549 2.16561 7.38539 2.29036C6.92134 2.64421 6.60771 3.15907 6.51312 3.73186C6.49336 3.85152 6.48316 3.97371 6.48315 4.09748C6.48478 5.35956 7.53018 6.38756 8.8284 6.38912C9.77933 6.38903 10.6332 5.82911 10.9957 4.973C11.3572 4.11822 11.1578 3.13361 10.4877 2.47779Z" fill="#3B8DF5"/>
<path fill-rule="evenodd" clip-rule="evenodd" d="M12.4691 8.20879C13.8045 8.20034 15.0921 8.69001 16.0723 9.57889C17.0384 10.4444 17.5901 11.6675 17.5937 12.9504L17.5938 12.951L17.5937 12.9518C17.5937 15.8162 15.7181 18.0799 13.7177 19.6143C12.7143 20.384 11.6704 20.9777 10.7941 21.3796C10.356 21.5805 9.95776 21.7344 9.62565 21.8385C9.29867 21.9409 9.02034 22 8.82812 22C8.63584 22 8.35745 21.9409 8.03041 21.8385C7.69824 21.7346 7.29999 21.5807 6.8618 21.3799C5.98551 20.9782 4.94163 20.3847 3.9383 19.6153C1.93801 18.0813 0.0625 15.8183 0.0625 12.9542V12.9526C0.0760155 11.332 0.944383 9.83561 2.35709 8.9966C3.38281 8.3757 4.59246 8.1115 5.79031 8.24632C6.92669 8.37423 7.99033 8.85429 8.8268 9.61465C9.80958 8.70578 11.1134 8.20073 12.4691 8.20879ZM8.18762 11.0975C7.47559 10.1872 6.36397 9.65617 5.18757 9.66961L5.18475 9.66965C4.46252 9.66723 3.75447 9.86467 3.14219 10.2384L3.13966 10.2399C2.1635 10.8151 1.56339 11.8425 1.54914 12.9545C1.54969 15.2296 3.11685 17.1238 4.84813 18.4644C5.70981 19.1316 6.60173 19.6533 7.3366 20.0075C7.70403 20.1846 8.03019 20.3189 8.29184 20.4085C8.56084 20.5005 8.74188 20.5383 8.82819 20.5383C8.91448 20.5383 9.09551 20.5005 9.36451 20.4084C9.62615 20.3188 9.9523 20.1844 10.3197 20.0072C11.0545 19.6528 11.9463 19.131 12.8077 18.4636C14.5388 17.1225 16.105 15.2277 16.103 12.9529C16.0997 12.0777 15.7225 11.2438 15.0609 10.6522L15.06 10.6514C14.3566 10.0145 13.4297 9.66414 12.4701 9.6722L12.4662 9.67223C11.2686 9.65774 10.1397 10.2083 9.43044 11.149L9.37327 11.2248H8.2485L8.18762 11.0975Z" fill="#3B8DF5"/>
</svg>
