<svg width="20" height="19" viewBox="0 0 20 19" fill="none" xmlns="http://www.w3.org/2000/svg">
<path d="M9.7585 11.6986C9.91764 12.2214 10.2945 12.3608 10.4928 12.3608H10.5095C10.7468 12.3608 11.0819 12.1981 11.2494 11.7393L11.7156 10.4382C11.9278 10.7577 12.2991 10.9639 12.69 10.9639H14.4879V9.5844H12.7877L12.4471 8.63184C12.2517 8.08006 11.8301 8.03359 11.6961 8.03359C11.3582 8.0423 11.0874 8.25721 10.9534 8.62313L10.557 9.71218L9.59099 6.52924C9.4514 6.06458 9.12475 5.89905 8.84835 5.89905C8.71992 5.89905 8.28439 5.94551 8.11409 6.53505L7.23464 9.5844H5.4953V10.9639H7.36307C7.86003 10.9639 8.32348 10.6154 8.46028 10.1362L8.8651 8.7393L9.7585 11.6986Z" fill="#3B8DF5"/>
<path fill-rule="evenodd" clip-rule="evenodd" d="M12.4443 1.16529C13.0753 0.889399 13.7509 0.75 14.4349 0.75C15.1161 0.75 15.7945 0.892303 16.4255 1.1682C17.0565 1.44409 17.626 1.84486 18.1062 2.35309C19.0806 3.38406 19.6278 4.77514 19.6278 6.22141C19.6278 7.66767 19.0806 9.05875 18.1062 10.0897L10.0014 18.6279L1.89657 10.0897C0.922208 9.05875 0.375 7.67057 0.375 6.22141C0.375 4.77224 0.922208 3.38406 1.89657 2.35018C2.37678 1.84196 2.94632 1.43828 3.57728 1.16529C4.20825 0.892303 4.88668 0.75 5.56789 0.75C6.24911 0.75 6.92754 0.892303 7.5585 1.16529C8.18947 1.44119 8.75901 1.84486 9.23921 2.35018L10.0014 3.15173L10.7636 2.35018C11.2438 1.84486 11.8133 1.44119 12.4443 1.16529ZM15.8923 2.48377C15.4316 2.28048 14.9346 2.17884 14.4349 2.17884C13.9324 2.17884 13.4354 2.28339 12.972 2.48668C12.5085 2.69287 12.0897 2.98909 11.7407 3.36663L10.0014 5.21076L8.25647 3.35211C7.9047 2.98038 7.48591 2.68416 7.02525 2.48377C6.56459 2.28339 6.06764 2.17884 5.56789 2.17884C5.06815 2.17884 4.57399 2.28048 4.11053 2.48377C3.64708 2.68706 3.23109 2.98038 2.87931 3.35211C2.15622 4.1159 1.7514 5.14106 1.7514 6.21269C1.7514 7.28432 2.15622 8.30948 2.87931 9.07327L10.0014 16.5747L17.1235 9.07327C17.8466 8.30948 18.2514 7.28432 18.2514 6.21269C18.2514 5.14106 17.8466 4.1159 17.1235 3.35211C16.7717 2.98038 16.3529 2.68416 15.8923 2.48377Z" fill="#3B8DF5"/>
</svg>
