<svg width="24" height="24" viewBox="0 0 24 24" fill="none" xmlns="http://www.w3.org/2000/svg">
<mask id="mask0_2_11388" style="mask-type:alpha" maskUnits="userSpaceOnUse" x="0" y="0" width="24" height="24">
<rect width="24" height="24" fill="#D9D9D9"/>
</mask>
<g mask="url(#mask0_2_11388)">
<path d="M13 23C11.7834 23 10.8125 22.4917 10.0875 21.475C9.36255 20.4583 9.00005 19.3 9.00005 18C9.00005 16.7 9.36255 15.5417 10.0875 14.525C10.8125 13.5083 11.7834 13 13 13C14.2167 13 15.1875 13.5083 15.9125 14.525C16.6375 15.5417 17 16.7 17 18C17 19.3 16.6375 20.4583 15.9125 21.475C15.1875 22.4917 14.2167 23 13 23ZM4.45005 22.3L2.55005 21.7C3.06672 20.1333 3.43755 18.5375 3.66255 16.9125C3.88755 15.2875 4.00005 13.65 4.00005 12C4.00005 10.35 3.88755 8.7125 3.66255 7.0875C3.43755 5.4625 3.06672 3.86667 2.55005 2.3L4.45005 1.7C5.00005 3.36667 5.39588 5.05833 5.63755 6.775C5.87922 8.49167 6.00005 10.2333 6.00005 12C6.00005 13.7667 5.87922 15.5083 5.63755 17.225C5.39588 18.9417 5.00005 20.6333 4.45005 22.3ZM19.55 22.3C19 20.6333 18.6042 18.9417 18.3625 17.225C18.1209 15.5083 18 13.7667 18 12C18 10.2333 18.1209 8.49167 18.3625 6.775C18.6042 5.05833 19 3.36667 19.55 1.7L21.45 2.3C20.9334 3.86667 20.5625 5.4625 20.3375 7.0875C20.1125 8.7125 20 10.35 20 12C20 13.65 20.1125 15.2875 20.3375 16.9125C20.5625 18.5375 20.9334 20.1333 21.45 21.7L19.55 22.3ZM12.225 19.8C12.375 19.9333 12.55 20 12.75 20C12.95 20 13.125 19.925 13.275 19.775C13.5084 19.5417 13.6875 19.2708 13.8125 18.9625C13.9375 18.6542 14 18.3333 14 18C14 17.6667 13.9417 17.3458 13.825 17.0375C13.7084 16.7292 13.5334 16.4583 13.3 16.225C13.1667 16.075 12.9959 16 12.7875 16C12.5792 16 12.4 16.0667 12.25 16.2C12.1 16.3333 12.0209 16.5083 12.0125 16.725C12.0042 16.9417 12.0667 17.125 12.2 17.275L12.35 17.4875C12.45 17.6292 12.5 17.8 12.5 18C12.5 18.2 12.45 18.3708 12.35 18.5125L12.2 18.725C12.05 18.875 11.9792 19.0583 11.9875 19.275C11.9959 19.4917 12.075 19.6667 12.225 19.8ZM11 11C9.78338 11 8.81255 10.4917 8.08755 9.475C7.36255 8.45833 7.00005 7.3 7.00005 6C7.00005 4.7 7.36255 3.54167 8.08755 2.525C8.81255 1.50833 9.78338 1 11 1C12.2167 1 13.1875 1.50833 13.9125 2.525C14.6375 3.54167 15 4.7 15 6C15 7.3 14.6375 8.45833 13.9125 9.475C13.1875 10.4917 12.2167 11 11 11ZM11.75 7.8C11.9 7.66667 11.9792 7.49167 11.9875 7.275C11.9959 7.05833 11.9334 6.875 11.8 6.725C11.7167 6.625 11.6459 6.5125 11.5875 6.3875C11.5292 6.2625 11.5 6.13333 11.5 6C11.5 5.86667 11.5292 5.7375 11.5875 5.6125C11.6459 5.4875 11.7167 5.375 11.8 5.275C11.9334 5.125 12 4.94583 12 4.7375C12 4.52917 11.925 4.35 11.775 4.2C11.625 4.06667 11.45 4 11.25 4C11.05 4 10.875 4.075 10.725 4.225C10.4917 4.45833 10.3125 4.72917 10.1875 5.0375C10.0625 5.34583 10 5.66667 10 6C10 6.33333 10.0584 6.65417 10.175 6.9625C10.2917 7.27083 10.4667 7.54167 10.7 7.775C10.85 7.925 11.025 8 11.225 8C11.425 8 11.6 7.93333 11.75 7.8Z" fill="#939BA7"/>
</g>
</svg>
