<svg width="22" height="20" viewBox="0 0 22 20" fill="none" xmlns="http://www.w3.org/2000/svg">
<path d="M17.36 13.4763C16.1451 13.4763 15.0307 12.9559 14.3035 12.0487L14.2602 11.9949C13.8318 11.465 13.5762 10.8256 13.5222 10.1462C13.4726 9.472 13.6213 8.80471 13.9526 8.21593C14.402 7.40809 14.402 6.44199 13.9526 5.63289C13.6213 5.04537 13.4726 4.37808 13.5222 3.7051C13.5768 3.02389 13.833 2.38446 14.2634 1.85455L14.306 1.802C15.0333 0.895407 16.1477 0.375 17.3625 0.375C17.4712 0.375 17.5818 0.379432 17.6912 0.387662C18.9931 0.490224 20.1355 1.19043 20.747 2.26163C21.5671 3.7013 22 5.3138 22 6.92504C22 8.53628 21.5664 10.15 20.7457 11.5884C20.1342 12.6603 18.9918 13.3605 17.6899 13.4624C17.5831 13.4706 17.4725 13.4751 17.3606 13.4751L17.36 13.4763ZM17.36 1.70514C16.5532 1.70514 15.8196 2.04322 15.3473 2.632L15.3079 2.68264C14.7713 3.35056 14.7014 4.23374 15.1229 4.98966C15.4509 5.58097 15.6245 6.25016 15.6251 6.92504C15.627 7.60056 15.4535 8.27101 15.1229 8.86169C14.7033 9.61634 14.7733 10.4995 15.306 11.1649L15.3492 11.2187C15.8209 11.8081 16.5545 12.1462 17.3619 12.1462C17.4362 12.1462 17.5119 12.143 17.5863 12.1373C18.4464 12.0696 19.194 11.6195 19.5862 10.9319C20.2912 9.69295 20.6644 8.30709 20.6644 6.92504C20.6644 5.54298 20.2906 4.1565 19.5843 2.91879C19.1921 2.23125 18.4445 1.78048 17.585 1.71337C17.5113 1.70767 17.435 1.70514 17.36 1.70514Z" fill="#3B8DF5"/>
<path d="M4.63941 13.4763C4.53007 13.4763 4.41882 13.4719 4.30947 13.4637C3.00691 13.3618 1.86454 12.6609 1.25362 11.5897C0.433554 10.1507 0 8.53817 0 6.92631C0 5.31444 0.433554 3.70067 1.25425 2.2629C1.86581 1.1917 3.00754 0.490857 4.31011 0.388295C4.41945 0.379432 4.53007 0.375633 4.63941 0.375633C5.85425 0.375633 6.96801 0.895407 7.69526 1.80264L7.73849 1.85645C8.1676 2.38635 8.42315 3.02578 8.47719 3.7051C8.52677 4.37998 8.37802 5.04664 8.04618 5.63605C7.59673 6.44388 7.59673 7.40999 8.04618 8.21909C8.37674 8.80661 8.5255 9.47326 8.47591 10.1456C8.42188 10.8262 8.16632 11.4663 7.73658 11.9968L7.69399 12.05C6.96674 12.9566 5.85298 13.477 4.63814 13.477L4.63941 13.4763ZM4.63941 1.70514C4.56503 1.70514 4.48938 1.70831 4.415 1.714C3.55552 1.78111 2.80793 2.23251 2.4157 2.92069C1.70879 4.15777 1.33563 5.54298 1.33563 6.92567C1.33563 8.30836 1.70879 9.69421 2.4157 10.9326C2.80793 11.6201 3.55552 12.0709 4.41564 12.138C4.49129 12.1437 4.56757 12.1468 4.64259 12.1468C5.44676 12.1468 6.17973 11.8088 6.65334 11.2187L6.69656 11.1649C7.23056 10.5001 7.30049 9.61698 6.87965 8.86106C6.54908 8.27037 6.37553 7.60056 6.37744 6.92441C6.37744 6.25016 6.55162 5.58097 6.87965 4.98966C7.29985 4.23374 7.22992 3.35056 6.69656 2.68454L6.65334 2.63073C6.18037 2.04195 5.44612 1.70387 4.64004 1.70387L4.63941 1.70514Z" fill="#3B8DF5"/>
<path d="M9.05187 7.75313C9.00419 7.75123 8.95588 7.74427 8.90947 7.73224C8.32017 7.57966 7.7849 7.53535 7.33927 7.51319H7.331C7.1511 7.50432 6.97056 7.49926 6.81163 7.49483C6.40477 7.4828 6.0208 7.4714 5.63557 7.41696C4.48493 7.25362 3.6833 6.73321 2.95605 5.6772C2.74817 5.37458 2.82573 4.9599 3.1296 4.75288C3.24085 4.67691 3.3718 4.63639 3.50657 4.63639C3.72716 4.63639 3.93314 4.74465 4.05773 4.92571C4.64577 5.77976 5.16895 6.00831 5.82374 6.10075C6.13523 6.14506 6.48233 6.15519 6.85041 6.16595H6.87393C7.03858 6.17165 7.20831 6.17672 7.38504 6.18495H7.39521C7.87581 6.20837 8.52042 6.25839 9.24512 6.44642C9.4174 6.49073 9.56234 6.59963 9.65261 6.75284C9.74288 6.90605 9.76831 7.08458 9.72381 7.25678C9.64753 7.54991 9.38244 7.75503 9.07793 7.75503H9.05123L9.05187 7.75313Z" fill="#3B8DF5"/>
<path d="M3.47097 9.1048C3.42838 8.88005 3.3165 7.68349 5.33678 6.21977C5.45184 6.13683 5.58725 6.09251 5.72901 6.09251C5.94261 6.09251 6.14477 6.19508 6.27 6.36665C6.3749 6.51036 6.41685 6.68636 6.38952 6.86173C6.36155 7.0371 6.26683 7.19157 6.12188 7.29604C4.79706 8.25645 4.78944 8.90411 4.79007 8.91044L4.8066 9.12379L4.58029 9.15418L3.51865 9.35234L3.47097 9.1048Z" fill="#3B8DF5"/>
<path d="M12.9195 7.7563C12.7409 7.7563 12.5737 7.68729 12.4478 7.5613C12.322 7.43595 12.2527 7.26881 12.2527 7.09091C12.2527 6.78766 12.4586 6.52366 12.753 6.44768C13.47 6.26092 14.1217 6.209 14.6092 6.18495H14.6188C14.7949 6.17672 14.964 6.17165 15.1273 6.16659H15.1528C15.5208 6.15519 15.8686 6.14506 16.1794 6.10075C16.8342 6.00768 17.358 5.77913 17.9454 4.92571C18.07 4.74465 18.276 4.63639 18.4966 4.63639C18.6314 4.63639 18.7617 4.67691 18.8736 4.75288C19.1775 4.9599 19.255 5.37458 19.0471 5.6772C18.3199 6.73194 17.5189 7.25172 16.3676 7.41569C15.9728 7.47077 15.5577 7.4828 15.1916 7.49356C15.0078 7.49863 14.8419 7.50369 14.6722 7.51192H14.6626C14.2208 7.53345 13.6887 7.5765 13.088 7.73287C13.0371 7.74744 12.9799 7.75567 12.9227 7.7563H12.9195Z" fill="#3B8DF5"/>
<path d="M17.4242 9.15355L17.1953 9.1124L17.2137 8.92247V8.91107C17.2137 8.90537 17.2093 8.25708 15.8819 7.2954C15.5844 7.07952 15.5183 6.66294 15.7351 6.36665C15.8603 6.19508 16.0625 6.09315 16.2754 6.09315C16.4172 6.09315 16.5532 6.13746 16.6677 6.2204C18.6759 7.67653 18.5742 8.87688 18.5335 9.1029L18.4883 9.35424L17.4242 9.15355Z" fill="#3B8DF5"/>
<path d="M8.67171 16.1284C8.60878 16.1284 8.54648 16.1195 8.48609 16.1018C7.68382 15.8695 7.3666 15.3801 7.24137 15.0103C6.96229 14.1829 7.34117 13.068 8.36657 11.6967C8.87005 11.0231 9.17965 10.3191 9.28581 9.60368C9.47017 8.36154 8.9991 7.83923 8.70159 7.63791C8.39709 7.43215 8.31699 7.01811 8.52296 6.71485C8.64756 6.53189 8.85416 6.42236 9.07603 6.42236C9.20952 6.42236 9.33857 6.46161 9.44982 6.53695C10.0061 6.91174 10.8967 7.83417 10.6062 9.79678C10.4676 10.7325 10.0741 11.6391 9.43711 12.49C8.65773 13.5321 8.40789 14.2937 8.50706 14.5855C8.54076 14.6856 8.659 14.766 8.85861 14.8236C9.21207 14.9255 9.41677 15.2946 9.31442 15.6466C9.2572 15.8441 9.11099 16.0005 8.92727 16.0765V16.1271H8.67235L8.67171 16.1284Z" fill="#3B8DF5"/>
<path d="M13.3264 16.1284C12.9583 16.1284 12.6589 15.8302 12.6589 15.4643C12.6589 15.1699 12.8566 14.9071 13.1408 14.8248C13.3397 14.7672 13.458 14.6875 13.4917 14.5874C13.5902 14.2949 13.341 13.5333 12.5616 12.4912C11.924 11.6391 11.5311 10.7325 11.3938 9.79741C11.1033 7.83607 11.9914 6.91554 12.547 6.54138C12.6576 6.46668 12.7873 6.42679 12.9214 6.42679C13.1427 6.42679 13.3493 6.53568 13.4739 6.71802C13.5743 6.8649 13.6112 7.04153 13.5775 7.21627C13.5444 7.391 13.4446 7.54168 13.2971 7.64171C13.0009 7.8424 12.5311 8.36407 12.7148 9.60495C12.8204 10.3203 13.1287 11.0244 13.6315 11.6967C14.6569 13.068 15.0358 14.1829 14.7574 15.0103C14.6328 15.3801 14.3155 15.8695 13.5133 16.1018C13.4529 16.1189 13.3912 16.1278 13.3283 16.1284H13.3264Z" fill="#3B8DF5"/>
<path d="M10.9997 17.601C10.2616 17.601 9.55662 17.4345 9.01563 17.1312C8.35322 16.7596 7.98896 16.2234 7.98896 15.6213C7.98896 15.0192 8.35386 14.4836 9.01563 14.112C9.55472 13.8087 10.2597 13.6422 11.0003 13.6422C11.7409 13.6422 12.444 13.8094 12.9844 14.112C13.6468 14.4836 14.011 15.0192 14.011 15.6213C14.011 16.2234 13.6468 16.7577 12.985 17.13C12.444 17.4338 11.7384 17.601 10.9997 17.601ZM10.9997 14.9698C9.91071 14.9698 9.32268 15.4314 9.32268 15.6207C9.32268 15.8099 9.91008 16.2715 10.9997 16.2715C12.0893 16.2715 12.6767 15.8093 12.6767 15.6207C12.6767 15.432 12.0893 14.9698 10.9997 14.9698Z" fill="#3B8DF5"/>
<path d="M10.9997 19.6085C10.6316 19.6085 10.3322 19.625 10.3322 19.625V16.9356C10.3322 16.569 10.6316 16.2715 10.9997 16.2715C11.3678 16.2715 11.6672 16.569 11.6672 16.9356V19.625C11.6672 19.625 11.3678 19.6085 10.9997 19.6085Z" fill="#3B8DF5"/>
</svg>
