<svg width="22" height="21" viewBox="0 0 22 21" fill="none" xmlns="http://www.w3.org/2000/svg">
<path d="M2.63374 20.625C2.0257 20.625 1.44724 20.3757 1.0134 19.925L0.67487 19.5733C0.22788 19.1089 -0.0186212 18.4771 0.00109893 17.842C0.234454 10.374 3.15303 4.52452 6.65007 4.52452C8.90802 4.52452 9.50291 7.20509 9.50291 8.61879V8.75538H8.15208V8.61879C8.15208 8.50611 8.0995 5.92457 6.65007 5.92457C4.00428 5.92457 1.52612 11.5691 1.34535 18.0025C1.33549 18.3201 1.46039 18.6376 1.6806 18.8698C1.89423 19.0918 2.18346 19.2181 2.47926 19.2181C6.72238 19.0713 8.69439 17.6781 8.69439 14.8404V12.1052L6.79797 12.9521V13.0682C6.7421 14.4819 6.54818 15.9366 5.48987 17.0361L5.39784 17.1317L4.45127 16.1483L4.52687 16.0527C5.02973 15.4278 5.33539 14.6697 5.41099 13.8604L5.43728 13.5565L3.52114 14.4102L2.9887 13.1228L6.48245 11.5657L3.6559 10.9784L3.9254 9.60565L5.8284 10.0018L5.41756 8.71782L6.69937 8.2739L7.59006 11.074L10.3213 9.85834V0H11.6787V9.85493L14.4099 11.0706L15.3006 8.27049L16.5824 8.7144L16.1716 9.99834L18.0746 9.60224L18.3441 10.975L15.5176 11.5623L19.0113 13.1194L18.4789 14.4068L16.5627 13.5531L16.589 13.857C16.6613 14.6663 16.967 15.4244 17.4731 16.0493L17.5487 16.1449L16.6022 17.1283L16.5101 17.0327C15.4518 15.9332 15.2579 14.4751 15.2053 13.0648V12.9487L13.3056 12.1018V14.837C13.3056 17.6747 15.2711 19.0679 19.4846 19.2147C19.81 19.2147 20.1025 19.0918 20.3194 18.8664C20.5429 18.6342 20.6645 18.3201 20.6546 18.0025C20.4739 11.5691 17.9957 5.92457 15.3499 5.92457C13.9005 5.92457 13.8479 8.50611 13.8479 8.61538V8.75197H12.4971V8.61538C12.4971 7.19826 13.092 4.52111 15.3499 4.52111C18.847 4.52111 21.7688 10.3706 21.9989 17.8386C22.0186 18.4737 21.7721 19.1054 21.3251 19.5698L20.9866 19.9216C20.5528 20.3723 19.9776 20.6216 19.3663 20.6216H19.294C15.9481 20.5157 11.9515 19.4264 11.9515 14.8404V11.5042L10.9951 11.0774L10.7847 11.1764L10.6171 11.2413L10.0288 11.5042V14.8404C10.0288 19.4264 6.03546 20.5157 2.68304 20.6216H2.61073L2.63374 20.625Z" fill="#3B8DF5"/>
</svg>
