<svg width="18" height="22" viewBox="0 0 18 22" fill="none" xmlns="http://www.w3.org/2000/svg">
<path d="M17.2132 20.3786C16.2376 17.2789 15.7408 14.0542 15.7428 10.8113V6.11058C16.7217 4.76083 17.2465 3.14555 17.2445 1.49188C17.2511 1.44047 17.2518 1.38971 17.2464 1.33895V0.6875H15.7821V1.35717C15.7787 1.40207 15.7794 1.44698 15.7854 1.49188C15.7854 3.86143 14.4915 6.05005 12.3925 7.23385C10.2935 8.41829 7.70765 8.41829 5.60797 7.23385C3.50829 6.0507 2.21438 3.86143 2.21438 1.49188C2.22171 1.43526 2.22104 1.37864 2.21438 1.32268V0.6875H0.75V1.44698H0.751998C0.752664 1.46195 0.75333 1.47691 0.755327 1.49253C0.761987 3.15076 1.29873 4.76538 2.2883 6.11123V10.8425C2.2903 14.0854 1.79418 17.3101 0.817925 20.4098C0.758657 20.5908 0.776637 20.7873 0.867204 20.9552C0.959102 21.1225 1.11426 21.2481 1.30073 21.3027H1.51116C1.83347 21.3034 2.11782 21.0997 2.21438 20.7997C3.23326 17.5646 3.75069 14.1974 3.74869 10.8119V7.67118C5.22439 8.86799 7.08167 9.52334 9.00022 9.52334C10.9188 9.52334 12.7754 8.86799 14.2518 7.67118V10.8119C14.2584 14.2019 14.7865 17.573 15.8174 20.8101C15.9139 21.1101 16.1983 21.3131 16.5206 21.3125H16.731C16.9168 21.2585 17.0726 21.1335 17.1645 20.965C17.2551 20.7977 17.2731 20.6005 17.2138 20.4196L17.2132 20.3786Z" fill="#3B8DF5"/>
<path d="M12.7607 10.8119C11.2304 10.8256 9.81399 11.5994 9.00022 12.8652C8.18712 11.5987 6.77002 10.8249 5.23971 10.8119C4.83416 10.8119 4.50519 11.1341 4.50519 11.531V15.8113C4.49919 16.8565 5.14648 17.7982 6.13871 18.188C7.13029 18.5766 8.26437 18.3351 9.00022 17.5769C9.73607 18.3351 10.8702 18.5766 11.8617 18.188C12.854 17.7982 13.5013 16.8565 13.4953 15.8113V11.531C13.4953 11.3404 13.4187 11.1575 13.2808 11.0228C13.143 10.8881 12.9559 10.8119 12.7607 10.8119ZM8.26437 15.8107C8.26437 16.4283 7.75227 16.93 7.1203 16.93V16.9704C6.48833 16.9704 5.9749 16.4699 5.9749 15.8523V12.3315C7.31875 12.6608 8.26304 13.8407 8.26437 15.195V15.8107ZM12.0249 15.8523C12.0249 16.4699 11.5121 16.9704 10.8795 16.9704C10.2468 16.9704 9.73541 16.4699 9.73541 15.8523V15.2367C9.73607 13.8817 10.6804 12.7018 12.0249 12.3732V15.8523Z" fill="#3B8DF5"/>
</svg>
