<svg width="24" height="24" viewBox="0 0 24 24" fill="none" xmlns="http://www.w3.org/2000/svg">
<mask id="mask0_2_11390" style="mask-type:alpha" maskUnits="userSpaceOnUse" x="0" y="0" width="24" height="24">
<rect width="24" height="24" fill="#D9D9D9"/>
</mask>
<g mask="url(#mask0_2_11390)">
<path d="M9 21V16.825C8.83333 16.8917 8.67083 16.9375 8.5125 16.9625C8.35417 16.9875 8.18333 17 8 17C6.33333 17 4.91667 16.4167 3.75 15.25C2.58333 14.0833 2 12.6667 2 11V9C2 7.33333 2.58333 5.91667 3.75 4.75C4.91667 3.58333 6.33333 3 8 3C8.83333 3 9.54167 3.29167 10.125 3.875C10.7083 4.45833 11 5.16667 11 6C11 6.83333 10.7083 7.54167 10.125 8.125C9.54167 8.70833 8.83333 9 8 9V11C8.83333 11 9.54167 11.2917 10.125 11.875C10.7083 12.4583 11 13.1667 11 14V21H9ZM13 21V14C13 13.1667 13.2917 12.4583 13.875 11.875C14.4583 11.2917 15.1667 11 16 11V9C15.1667 9 14.4583 8.70833 13.875 8.125C13.2917 7.54167 13 6.83333 13 6C13 5.16667 13.2917 4.45833 13.875 3.875C14.4583 3.29167 15.1667 3 16 3C17.6667 3 19.0833 3.58333 20.25 4.75C21.4167 5.91667 22 7.33333 22 9V11C22 12.6667 21.4167 14.0833 20.25 15.25C19.0833 16.4167 17.6667 17 16 17C15.8167 17 15.6458 16.9875 15.4875 16.9625C15.3292 16.9375 15.1667 16.8917 15 16.825V21H13Z" fill="#939BA7"/>
</g>
</svg>
