<svg width="24" height="24" viewBox="0 0 24 24" fill="none" xmlns="http://www.w3.org/2000/svg">
<mask id="mask0_2_11394" style="mask-type:alpha" maskUnits="userSpaceOnUse" x="0" y="0" width="24" height="24">
<rect width="24" height="24" fill="#D9D9D9"/>
</mask>
<g mask="url(#mask0_2_11394)">
<path d="M7 13C5.9 13 4.95833 12.6083 4.175 11.825C3.39167 11.0417 3 10.1 3 9C3 7.9 3.39167 6.95833 4.175 6.175C4.95833 5.39167 5.9 5 7 5H8V1H16V5H17C18.1 5 19.0417 5.39167 19.825 6.175C20.6083 6.95833 21 7.9 21 9C21 10.1 20.6083 11.0417 19.825 11.825C19.0417 12.6083 18.1 13 17 13H14.675C14.8583 12.8167 15.0208 12.6125 15.1625 12.3875C15.3042 12.1625 15.4167 11.925 15.5 11.675C15.5667 11.475 15.6875 11.3125 15.8625 11.1875C16.0375 11.0625 16.2333 11 16.45 11H17V9H16.45C15.8 9 15.2125 9.1875 14.6875 9.5625C14.1625 9.9375 13.8 10.4333 13.6 11.05C13.5167 11.3333 13.35 11.5625 13.1 11.7375C12.85 11.9125 12.575 12 12.275 12H11.725C11.425 12 11.15 11.9125 10.9 11.7375C10.65 11.5625 10.4833 11.3333 10.4 11.05C10.2 10.4333 9.8375 9.9375 9.3125 9.5625C8.7875 9.1875 8.2 9 7.55 9H7V11H7.55C7.76667 11 7.95833 11.0625 8.125 11.1875C8.29167 11.3125 8.41667 11.475 8.5 11.675C8.58333 11.925 8.69583 12.1625 8.8375 12.3875C8.97917 12.6125 9.14167 12.8167 9.325 13H7ZM8 22C7.65 22 7.32083 21.9125 7.0125 21.7375C6.70417 21.5625 6.45833 21.3167 6.275 21H4C3.16667 21 2.45833 20.7083 1.875 20.125C1.29167 19.5417 1 18.8333 1 18V14H3V18C3 18.2833 3.09583 18.5208 3.2875 18.7125C3.47917 18.9042 3.71667 19 4 19H6.275C6.45833 18.6833 6.70417 18.4375 7.0125 18.2625C7.32083 18.0875 7.65 18 8 18H9V17C9 16.7167 9.09583 16.4792 9.2875 16.2875C9.47917 16.0958 9.71667 16 10 16C10.2833 16 10.5208 16.0958 10.7125 16.2875C10.9042 16.4792 11 16.7167 11 17V18H13V17C13 16.7167 13.0958 16.4792 13.2875 16.2875C13.4792 16.0958 13.7167 16 14 16C14.2833 16 14.5208 16.0958 14.7125 16.2875C14.9042 16.4792 15 16.7167 15 17V18H16C16.35 18 16.6792 18.0875 16.9875 18.2625C17.2958 18.4375 17.5417 18.6833 17.725 19H20C20.2833 19 20.5208 18.9042 20.7125 18.7125C20.9042 18.5208 21 18.2833 21 18V14H23V18C23 18.8333 22.7083 19.5417 22.125 20.125C21.5417 20.7083 20.8333 21 20 21H17.725C17.5417 21.3167 17.2958 21.5625 16.9875 21.7375C16.6792 21.9125 16.35 22 16 22H8Z" fill="#939BA7"/>
</g>
</svg>
