<svg width="24" height="24" viewBox="0 0 24 24" fill="none" xmlns="http://www.w3.org/2000/svg">
<mask id="mask0_2_11377" style="mask-type:alpha" maskUnits="userSpaceOnUse" x="0" y="0" width="24" height="24">
<rect width="24" height="24" fill="#D9D9D9"/>
</mask>
<g mask="url(#mask0_2_11377)">
<path d="M5 21C4.15 21 3.4375 20.7125 2.8625 20.1375C2.2875 19.5625 2 18.85 2 18V13.825L4.625 6.8C4.825 6.25 5.175 5.8125 5.675 5.4875C6.175 5.1625 6.71667 5 7.3 5C7.73333 5 8.14167 5.10833 8.525 5.325C8.90833 5.54167 9.225 5.83333 9.475 6.2V9L6.925 11.55L8 12.6L11 9.6V2H13V9.6L16 12.6L17.05 11.55L14.5 9V6.2C14.75 5.83333 15.0667 5.54167 15.45 5.325C15.8333 5.10833 16.2417 5 16.675 5C17.2583 5 17.7958 5.1625 18.2875 5.4875C18.7792 5.8125 19.1333 6.25 19.35 6.8L21.975 13.825V18C21.975 18.85 21.6833 19.5625 21.1 20.1375C20.5167 20.7125 19.8083 21 18.975 21H15.975C15.1417 21 14.4375 20.7125 13.8625 20.1375C13.2875 19.5625 13 18.85 13 18V16L13.375 12.825L12 11.425L10.6 12.825L11 16V18C11 18.85 10.7083 19.5625 10.125 20.1375C9.54167 20.7125 8.83333 21 8 21H5Z" fill="url(#paint0_radial_2_11377)"/>
</g>
<defs>
<radialGradient id="paint0_radial_2_11377" cx="0" cy="0" r="1" gradientUnits="userSpaceOnUse" gradientTransform="translate(11.9875 11.5) rotate(180) scale(9.9875 31.9306)">
<stop stop-color="#0974FB"/>
<stop offset="1" stop-color="#318BFC"/>
</radialGradient>
</defs>
</svg>
