<svg width="22" height="20" viewBox="0 0 22 20" fill="none" xmlns="http://www.w3.org/2000/svg">
<path d="M3.37451 19.6244V16.9477C3.37451 15.6039 4.55096 14.5112 5.99629 14.5112C6.39581 14.5112 6.80087 14.6012 7.1679 14.7714L9.67494 15.9257C10.6426 16.3747 11.676 16.6027 12.7474 16.6027C16.5401 16.6027 19.7072 14.0789 20.2775 10.6019L20.3715 10.097C20.5941 8.77311 20.1441 7.45115 19.137 6.47349C18.2426 5.6243 17.0516 5.15538 15.7853 5.15538C15.6166 5.15538 15.4459 5.16373 15.2779 5.18108L14.1519 5.29028C14.051 5.30312 13.9425 5.31019 13.834 5.31019C13.234 5.31019 12.634 5.09307 12.1433 4.69995C11.591 4.25609 11.2751 3.59961 11.2751 2.89816V0.375H12.8621V2.87696C12.8614 3.15253 12.9783 3.40369 13.1912 3.58355C13.3792 3.74221 13.6031 3.82636 13.8374 3.82636C13.8782 3.82636 13.9204 3.82379 13.9619 3.81865L15.0934 3.70881C15.3284 3.6844 15.5682 3.67155 15.8046 3.67155C17.4884 3.67155 19.0699 4.30105 20.2574 5.4438L20.7164 5.88509L20.6646 5.87546C21.7325 7.1274 22.1908 8.72172 21.9295 10.3334L21.8355 10.8389C21.1401 15.0322 17.3177 18.0782 12.7481 18.0782C11.468 18.0782 10.1636 17.793 8.97681 17.2528L6.46839 16.0978C6.3108 16.024 6.1532 15.9867 5.99837 15.9867C5.4371 15.9867 4.96293 16.4274 4.96293 16.949V19.6244H3.37451Z" fill="#3B8DF5"/>
<path d="M0 19.625V16.2957C0 12.994 2.8796 10.3083 6.41863 10.3083H9.86502C10.2051 10.3083 10.5113 10.1317 10.6641 9.8484C10.8583 9.46813 10.729 9.01142 10.3613 8.78917L9.98115 8.54636C8.64918 7.72158 7.85221 6.34245 7.85221 4.85926V0.375H9.43924V4.85862C9.43924 5.86069 9.97424 6.78631 10.8694 7.3336L11.2481 7.57576C12.2877 8.21105 12.6506 9.47841 12.09 10.5216C11.6843 11.2988 10.8403 11.7825 9.88853 11.7825H6.41932C3.75468 11.7825 1.58703 13.8072 1.58703 16.295V19.6244L0 19.625Z" fill="#3B8DF5"/>
<path d="M18.1091 10.4856L18.2384 9.79316C18.3469 9.06538 18.1091 8.37164 17.5665 7.84684C17.1076 7.39976 16.462 7.14346 15.7943 7.14346H15.5869V5.66862H15.7943C16.9113 5.66862 17.9474 6.08487 18.7112 6.84091C19.5987 7.68882 19.9948 8.85212 19.7957 10.0302L19.6665 10.7226L18.1091 10.4856Z" fill="#3B8DF5"/>
</svg>
