<svg width="24" height="24" viewBox="0 0 24 24" fill="none" xmlns="http://www.w3.org/2000/svg">
<mask id="mask0_2_11361" style="mask-type:alpha" maskUnits="userSpaceOnUse" x="0" y="0" width="24" height="24">
<rect width="24" height="24" fill="#D9D9D9"/>
</mask>
<g mask="url(#mask0_2_11361)">
<path d="M12 16C13.1333 16 14.3917 15.775 15.775 15.325C17.1583 14.875 19.2333 14.0833 22 12.95V12.575C22 11.725 21.6583 11.0417 20.975 10.525C20.2917 10.0083 19.5417 9.86667 18.725 10.1C18.4417 10.1833 18.1542 10.2833 17.8625 10.4C17.5708 10.5167 17.1833 10.6667 16.7 10.85C15.6833 11.2833 14.825 11.5833 14.125 11.75C13.425 11.9167 12.7167 12 12 12C11.25 12 10.525 11.9125 9.825 11.7375C9.125 11.5625 8.24167 11.2583 7.175 10.825C6.775 10.6583 6.42917 10.5208 6.1375 10.4125C5.84583 10.3042 5.56667 10.2083 5.3 10.125C4.48333 9.85833 3.72917 9.98333 3.0375 10.5C2.34583 11.0167 2 11.7083 2 12.575V12.9C4.18333 13.9 6.1 14.6667 7.75 15.2C9.4 15.7333 10.8167 16 12 16ZM12 22C14.3 22 16.3208 21.3708 18.0625 20.1125C19.8042 18.8542 20.9833 17.2417 21.6 15.275C19.4167 16.2083 17.5833 16.8958 16.1 17.3375C14.6167 17.7792 13.25 18 12 18C10.7333 18 9.2875 17.7625 7.6625 17.2875C6.0375 16.8125 4.26667 16.1333 2.35 15.25C2.91667 17.3 4.05833 18.9375 5.775 20.1625C7.49167 21.3875 9.56667 22 12 22ZM12 10C10.9 10 9.95833 9.60833 9.175 8.825C8.39167 8.04167 8 7.1 8 6C8 4.9 8.39167 3.95833 9.175 3.175C9.95833 2.39167 10.9 2 12 2C13.1 2 14.0417 2.39167 14.825 3.175C15.6083 3.95833 16 4.9 16 6C16 7.1 15.6083 8.04167 14.825 8.825C14.0417 9.60833 13.1 10 12 10Z" fill="url(#paint0_radial_2_11361)"/>
</g>
<defs>
<radialGradient id="paint0_radial_2_11361" cx="0" cy="0" r="1" gradientUnits="userSpaceOnUse" gradientTransform="translate(12 12) rotate(180) scale(10 33.6111)">
<stop stop-color="#0974FB"/>
<stop offset="1" stop-color="#318BFC"/>
</radialGradient>
</defs>
</svg>
