<svg width="24" height="24" viewBox="0 0 24 24" fill="none" xmlns="http://www.w3.org/2000/svg">
<mask id="mask0_2_11386" style="mask-type:alpha" maskUnits="userSpaceOnUse" x="0" y="0" width="24" height="24">
<rect width="24" height="24" fill="#D9D9D9"/>
</mask>
<g mask="url(#mask0_2_11386)">
<path d="M2 12.775L7.5 4C8.75 4.61667 9.90833 5.4625 10.975 6.5375C12.0417 7.6125 12.8417 8.73333 13.375 9.9C13.975 9.26667 14.6375 8.75833 15.3625 8.375C16.0875 7.99167 17.1 7.63333 18.4 7.3C19.1667 7.08333 19.8292 6.875 20.3875 6.675C20.9458 6.475 21.4833 6.25 22 6V15.65L14.5 20.375C14.1833 20.575 13.8458 20.7292 13.4875 20.8375C13.1292 20.9458 12.75 21 12.35 21C11.85 21 11.3667 20.9042 10.9 20.7125C10.4333 20.5208 10.0083 20.25 9.625 19.9L2 12.775ZM12.75 17.5C13.0333 17.5 13.2708 17.4042 13.4625 17.2125C13.6542 17.0208 13.75 16.7833 13.75 16.5C13.75 16.4667 13.7167 16.325 13.65 16.075L17.2 13.85C17.2833 13.9833 17.3958 14.0833 17.5375 14.15C17.6792 14.2167 17.8333 14.25 18 14.25C18.2833 14.25 18.5208 14.1542 18.7125 13.9625C18.9042 13.7708 19 13.5333 19 13.25C19 13.0167 18.925 12.8083 18.775 12.625C18.625 12.4417 18.4333 12.325 18.2 12.275C18.2167 12.2417 18.2292 12.2 18.2375 12.15C18.2458 12.1 18.25 12.05 18.25 12C18.25 11.7167 18.1542 11.4792 17.9625 11.2875C17.7708 11.0958 17.5333 11 17.25 11C16.9667 11 16.7292 11.0958 16.5375 11.2875C16.3458 11.4792 16.25 11.7167 16.25 12C16.25 12.0667 16.3083 12.25 16.425 12.55L12.875 14.75C12.7917 14.6 12.6708 14.4792 12.5125 14.3875C12.3542 14.2958 12.1833 14.25 12 14.25C11.7167 14.25 11.4792 14.3458 11.2875 14.5375C11.0958 14.7292 11 14.9667 11 15.25C11 15.4833 11.075 15.6917 11.225 15.875C11.375 16.0583 11.5667 16.175 11.8 16.225C11.7833 16.2583 11.7708 16.3 11.7625 16.35C11.7542 16.4 11.75 16.45 11.75 16.5C11.75 16.7833 11.8458 17.0208 12.0375 17.2125C12.2292 17.4042 12.4667 17.5 12.75 17.5Z" fill="#939BA7"/>
</g>
</svg>
