<svg width="24" height="24" viewBox="0 0 24 24" fill="none" xmlns="http://www.w3.org/2000/svg">
<mask id="mask0_2_11384" style="mask-type:alpha" maskUnits="userSpaceOnUse" x="0" y="0" width="24" height="24">
<rect width="24" height="24" fill="#D9D9D9"/>
</mask>
<g mask="url(#mask0_2_11384)">
<path d="M9 23V20.975C8.58333 20.8917 8.225 20.7042 7.925 20.4125C7.625 20.1208 7.43333 19.7583 7.35 19.325L7.025 17.325C6.925 16.7083 7.075 16.1667 7.475 15.7C7.875 15.2333 8.38333 15 9 15V13.825C8.83333 13.8917 8.67083 13.9375 8.5125 13.9625C8.35417 13.9875 8.18333 14 8 14C6.33333 14 4.91667 13.4167 3.75 12.25C2.58333 11.0833 2 9.66667 2 8V7C2 5.33333 2.58333 3.91667 3.75 2.75C4.91667 1.58333 6.33333 1 8 1C8.83333 1 9.54167 1.29167 10.125 1.875C10.7083 2.45833 11 3.16667 11 4C11 4.83333 10.7083 5.54167 10.125 6.125C9.54167 6.70833 8.83333 7 8 7H6V5H8C8.28333 5 8.52083 4.90417 8.7125 4.7125C8.90417 4.52083 9 4.28333 9 4C9 3.71667 8.90417 3.47917 8.7125 3.2875C8.52083 3.09583 8.28333 3 8 3C6.9 3 5.95833 3.39167 5.175 4.175C4.39167 4.95833 4 5.9 4 7V8C4 9.1 4.39167 10.0417 5.175 10.825C5.95833 11.6083 6.9 12 8 12C8.28333 12 8.52083 11.9042 8.7125 11.7125C8.90417 11.5208 9 11.2833 9 11C9 10.7167 8.90417 10.4792 8.7125 10.2875C8.52083 10.0958 8.28333 10 8 10H6V8H8C8.83333 8 9.54167 8.29167 10.125 8.875C10.7083 9.45833 11 10.1667 11 11V15H13V11C13 10.1667 13.2917 9.45833 13.875 8.875C14.4583 8.29167 15.1667 8 16 8H18V10H16C15.7167 10 15.4792 10.0958 15.2875 10.2875C15.0958 10.4792 15 10.7167 15 11C15 11.2833 15.0958 11.5208 15.2875 11.7125C15.4792 11.9042 15.7167 12 16 12C17.1 12 18.0417 11.6083 18.825 10.825C19.6083 10.0417 20 9.1 20 8V7C20 5.9 19.6083 4.95833 18.825 4.175C18.0417 3.39167 17.1 3 16 3C15.7167 3 15.4792 3.09583 15.2875 3.2875C15.0958 3.47917 15 3.71667 15 4C15 4.28333 15.0958 4.52083 15.2875 4.7125C15.4792 4.90417 15.7167 5 16 5H18V7H16C15.1667 7 14.4583 6.70833 13.875 6.125C13.2917 5.54167 13 4.83333 13 4C13 3.16667 13.2917 2.45833 13.875 1.875C14.4583 1.29167 15.1667 1 16 1C17.6667 1 19.0833 1.58333 20.25 2.75C21.4167 3.91667 22 5.33333 22 7V8C22 9.66667 21.4167 11.0833 20.25 12.25C19.0833 13.4167 17.6667 14 16 14C15.8167 14 15.6458 13.9875 15.4875 13.9625C15.3292 13.9375 15.1667 13.8917 15 13.825V15C15.6167 15 16.125 15.2333 16.525 15.7C16.925 16.1667 17.075 16.7083 16.975 17.325L16.65 19.325C16.5667 19.7583 16.375 20.1208 16.075 20.4125C15.775 20.7042 15.4167 20.8917 15 20.975V23H13V21H11V23H9Z" fill="#939BA7"/>
</g>
</svg>
