<svg xmlns="http://www.w3.org/2000/svg" width="151" height="76" viewBox="0 0 151 76" fill="none">
<path d="M32 0H122.121C128.183 0 133.725 3.42579 136.434 8.84846L151 38L136.434 67.1516C133.725 72.5742 128.183 76 122.121 76H32C14.3269 76 0 61.6731 0 44V32C0 14.3269 14.3269 0 32 0Z" fill="url(#paint0_linear_751_25605)" fill-opacity="0.6"/>
<path d="M32 0H122.121C128.183 0 133.725 3.42579 136.434 8.84846L151 38L136.434 67.1516C133.725 72.5742 128.183 76 122.121 76H32C14.3269 76 0 61.6731 0 44V32C0 14.3269 14.3269 0 32 0Z" fill="url(#paint1_linear_751_25605)"/>
<defs>
<linearGradient id="paint0_linear_751_25605" x1="151" y1="38" x2="30.6719" y2="38" gradientUnits="userSpaceOnUse">
<stop stop-color="white"/>
<stop offset="1" stop-color="white" stop-opacity="0"/>
</linearGradient>
<linearGradient id="paint1_linear_751_25605" x1="151" y1="38" x2="30.6719" y2="38" gradientUnits="userSpaceOnUse">
<stop stop-color="#D3DDF5"/>
<stop offset="1" stop-color="white" stop-opacity="0"/>
</linearGradient>
</defs>
</svg>