<svg width="24" height="24" viewBox="0 0 24 24" fill="none" xmlns="http://www.w3.org/2000/svg">
<rect width="24" height="24" rx="12" fill="url(#paint0_angular_93_11121)"/>
<rect width="24" height="24" rx="12" fill="url(#paint1_angular_93_11121)"/>
<rect width="20" height="20" transform="translate(2 2)" fill="url(#paint2_radial_93_11121)"/>
<path d="M11.189 9.02577C10.9456 9.09118 10.714 9.18534 10.4984 9.3044C10.4427 9.25846 10.3982 9.19769 10.3716 9.12517L9.11897 5.70372C9.03916 5.48565 9.15227 5.24457 9.37161 5.16522C9.41932 5.14793 9.46812 5.13983 9.51602 5.13983C9.68866 5.13983 9.85076 5.24575 9.91317 5.41629L11.1658 8.83774C11.1886 8.89999 11.1957 8.96411 11.189 9.02577Z" fill="white"/>
<path d="M8.99002 2.89445C8.9102 2.67642 8.66769 2.564 8.44838 2.64336C8.22906 2.72272 8.11598 2.9638 8.19581 3.18183L8.69998 4.55894C8.7798 4.77698 9.02231 4.8894 9.24162 4.81004C9.46094 4.73068 9.57402 4.4896 9.4942 4.27156L8.99002 2.89445Z" fill="white"/>
<path d="M9.00357 11.2112C8.94115 11.446 8.90597 11.6917 8.9016 11.9449C8.83352 11.97 8.75808 11.978 8.68145 11.9646L5.0746 11.3323C4.84481 11.292 4.69136 11.0742 4.73181 10.8456C4.76799 10.6419 4.94629 10.4984 5.14755 10.4984C5.1719 10.4984 5.19655 10.5005 5.22139 10.5048L8.82825 11.1371C8.89384 11.1486 8.95318 11.1745 9.00357 11.2112Z" fill="white"/>
<path d="M2.56294 10.0387C2.33309 9.99846 2.11391 10.151 2.07338 10.3795C2.03285 10.608 2.18633 10.8259 2.41617 10.8662L3.86789 11.1207C4.09773 11.161 4.31692 11.0084 4.35745 10.7799C4.39797 10.5514 4.2445 10.3335 4.01465 10.2932L2.56294 10.0387Z" fill="white"/>
<path d="M10.4027 14.6407C10.3904 14.7116 10.3597 14.7803 10.3098 14.8395L7.95565 17.6286C7.80567 17.8064 7.53912 17.8296 7.36032 17.6804C7.26073 17.5973 7.20935 17.4783 7.20935 17.3584C7.20935 17.2631 7.24175 17.1673 7.30824 17.0886L9.66242 14.2994C9.70546 14.2484 9.75803 14.2102 9.81538 14.1851C9.99149 14.3593 10.1887 14.5124 10.4027 14.6407Z" fill="white"/>
<path d="M5.57316 19.1443C5.42314 19.322 5.44646 19.587 5.62525 19.7362C5.80404 19.8853 6.07059 19.8621 6.22061 19.6844L7.16815 18.5618C7.31817 18.384 7.29485 18.119 7.11606 17.9699C6.93728 17.8207 6.67072 17.8439 6.5207 18.0217L5.57316 19.1443Z" fill="white"/>
<path d="M14.6284 18.8349C14.5807 18.8521 14.5319 18.8602 14.484 18.8602C14.3113 18.8602 14.1492 18.7543 14.0868 18.5838L12.8341 15.1623C12.8114 15.1001 12.8043 15.036 12.811 14.9743C13.0544 14.9089 13.286 14.8147 13.5016 14.6957C13.5573 14.7416 13.6018 14.8024 13.6284 14.8749L14.881 18.2964C14.9608 18.5144 14.8477 18.7555 14.6284 18.8349Z" fill="white"/>
<path d="M15.0101 21.1056C15.0899 21.3236 15.3324 21.4361 15.5517 21.3567C15.7711 21.2773 15.8841 21.0363 15.8043 20.8182L15.3001 19.4411C15.2203 19.2231 14.9778 19.1107 14.7585 19.19C14.5392 19.2694 14.4261 19.5105 14.5059 19.7285L15.0101 21.1056Z" fill="white"/>
<path d="M19.2681 13.1545C19.232 13.3582 19.0536 13.5017 18.8525 13.5017C18.8281 13.5017 18.8035 13.4996 18.7786 13.4953L15.1718 12.863C15.1062 12.8515 15.0468 12.8256 14.9965 12.7889C15.0589 12.5541 15.0941 12.3084 15.0984 12.0552C15.1665 12.0301 15.2419 12.0221 15.3186 12.0355L18.9253 12.6678C19.1552 12.7081 19.3087 12.9259 19.2681 13.1545Z" fill="white"/>
<path d="M21.4371 13.9613C21.6669 14.0015 21.8861 13.849 21.9266 13.6205C21.9671 13.392 21.8137 13.1741 21.5838 13.1338L20.1321 12.8793C19.9023 12.839 19.6831 12.9916 19.6426 13.2201C19.602 13.4486 19.7555 13.6665 19.9853 13.7068L21.4371 13.9613Z" fill="white"/>
<path d="M16.7906 6.64171C16.7906 6.73706 16.7582 6.8328 16.6917 6.91155L14.3375 9.70074C14.2945 9.75173 14.2419 9.78996 14.1846 9.81506C14.0085 9.64087 13.8113 9.48772 13.5973 9.35947C13.6095 9.28852 13.6402 9.21985 13.6901 9.16067L16.0443 6.37148C16.1943 6.19372 16.4608 6.17051 16.6396 6.3197C16.7392 6.4028 16.7906 6.52186 16.7906 6.64171Z" fill="white"/>
<path d="M18.427 4.85565C18.577 4.6779 18.5537 4.41291 18.3749 4.26376C18.1961 4.11462 17.9295 4.1378 17.7795 4.31555L16.832 5.43818C16.6819 5.61592 16.7053 5.88091 16.8841 6.03006C17.0628 6.1792 17.3294 6.15602 17.4794 5.97828L18.427 4.85565Z" fill="white"/>
<path d="M10.2148 9.48152C10.0111 9.62439 9.82542 9.79128 9.66213 9.97782C9.59385 9.95352 9.53083 9.91152 9.48084 9.85224L8.79935 9.0449C8.64927 8.86714 8.67263 8.60215 8.85142 8.45295C8.93064 8.38695 9.02694 8.35474 9.12285 8.35474C9.24341 8.35474 9.36317 8.40572 9.44675 8.50472L10.1283 9.31217C10.1712 9.36305 10.1999 9.42115 10.2148 9.48152Z" fill="white" fill-opacity="0.6"/>
<path d="M6.03896 4.4671C5.88894 4.28935 5.62239 4.26617 5.4436 4.41531C5.26481 4.56446 5.24149 4.82945 5.39151 5.0072L8.02995 8.13318C8.17997 8.31093 8.44653 8.33411 8.62532 8.18496C8.80411 8.03582 8.82743 7.77083 8.6774 7.59308L6.03896 4.4671Z" fill="white" fill-opacity="0.6"/>
<path d="M9.0687 13.0024C9.01354 13.0488 8.94566 13.0817 8.86933 13.0951L7.82527 13.2781C7.59538 13.3184 7.37623 13.1659 7.33568 12.9373C7.33131 12.9126 7.32922 12.888 7.32922 12.8638C7.32922 12.6638 7.47343 12.4866 7.67847 12.4506L8.72253 12.2676C8.78833 12.2561 8.85333 12.2603 8.91345 12.2778C8.93592 12.5293 8.98889 12.772 9.0687 13.0024Z" fill="white" fill-opacity="0.6"/>
<path d="M6.49964 12.6572L2.45731 13.3658C2.22747 13.4061 2.07399 13.624 2.11452 13.8525C2.15505 14.081 2.37423 14.2335 2.60408 14.1932L6.6464 13.4846C6.87625 13.4444 7.02972 13.2265 6.98919 12.9979C6.94867 12.7694 6.72948 12.6169 6.49964 12.6572Z" fill="white" fill-opacity="0.6"/>
<path d="M11.3886 15.2428L11.026 16.2333C10.9462 16.4513 10.7037 16.5638 10.4844 16.4844C10.3127 16.4223 10.2062 16.2611 10.2062 16.0896C10.2062 16.0419 10.2144 15.9934 10.2318 15.9459L10.5944 14.9555C10.6171 14.8933 10.6531 14.8396 10.6981 14.7966C10.9215 14.8996 11.1592 14.9769 11.4075 15.0246C11.4203 15.0953 11.4151 15.1704 11.3886 15.2428Z" fill="white" fill-opacity="0.6"/>
<path d="M9.82235 17.0641L8.41846 20.8987C8.33864 21.1167 8.45172 21.3578 8.67103 21.4371C8.89035 21.5165 9.13285 21.4041 9.21268 21.1861L10.6166 17.3515C10.6964 17.1334 10.5833 16.8923 10.364 16.813C10.1447 16.7336 9.90217 16.846 9.82235 17.0641Z" fill="white" fill-opacity="0.6"/>
<path d="M15.1485 15.5472C15.0693 15.6132 14.973 15.6454 14.8771 15.6454C14.7566 15.6454 14.6368 15.5944 14.5532 15.4954L13.8717 14.688C13.8288 14.6371 13.8001 14.579 13.7852 14.5186C13.9889 14.3758 14.1746 14.2089 14.3378 14.0223C14.4061 14.0466 14.4691 14.0886 14.5191 14.1479L15.2006 14.9553C15.3507 15.133 15.3273 15.398 15.1485 15.5472Z" fill="white" fill-opacity="0.6"/>
<path d="M15.9701 15.8668C15.8201 15.6891 15.5535 15.6659 15.3748 15.815C15.196 15.9642 15.1726 16.2292 15.3227 16.4069L17.9611 19.5329C18.1111 19.7106 18.3777 19.7338 18.5565 19.5847C18.7353 19.4355 18.7586 19.1705 18.6086 18.9928L15.9701 15.8668Z" fill="white" fill-opacity="0.6"/>
<path d="M16.6707 11.1363C16.6707 11.3364 16.5265 11.5136 16.3215 11.5495L15.2774 11.7325C15.2116 11.7441 15.1466 11.7398 15.0865 11.7223C15.0641 11.4709 15.0111 11.2281 14.9313 10.9978C14.9864 10.9514 15.0543 10.9185 15.1306 10.905L16.1747 10.722C16.4046 10.6817 16.6237 10.8343 16.6643 11.0628C16.6687 11.0875 16.6707 11.1121 16.6707 11.1363Z" fill="white" fill-opacity="0.6"/>
<path d="M21.396 9.80676L17.3537 10.5154C17.1238 10.5557 16.9704 10.7736 17.0109 11.0021C17.0514 11.2306 17.2706 11.3831 17.5004 11.3428L21.5428 10.6342C21.7726 10.5939 21.9261 10.3761 21.8856 10.1475C21.845 9.91905 21.6258 9.76647 21.396 9.80676Z" fill="white" fill-opacity="0.6"/>
<path d="M13.7939 7.91044C13.7939 7.95816 13.7856 8.00668 13.7682 8.0541L13.4057 9.04454C13.3829 9.10678 13.3469 9.16044 13.3019 9.20342C13.0786 9.10046 12.8408 9.02319 12.5926 8.97547C12.5796 8.90473 12.5849 8.82963 12.6114 8.75721L12.974 7.76678C13.0538 7.54871 13.2963 7.43627 13.5157 7.51561C13.6873 7.57776 13.7939 7.73882 13.7939 7.91044Z" fill="white" fill-opacity="0.6"/>
<path d="M14.7873 2.81384L13.3834 6.64843C13.3036 6.86646 13.4167 7.10755 13.636 7.1869C13.8553 7.26626 14.0978 7.15384 14.1776 6.93581L15.5815 3.10122C15.6614 2.88318 15.5483 2.6421 15.329 2.56274C15.1096 2.48338 14.8671 2.5958 14.7873 2.81384Z" fill="white" fill-opacity="0.6"/>
<path d="M12.3041 5.93843V8.74492C12.3041 8.81141 12.2885 8.87425 12.2609 8.93008C12.1749 8.92287 12.0879 8.91921 12 8.91921C11.8354 8.91921 11.6739 8.93196 11.5163 8.95656C11.4798 8.89441 11.4589 8.82208 11.4589 8.74492V5.93843C11.4589 5.70644 11.6481 5.51831 11.8815 5.51831C11.9982 5.51831 12.1038 5.56534 12.1803 5.64142C12.2567 5.7174 12.3041 5.82244 12.3041 5.93843Z" fill="white" fill-opacity="0.8"/>
<path d="M12.3043 2.42012C12.3043 2.1881 12.1151 2 11.8817 2C11.6483 2 11.4591 2.1881 11.4591 2.42012V4.72685C11.4591 4.95887 11.6483 5.14697 11.8817 5.14697C12.1151 5.14697 12.3043 4.95887 12.3043 4.72685V2.42012Z" fill="white" fill-opacity="0.8"/>
<path d="M9.45595 10.2403C9.31442 10.4422 9.19655 10.6616 9.1064 10.8947C9.03415 10.895 8.9608 10.8769 8.89372 10.8384L6.44899 9.43517C6.24694 9.31917 6.17766 9.06218 6.29434 8.8613C6.41103 8.66033 6.66953 8.59146 6.87159 8.70746L9.31631 10.1107C9.37415 10.1439 9.42106 10.1887 9.45595 10.2403Z" fill="white" fill-opacity="0.8"/>
<path d="M3.80676 6.94827C3.60464 6.83226 3.34618 6.9011 3.22949 7.10204C3.11279 7.30299 3.18204 7.55993 3.38417 7.67594L5.3936 8.8293C5.59572 8.94532 5.85417 8.87647 5.97087 8.67553C6.08757 8.47459 6.01831 8.21764 5.81619 8.10163L3.80676 6.94827Z" fill="white" fill-opacity="0.8"/>
<path d="M9.59075 13.9378C9.55488 14.0005 9.5023 14.0548 9.43492 14.0935L6.99019 15.4967C6.78804 15.6128 6.52963 15.5439 6.41295 15.3429C6.37449 15.2767 6.3562 15.2045 6.3562 15.1332C6.3562 14.988 6.43203 14.8468 6.5676 14.7691L9.01232 13.3658C9.07007 13.3326 9.13238 13.3146 9.1946 13.3105C9.30124 13.5359 9.43462 13.7463 9.59075 13.9378Z" fill="white" fill-opacity="0.8"/>
<path d="M5.51225 15.3748L3.50282 16.5282C3.30069 16.6442 3.23144 16.9011 3.34814 17.1021C3.46483 17.303 3.72329 17.3718 3.92541 17.2558L5.93484 16.1025C6.13697 15.9865 6.20622 15.7295 6.08952 15.5286C5.97283 15.3276 5.71437 15.2588 5.51225 15.3748Z" fill="white" fill-opacity="0.8"/>
<path d="M12.5411 15.2552V18.0617C12.5411 18.2937 12.3519 18.4818 12.1185 18.4818C12.0017 18.4818 11.8962 18.4348 11.8197 18.3587C11.7432 18.2827 11.6959 18.1777 11.6959 18.0617V15.2552C11.6959 15.1887 11.7114 15.1259 11.7391 15.0701C11.825 15.0773 11.9121 15.0809 11.9999 15.0809C12.1645 15.0809 12.326 15.0682 12.4837 15.0436C12.5201 15.1057 12.5411 15.1781 12.5411 15.2552Z" fill="white" fill-opacity="0.8"/>
<path d="M12.5411 19.2731C12.5411 19.0411 12.3519 18.853 12.1185 18.853C11.8851 18.853 11.6959 19.0411 11.6959 19.2731V21.5799C11.6959 21.8119 11.8851 22 12.1185 22C12.3519 22 12.5411 21.8119 12.5411 21.5799V19.2731Z" fill="white" fill-opacity="0.8"/>
<path d="M17.7055 15.1388C17.6272 15.2736 17.4852 15.349 17.3391 15.349C17.2674 15.349 17.1948 15.3308 17.1283 15.2927L14.6835 13.8894C14.6256 13.8562 14.5786 13.8115 14.5439 13.7598C14.6855 13.5579 14.8033 13.3385 14.8935 13.1054C14.9657 13.1051 15.039 13.1232 15.1061 13.1617L17.5509 14.565C17.753 14.681 17.8222 14.938 17.7055 15.1388Z" fill="white" fill-opacity="0.8"/>
<path d="M18.6063 15.1707C18.4042 15.0547 18.1457 15.1236 18.029 15.3245C17.9123 15.5255 17.9816 15.7824 18.1837 15.8984L20.1932 17.0518C20.3953 17.1678 20.6537 17.0989 20.7704 16.898C20.8871 16.6971 20.8179 16.4401 20.6158 16.3241L18.6063 15.1707Z" fill="white" fill-opacity="0.8"/>
<path d="M17.6437 8.86694C17.6437 9.01208 17.5679 9.15328 17.4323 9.23104L14.9876 10.6343C14.9299 10.6675 14.8676 10.6855 14.8053 10.6896C14.6987 10.4642 14.5653 10.2538 14.4092 10.0623C14.4451 9.99955 14.4976 9.9453 14.565 9.90657L17.0097 8.50343C17.2119 8.38733 17.4703 8.4562 17.587 8.65717C17.6254 8.72337 17.6437 8.7956 17.6437 8.86694Z" fill="white" fill-opacity="0.8"/>
<path d="M20.0746 6.74412L18.0652 7.89748C17.8631 8.0135 17.7938 8.27044 17.9105 8.47138C18.0272 8.67232 18.2857 8.74117 18.4878 8.62516L20.4972 7.4718C20.6993 7.35578 20.7686 7.09884 20.6519 6.8979C20.5352 6.69696 20.2767 6.62811 20.0746 6.74412Z" fill="white" fill-opacity="0.8"/>
<defs>
<radialGradient id="paint0_angular_93_11121" cx="0" cy="0" r="1" gradientUnits="userSpaceOnUse" gradientTransform="translate(12 12) rotate(90) scale(12)">
<stop offset="0.0603337" stop-color="#12B6FF"/>
<stop offset="0.106986" stop-color="#FF7BD2"/>
<stop offset="0.160574" stop-color="#0974FB"/>
<stop offset="0.223802" stop-color="#12B6FF"/>
<stop offset="0.27504" stop-color="#FF7BD2"/>
<stop offset="0.329636" stop-color="#0974FB"/>
<stop offset="0.389698" stop-color="#12B6FF"/>
<stop offset="0.444868" stop-color="#FF7BD2"/>
<stop offset="0.496184" stop-color="#0974FB"/>
<stop offset="0.561157" stop-color="#12B6FF"/>
<stop offset="0.613569" stop-color="#FF7BD2"/>
<stop offset="0.665777" stop-color="#12B6FF"/>
<stop offset="0.725263" stop-color="#12B6FF"/>
<stop offset="0.77879" stop-color="#FF7BD2"/>
<stop offset="0.827962" stop-color="#0974FB"/>
<stop offset="0.889772" stop-color="#12B6FF"/>
<stop offset="0.941913" stop-color="#FF7BD2"/>
<stop offset="1" stop-color="#0974FB"/>
</radialGradient>
<radialGradient id="paint1_angular_93_11121" cx="0" cy="0" r="1" gradientUnits="userSpaceOnUse" gradientTransform="translate(12 12) rotate(180) scale(12 12)">
<stop offset="0.0720543" stop-color="#FF7BD2"/>
<stop offset="0.507787" stop-color="#0974FB"/>
<stop offset="0.710076" stop-color="#5CCDFF"/>
</radialGradient>
<radialGradient id="paint2_radial_93_11121" cx="0" cy="0" r="1" gradientUnits="userSpaceOnUse" gradientTransform="translate(10 10) rotate(90) scale(10)">
<stop offset="0.310342" stop-color="white"/>
<stop offset="0.452056" stop-color="white" stop-opacity="0"/>
</radialGradient>
</defs>
</svg>
