<svg xmlns="http://www.w3.org/2000/svg" width="60" height="73" viewBox="0 0 60 73" fill="none">
  <g clip-path="url(#clip0_654_5011)">
    <path d="M57.496 24.9075C57.0777 25.232 49.6937 29.3927 49.6937 38.6443C49.6937 49.3453 59.0896 53.1311 59.3708 53.2248C59.3275 53.4556 57.8782 58.4095 54.4169 63.4571C51.3306 67.8991 48.1073 72.3338 43.2039 72.3338C38.3005 72.3338 37.0386 69.4855 31.378 69.4855C25.8616 69.4855 23.9002 72.4275 19.415 72.4275C14.9298 72.4275 11.8003 68.3173 8.20205 63.2696C4.03413 57.3423 0.666626 48.1339 0.666626 39.3943C0.666626 25.3762 9.78124 17.9417 18.7516 17.9417C23.5181 17.9417 27.4913 21.0713 30.4838 21.0713C33.3321 21.0713 37.7741 17.7543 43.1967 17.7543C45.2518 17.7543 52.6358 17.9417 57.496 24.9075ZM40.6224 11.8197C42.865 9.15883 44.4514 5.46683 44.4514 1.77484C44.4514 1.26286 44.4081 0.743673 44.3144 0.325439C40.6657 0.462447 36.3247 2.75552 33.7071 5.79132C31.652 8.12767 29.7339 11.8197 29.7339 15.5621C29.7339 16.1246 29.8276 16.687 29.8709 16.8673C30.1016 16.9106 30.4766 16.9611 30.8516 16.9611C34.1253 16.9611 38.2428 14.7689 40.6224 11.8197Z" fill="black"/>
  </g>
  <defs>
    <clipPath id="clip0_654_5011">
      <rect width="58.697" height="72.1093" fill="white" transform="translate(0.666626 0.325439)"/>
    </clipPath>
  </defs>
</svg>