<svg xmlns="http://www.w3.org/2000/svg" width="83" height="30" viewBox="0 0 83 30" fill="none">
  <g clip-path="url(#clip0_654_5164)">
    <path d="M9.68602 16.5085C12.4187 10.6867 9.89394 3.73619 4.04243 1.0332L1.16123 7.21145C0.626573 8.34017 0.537464 9.64711 1.01271 10.8946C1.45826 12.1422 2.37906 13.0927 3.50778 13.6273L5.70581 14.6669C5.23056 14.459 4.6959 14.3699 4.16124 14.3699C1.8444 14.3699 0.00280762 16.2412 0.00280762 18.5283C0.00280762 20.8452 1.8741 22.6868 4.16124 22.6868C5.76521 22.6868 7.16126 21.7957 7.84443 20.459C7.63651 20.9343 7.5474 21.4689 7.5474 22.0333C7.5474 24.3204 9.4187 26.1917 11.7058 26.1917C14.0227 26.1917 15.8643 24.3204 15.8643 22.0333C15.8643 20.4293 14.9732 19.0333 13.6365 18.3501L15.8643 19.3897C16.993 19.9244 18.2999 20.0135 19.5475 19.5382C20.795 19.0927 21.7455 18.1719 22.2801 17.0432L25.1613 10.8649C19.3395 8.16195 12.389 10.6867 9.68602 16.5085ZM13.7851 22.063C13.7851 23.2214 12.8346 24.1719 11.6761 24.1719C10.5177 24.1719 9.56721 23.2214 9.56721 22.063C9.56721 20.9046 10.5177 19.9541 11.6761 19.9541C12.8643 19.9541 13.7851 20.9046 13.7851 22.063Z" fill="#FFD100"/>
    <path d="M28.9342 11.1026C28.9342 10.8353 29.1421 10.5977 29.4392 10.5977H31.9342C32.2015 10.5977 32.4392 10.8353 32.4392 11.1026V26.2809H39.3303C39.6273 26.2809 39.8352 26.5185 39.8352 26.7859V29.0136C39.8352 29.2809 39.6273 29.5185 39.3303 29.5185H29.4392C29.1421 29.5185 28.9342 29.2809 28.9342 29.0136V11.1026Z" fill="#222731"/>
    <path d="M41.7063 12.7363C41.7063 11.5482 42.6271 10.5977 43.8449 10.5977C45.0628 10.5977 46.0132 11.5482 46.0132 12.7363C46.0132 13.9244 45.0628 14.9046 43.8449 14.9046C42.5974 14.9046 41.7063 13.9244 41.7063 12.7363ZM42.1816 17.6373C42.1816 17.2809 42.4786 17.0432 42.7756 17.0432H44.9736C45.2707 17.0432 45.5677 17.2809 45.5677 17.6373V28.9542C45.5677 29.2809 45.2707 29.5482 44.9736 29.5482H42.7756C42.4786 29.5482 42.1816 29.2809 42.1816 28.9542V17.6373Z" fill="#222731"/>
    <path d="M48.1219 11.1917C48.1219 10.8947 48.419 10.5977 48.716 10.5977H50.914C51.2408 10.5977 51.5081 10.8947 51.5081 11.1917V17.3106C52.0725 17.0729 53.32 16.7759 54.5675 16.7759C58.2804 16.7759 60.627 19.6571 60.627 23.3106C60.627 26.875 58.1616 29.8453 54.7754 29.8453C52.0428 29.8453 50.617 27.974 50.617 27.974L50.32 28.9542C50.1715 29.3106 49.9932 29.5482 49.6962 29.5482H48.7457C48.4487 29.5482 48.1517 29.2809 48.1517 28.9542L48.1219 11.1917ZM54.2705 26.7264C56.2309 26.7264 57.2111 25.0334 57.2111 23.2512C57.2111 21.469 56.1715 19.8056 54.0923 19.8056C52.518 19.8056 51.5081 20.5185 51.5081 20.5185V24.974C51.7754 25.7165 52.6368 26.7264 54.2705 26.7264Z" fill="#222731"/>
    <path d="M62.3503 17.6373C62.3503 17.2808 62.6473 17.0432 62.9443 17.0432H63.9542C64.2513 17.0432 64.3998 17.1917 64.4889 17.4591L64.9344 18.6769C65.38 18.0531 66.5384 16.7759 68.4394 16.7759C69.9246 16.7759 71.1424 17.1917 70.7859 17.9937L69.984 19.8353C69.8354 20.1323 69.5384 20.2511 69.2414 20.1026C68.9444 19.9541 68.6473 19.865 68.083 19.865C66.7463 19.865 65.9146 20.7264 65.7067 21.1719V28.9542C65.7067 29.3997 65.4097 29.5482 64.9938 29.5482H62.9146C62.6176 29.5482 62.3206 29.2809 62.3206 28.9542V17.6373H62.3503Z" fill="#222731"/>
    <path d="M76.9051 16.7461C80.1427 16.7461 82.6378 19.152 82.6378 22.5382C82.6378 22.7164 82.6081 23.162 82.5784 23.3402C82.5487 23.6669 82.2517 23.9045 81.9843 23.9045H73.9942C74.0239 25.4491 75.3011 26.7857 77.113 26.7857C78.3605 26.7857 79.2219 26.3402 79.7863 25.8649C80.0833 25.6273 80.4101 25.5976 80.5883 25.8649L81.6279 27.261C81.8358 27.4986 81.8655 27.7957 81.5685 28.063C80.4992 28.9838 78.9546 29.7561 76.9348 29.7561C73.1922 29.7561 70.608 26.7857 70.608 23.2214C70.608 19.7461 73.1922 16.7461 76.9051 16.7461ZM79.2219 21.7065C79.1625 20.4887 78.1823 19.5382 76.816 19.5382C75.3011 19.5382 74.3209 20.459 74.1724 21.7065H79.2219Z" fill="#222731"/>
    <path d="M29.913 4.33017H32.2002V3.49848H29.913V1.92422H31.9031C31.9031 1.92422 32.1705 1.95392 32.3784 1.71629C32.5863 1.50837 32.5863 1.27075 32.5863 1.27075C32.5863 1.09253 32.5863 1.09253 32.5863 1.09253H28.9625V6.85493C29.2001 6.85493 29.913 6.85493 29.913 6.85493V4.33017Z" fill="#222731"/>
    <path d="M38.9429 5.36973H38.1112C38.0518 5.84498 37.6657 6.0826 37.2201 6.0826C36.6261 6.0826 36.2102 5.63706 36.1805 4.92418H39.0023V4.59745C39.0023 3.37962 38.3191 2.57764 37.2201 2.57764C36.0914 2.57764 35.2894 3.46873 35.2894 4.74596C35.2894 6.0232 36.0914 6.88459 37.2201 6.88459C38.2003 6.85489 38.8538 6.23112 38.9429 5.36973ZM37.1904 3.34992C37.7548 3.34992 38.0518 3.76576 38.0518 4.27071H36.1805C36.2696 3.64695 36.6558 3.34992 37.1904 3.34992Z" fill="#222731"/>
    <path d="M43.0711 5.36973H42.2394C42.18 5.84498 41.7939 6.0826 41.3483 6.0826C40.7542 6.0826 40.3384 5.63706 40.3087 4.92418H43.1305V4.59745C43.1305 3.37962 42.4473 2.57764 41.3483 2.57764C40.2196 2.57764 39.4176 3.46873 39.4176 4.74596C39.4176 6.0232 40.2196 6.88459 41.3483 6.88459C42.3582 6.85489 42.982 6.23112 43.0711 5.36973ZM41.3186 3.34992C41.883 3.34992 42.18 3.76576 42.18 4.27071H40.3087C40.4275 3.64695 40.8137 3.34992 41.3186 3.34992Z" fill="#222731"/>
    <path d="M56.2001 1.68667C56.2001 1.38964 55.9922 1.0332 55.5169 1.0332H55.2793V6.79561H56.2001V1.68667Z" fill="#222731"/>
    <path d="M50.5851 6.70643V5.87474C50.4663 5.96385 50.2287 6.05296 50.0505 6.05296C49.7535 6.05296 49.5752 5.90444 49.5752 5.57771V3.43909H50.496V2.6668H49.5752V2.19155C49.5752 1.86482 49.3673 1.53809 48.9218 1.53809H48.6544V2.6371H48.001V3.40938H48.6544V5.63712C48.6544 6.4391 49.1891 6.85494 49.902 6.85494C50.1693 6.85494 50.4366 6.79554 50.5851 6.70643Z" fill="#222731"/>
    <path d="M45.6848 6.05303C45.2095 6.05303 44.7937 5.87481 44.556 5.51837C44.4966 5.42926 44.4075 5.36986 44.2887 5.36986H43.457C43.7244 6.32036 44.5857 6.85501 45.6848 6.85501C46.8729 6.85501 47.7343 6.20154 47.7343 5.13223C47.7343 4.27084 47.1402 3.73618 46.2491 3.52826L45.2689 3.29064C44.764 3.17183 44.5263 2.9342 44.5263 2.54806C44.5263 2.07281 44.9422 1.74608 45.5957 1.74608C46.2491 1.74608 46.5759 2.10251 46.7541 2.45895L46.7838 2.48865C46.8432 2.57776 46.9323 2.63717 47.0511 2.63717H47.764C47.5858 1.68667 46.9323 0.944092 45.5659 0.944092C44.3481 0.944092 43.6352 1.65697 43.6352 2.63717C43.6352 3.61737 44.259 3.97381 45.061 4.18173L46.0412 4.41936C46.6353 4.56787 46.8729 4.77579 46.8729 5.19164C46.7838 5.72629 46.3679 6.05303 45.6848 6.05303Z" fill="#222731"/>
    <path d="M58.6069 6.85489C59.6465 6.85489 60.2702 6.23112 60.3593 5.36973H59.5276C59.4682 5.84498 59.0821 6.0826 58.6366 6.0826C58.0425 6.0826 57.6266 5.63706 57.5969 4.92418H60.4187V4.59745C60.4187 3.37962 59.7356 2.57764 58.6366 2.57764C57.5078 2.57764 56.7059 3.46873 56.7059 4.74596C56.6464 5.99349 57.4484 6.85489 58.6069 6.85489ZM58.5771 3.34992C59.1415 3.34992 59.4385 3.76576 59.4385 4.27071H57.5969C57.6861 3.64695 58.0722 3.34992 58.5771 3.34992Z" fill="#222731"/>
    <path d="M33.7746 4.1222C33.8637 3.67665 34.2202 3.46873 34.6063 3.46873C34.8142 3.46873 35.0222 3.52814 35.1707 3.61725V2.66675C35.1113 2.63704 34.9331 2.57764 34.7251 2.57764C34.339 2.57764 33.9529 2.78556 33.8043 3.11229V2.69645H32.8835V6.82518H33.8043L33.7746 4.1222Z" fill="#222731"/>
    <path d="M51.8637 8.36991H52.7548L54.9528 2.63721H53.9726L53.7944 3.20157L52.933 5.69663L52.0419 3.23127L51.834 2.63721H50.8538L52.4577 6.88475L51.8637 8.36991Z" fill="#222731"/>
  </g>
  <defs>
    <clipPath id="clip0_654_5164">
      <rect width="82.6638" height="28.9902" fill="white" transform="translate(0 0.884766)"/>
    </clipPath>
  </defs>
</svg>