<svg xmlns="http://www.w3.org/2000/svg" width="65" height="66" viewBox="0 0 65 66" fill="none">
  <path d="M19.9742 55.1238V61.2027C19.9742 62.9294 19.1174 63.8507 17.5606 63.8507C15.9949 63.8507 15.133 62.9028 15.133 61.129V55.1305H12.9791V61.2027C12.9791 64.1904 14.6387 65.9026 17.5322 65.9026C20.4531 65.9026 22.1282 64.1576 22.1282 61.1151V55.1238H19.9742ZM27.899 55.1238L23.2208 65.737H25.4195L26.3225 63.6816L26.3871 63.5275H31.2471L32.2002 65.737H34.4587L29.824 55.1866L29.7823 55.1238L27.899 55.1238ZM40.706 55.1238L38.2954 62.4264L35.9488 55.1293H33.6565L37.3567 65.7437H39.1404L41.5559 58.7709L43.9695 65.7437H45.7683L49.4594 55.1293H47.2258L44.8743 62.4264L42.4631 55.1238H40.706ZM61.7845 55.1238V65.728H63.91V55.1238H61.7845ZM0.818359 55.1244V65.7431H2.9729V61.4304H7.83767V65.7431H9.99282V55.1244H7.83767V59.4081H2.9729V55.1244H0.818359ZM51.1966 55.1316V65.7358H59.2156V63.8023H53.3222V61.173H57.241V59.239H53.3222V57.0651H59.0102V55.1316H51.1966ZM28.8116 57.8111L30.3477 61.3663H30.3423L30.4468 61.6116H27.1881L27.2913 61.3663L28.8116 57.8111Z" fill="#232527"/>
  <path d="M27.6466 0.856826C26.792 0.932417 24.4827 1.45807 24.4827 1.45807C19.2774 2.80349 18.0461 7.52715 18.0461 7.52715C17.7919 8.32146 17.6765 9.1355 17.6425 9.90243V10.9463C17.7116 12.559 18.0703 13.7632 18.0703 13.7632C19.809 21.4731 28.3581 34.1414 30.1954 36.8027C30.3258 36.9319 30.4301 36.8853 30.4301 36.8853C30.6285 36.8305 30.6129 36.6403 30.6129 36.6403L30.6167 36.6412C33.4467 8.35467 27.6466 0.856826 27.6466 0.856826ZM36.9975 0.856826C36.9975 0.856826 31.1721 8.35863 34.0042 36.6616H34.008C34.0299 36.8413 34.1574 36.8787 34.1574 36.8787C34.3469 36.9522 34.4441 36.7701 34.4441 36.7701L34.4451 36.7719C36.3295 34.0427 44.8299 21.4433 46.5609 13.7631C46.5609 13.7631 47.4995 10.0458 46.5934 7.527C46.5934 7.527 45.3066 2.7302 40.0948 1.46258C40.0948 1.46258 38.5927 1.08143 36.9975 0.856826ZM10.1279 9.3485C10.1279 9.3485 5.16824 14.0559 4.92173 19.0464H4.9237V19.8026C4.92747 19.8595 4.93035 19.9171 4.93394 19.9751C5.14758 23.9993 8.17491 26.381 8.17491 26.381C13.0526 31.1349 24.8633 37.1369 27.6078 38.4987C27.6462 38.5131 27.788 38.5594 27.8713 38.4542C27.8713 38.4542 27.9146 38.4213 27.9344 38.3623V38.2369C27.9324 38.2298 27.9287 38.2226 27.9251 38.2147C20.4092 21.7958 10.1279 9.3485 10.1279 9.3485ZM54.5042 9.3485C54.5042 9.3485 44.2531 21.7568 36.7405 38.1425L36.7433 38.1415C36.7433 38.1415 36.6546 38.3315 36.7981 38.4542C36.7981 38.4542 36.8409 38.4865 36.9002 38.4996H37.0041C37.0227 38.4942 37.0428 38.4871 37.0625 38.4736C39.8816 37.0745 51.6009 31.1137 56.4555 26.3818C56.4555 26.3818 59.5299 23.913 59.6909 19.949C60.0459 14.4435 54.5042 9.3485 54.5042 9.3485ZM63.7307 25.649C63.7307 25.649 47.0183 34.6177 38.3772 40.4463L38.3801 40.4491C38.3801 40.4491 38.2233 40.5518 38.2781 40.7358C38.2781 40.7358 38.3601 40.8843 38.4794 40.8843C41.5745 40.8897 53.2865 40.9037 53.5802 40.849C53.5802 40.849 55.0946 40.7885 56.9659 40.0696C56.9659 40.0696 61.1318 38.7451 63.2957 34.0154C63.2957 34.0154 64.2844 32.0376 64.2987 29.2592V29.1414C64.2915 28.0699 64.1404 26.8837 63.7307 25.649ZM0.896714 25.6908C-0.623864 30.3981 1.42321 34.1912 1.42652 34.1973C3.55983 38.7048 7.63198 40.0706 7.63198 40.0706C9.51205 40.843 11.3926 40.8964 11.3926 40.8964C11.6862 40.9501 23.0862 40.9018 26.1407 40.8874C26.27 40.8865 26.3411 40.7565 26.3411 40.7565C26.3501 40.7422 26.358 40.7278 26.3616 40.7147V40.5969C26.3363 40.5181 26.2688 40.4624 26.2688 40.4624L26.2708 40.4615C17.634 34.6348 0.896714 25.6908 0.896714 25.6908ZM25.7918 42.3346L6.13164 43.024C8.26371 46.8247 11.8544 49.7785 15.5948 48.8713C18.176 48.226 24.0238 44.1471 25.9542 42.7688L25.9478 42.7634C26.0979 42.6286 26.0442 42.5203 26.0442 42.5203C25.9949 42.3438 25.7919 42.344 25.7919 42.344L25.7918 42.3346ZM38.8133 42.3489L38.8113 42.3561C38.8113 42.3561 38.6387 42.378 38.5905 42.5073C38.5905 42.5073 38.5485 42.684 38.6647 42.7717L38.6627 42.7735C40.545 44.1233 46.251 48.1125 48.9999 48.8871C48.9999 48.8871 49.4163 49.0288 50.1143 49.0541H50.5336C52.3754 48.9895 55.5838 48.0433 58.4992 43.0342L38.8133 42.3489Z" fill="#CF0A2C"/>
</svg>