<svg xmlns="http://www.w3.org/2000/svg" width="143" height="31" viewBox="0 0 143 31" fill="none">
  <g clip-path="url(#clip0_654_6254)">
    <path fill-rule="evenodd" clip-rule="evenodd" d="M15.0649 29.716C7.20898 29.716 0.778687 23.2858 0.778687 15.3157C0.778687 7.47399 7.20898 1.0437 15.0649 1.0437C23.0208 1.0437 29.451 7.47399 29.451 15.3157C29.451 23.2858 23.0208 29.716 15.0649 29.716ZM15.0649 23.7135C19.7415 23.7135 23.4485 20.0066 23.4485 15.3157C23.4485 10.739 19.7415 7.03195 15.0649 7.03195C10.474 7.03195 6.76693 10.739 6.76693 15.3157C6.76693 20.0066 10.474 23.7135 15.0649 23.7135Z" fill="#166FC0"/>
    <path fill-rule="evenodd" clip-rule="evenodd" d="M103.163 29.716C95.3066 29.716 88.8763 23.2858 88.8763 15.3157C88.8763 7.47399 95.3066 1.0437 103.163 1.0437C111.118 1.0437 117.549 7.47399 117.549 15.3157C117.549 23.2858 111.118 29.716 103.163 29.716ZM103.163 23.7135C107.839 23.7135 111.546 20.0066 111.546 15.3157C111.546 10.739 107.839 7.03195 103.163 7.03195C98.5716 7.03195 94.8646 10.739 94.8646 15.3157C94.8646 20.0066 98.5716 23.7135 103.163 23.7135Z" fill="#166FC0"/>
    <path fill-rule="evenodd" clip-rule="evenodd" d="M31.0892 1.91343V29.0603H37.0774V6.93217H43.7358V29.0603H49.724V6.93217H52.0196C54.415 6.93217 56.2684 8.78565 56.2684 11.067V29.0603H62.2709V11.2808C62.2709 5.94842 58.0221 1.6853 52.6755 1.6853H37.1915C35.1242 1.6853 33.0425 1.6853 31.0892 1.91343Z" fill="#166FC0"/>
    <path fill-rule="evenodd" clip-rule="evenodd" d="M119.189 1.91343V29.0603H125.177V6.93217H131.95C134.231 6.93217 136.198 8.78565 136.198 11.067V29.0603H142.187V11.2808C142.187 5.94842 137.938 1.6853 132.591 1.6853H125.177C123.224 1.6853 121.142 1.6853 119.189 1.91343Z" fill="#166FC0"/>
    <path fill-rule="evenodd" clip-rule="evenodd" d="M64.7806 1.91343V29.0603H70.769V6.93217H77.855C80.2646 6.93217 82.1181 8.78565 82.1181 11.067C82.1181 13.4623 80.2646 15.3157 77.855 15.3157H72.7365L82.004 29.0603H89.418L82.6598 19.1368C85.9249 17.9391 88.1063 14.774 88.1063 11.067C88.1063 5.94843 83.9715 1.6853 78.7248 1.6853H70.769C68.7015 1.6853 66.734 1.6853 64.7806 1.91343Z" fill="#166FC0"/>
  </g>
  <defs>
    <clipPath id="clip0_654_6254">
      <rect width="142.227" height="29.5537" fill="white" transform="translate(0.333374 0.603027)"/>
    </clipPath>
  </defs>
</svg>