<svg xmlns="http://www.w3.org/2000/svg" width="116" height="37" viewBox="0 0 116 37" fill="none">
  <g clip-path="url(#clip0_654_6035)">
    <path d="M8.05952 3.70903H22.6642V0.559326H8.05952V3.70903ZM74.7834 20.5848H64.5718V10.1079H74.7834C78.4304 10.1079 80.8673 12.2132 80.8673 15.3463C80.8673 18.4795 78.4304 20.5848 74.7834 20.5848ZM78.1652 23.0382C81.663 22.0436 83.9341 19.0265 83.9341 15.3463C83.9341 10.5886 80.254 7.3892 74.7834 7.3892H61.505V35.5376H64.5718V23.3532H74.9658L81.5801 35.5376H84.8956L77.9994 23.088L78.1652 23.0382ZM45.5907 36.0681C53.1168 36.0681 58.3553 30.7799 58.3553 23.2206V7.3892H55.2056V23.0051C55.2056 28.8403 51.2436 32.9018 45.5907 32.9018C40.8993 32.9018 35.8432 29.8018 35.8432 23.0051V7.3892H32.6935V23.2206C32.6935 30.7799 37.9982 36.0681 45.5907 36.0681ZM100.594 11.0528L107.242 25.5912H93.9137L100.594 11.0528ZM99.119 7.3892L86.255 35.5376H89.5539L92.7367 28.3264H108.435L111.618 35.5376H114.917L102.053 7.3892H99.119ZM15.3536 6.85873C7.29696 6.85873 0.748901 13.4068 0.748901 21.4634C0.748901 29.52 7.29696 36.0681 15.3536 36.0681C23.4102 36.0681 29.9582 29.52 29.9582 21.4634C29.9582 13.4068 23.4102 6.85873 15.3536 6.85873ZM15.3536 32.9184C9.03759 32.9184 3.8986 27.7794 3.8986 21.4634C3.8986 15.1474 9.03759 10.0084 15.3536 10.0084C21.6695 10.0084 26.8085 15.1474 26.8085 21.4634C26.8085 27.7794 21.6695 32.9184 15.3536 32.9184Z" fill="#1D1D1B"/>
  </g>
  <defs>
    <clipPath id="clip0_654_6035">
      <rect width="114.384" height="36.4702" fill="white" transform="translate(0.666626 0.144775)"/>
    </clipPath>
  </defs>
</svg>