<svg xmlns="http://www.w3.org/2000/svg" width="140" height="31" viewBox="0 0 140 31" fill="none">
  <g clip-path="url(#clip0_654_5486)">
    <path d="M31.3865 27.7138L41.9238 4.34897C42.0277 4.14118 42.337 3.96802 42.5079 3.96802H42.8507C43.0227 3.96802 43.3321 4.14118 43.4349 4.34897L53.904 27.7138C54.1095 28.1652 53.8359 28.6177 53.321 28.6177H51.1577C50.7468 28.6177 50.5055 28.4076 50.3681 28.0948L48.2406 23.3387H37.0153C36.3296 24.9352 35.6081 26.4982 34.9212 28.0948C34.8185 28.3383 34.5449 28.6177 34.1328 28.6177H31.9706C31.4558 28.6177 31.181 28.1652 31.3865 27.7138ZM46.9373 20.3534L42.7157 10.8413H42.5437L38.3555 20.3534H46.9373Z" fill="#4A4A4A"/>
    <path d="M58.916 4.67725C58.916 4.32631 59.1908 4.01001 59.5682 4.01001H68.9049C73.0227 4.01001 76.3865 7.34966 76.3865 11.532C76.3865 14.7666 74.2936 17.4379 71.3072 18.6684L76.0102 27.5965C76.2492 28.0536 76.0102 28.6181 75.4261 28.6181H72.7491C72.4743 28.6181 72.2688 28.4403 72.1996 28.3007L67.634 18.9859H62.4519V27.9497C62.4519 28.3018 62.1425 28.6193 61.7985 28.6193H59.5682C59.1908 28.6193 58.916 28.3018 58.916 27.9497V4.67725ZM68.6302 15.9626C70.8616 15.9626 72.8183 14.029 72.8183 11.6036C72.8183 9.31905 70.8616 7.42123 68.6302 7.42123H62.52V15.9626H68.6302Z" fill="#4A4A4A"/>
    <path d="M80.995 4.67609C80.995 4.32516 81.2686 4.01001 81.6137 4.01001H89.5086C96.1337 4.01001 101.556 9.52222 101.556 16.2639C101.556 23.0759 96.1348 28.5893 89.5086 28.5893H81.6137C81.2686 28.5893 80.995 28.273 80.995 27.922V4.67609ZM89.0272 25.2542C94.0731 25.2542 97.7463 21.4621 97.7463 16.265C97.7463 11.1037 94.0731 7.34619 89.0272 7.34619H84.4951V25.2542H89.0272Z" fill="#4A4A4A"/>
    <path d="M106.431 4.6784C106.431 4.32631 106.739 4.01001 107.082 4.01001H109.347C109.691 4.01001 109.999 4.32631 109.999 4.6784V27.9763C109.999 28.3295 109.69 28.6458 109.347 28.6458H107.082C106.738 28.6458 106.431 28.3295 106.431 27.9763V4.6784Z" fill="#4A4A4A"/>
    <path d="M127.078 3.98633C133.851 3.98633 139.267 9.48238 139.267 16.3117C139.267 23.14 133.852 28.5679 127.078 28.5679C120.308 28.5679 114.925 23.14 114.925 16.3117C114.925 9.48238 120.308 3.98633 127.078 3.98633ZM127.078 25.1544C131.92 25.1544 135.883 21.1937 135.883 16.3117C135.883 11.4633 131.92 7.39986 127.078 7.39986C122.271 7.39986 118.309 11.4633 118.309 16.3117C118.311 21.1937 122.271 25.1544 127.078 25.1544Z" fill="#4A4A4A"/>
    <path d="M27.9076 11.9544C26.0825 4.58705 18.6309 0.0930144 11.2636 1.9181C3.89514 3.74204 -0.59774 11.1948 1.2262 18.5632C3.05128 25.9306 10.5029 30.4223 17.8702 28.5983C18.0076 28.5649 18.1403 28.5129 18.2777 28.4898C18.7925 28.4113 19.3109 28.4898 19.7553 28.5753C21.5434 28.9135 23.514 29.9882 23.813 30.3403C24.1143 30.6901 27.5636 27.9911 27.5636 27.9911C27.5636 27.9911 25.7789 26.2318 24.7273 25.7089C24.5172 25.6062 24.2309 25.4827 23.8949 25.3522C27.4505 22.0622 29.1543 16.9875 27.9076 11.9544ZM16.8151 24.3375C11.8016 25.5785 6.73032 22.5205 5.4882 17.507C4.24608 12.4935 7.30521 7.42108 12.3187 6.18011C17.3334 4.93799 22.4035 7.99596 23.6456 13.0106C24.8877 18.023 21.8309 23.0942 16.8151 24.3375Z" fill="#45A442"/>
  </g>
  <defs>
    <clipPath id="clip0_654_5486">
      <rect width="139.97" height="29.983" fill="white" transform="translate(0 0.388428)"/>
    </clipPath>
  </defs>
</svg>