<svg xmlns="http://www.w3.org/2000/svg" width="136" height="32" viewBox="0 0 136 32" fill="none">
  <g clip-path="url(#clip0_654_5621)">
    <path d="M0.333374 1.10333H3.48572L7.48677 13.4702L11.6091 1.10333H14.0339L18.1562 13.5915L22.1573 1.10333H25.1884L19.3687 17.9562H16.8226L12.7003 5.95308L8.57796 17.9562H6.15308L0.333374 1.10333ZM29.6744 1.10333H32.5843V17.835H29.6744V1.10333ZM42.405 3.89194H37.0703V1.10333H50.6496V3.77069H45.3149V17.835H42.405V3.89194ZM55.1356 1.10333H58.0455V8.13548H66.0476V1.10333H68.9575V17.835H66.0476V10.8028H58.0455V17.835H55.1356V1.10333ZM74.5347 1.10333H77.4445V17.835H74.5347V1.10333ZM83.143 1.10333H85.8104L94.7824 12.6215V1.10333H97.6923V17.835H95.2674L86.0528 5.95308V17.835H83.143V1.10333ZM102.542 9.5904C102.542 4.86189 106.179 0.86084 111.15 0.86084C114.06 0.86084 115.879 1.70955 117.576 3.16447L115.758 5.34687C114.424 4.25567 113.212 3.52821 111.029 3.52821C107.998 3.52821 105.573 6.19557 105.573 9.46916C105.573 12.864 107.877 15.4101 111.272 15.4101C112.848 15.4101 114.303 14.9251 115.273 14.1977V11.0453H111.029V8.49921H118.182V15.5314C116.485 16.9863 114.181 18.0775 111.15 18.0775C106.058 18.1987 102.542 14.4402 102.542 9.5904ZM122.062 15.4101L123.881 13.349C125.457 14.6826 127.155 15.5314 129.216 15.5314C131.034 15.5314 132.126 14.6826 132.126 13.4702C132.126 12.2578 131.398 11.6516 128.367 10.9241C124.851 10.0754 122.79 8.98418 122.79 5.95308C122.79 3.04323 125.215 1.10333 128.488 1.10333C130.913 1.10333 132.853 1.83079 134.55 3.16447L132.974 5.34687C131.519 4.25567 129.943 3.64945 128.488 3.64945C126.791 3.64945 125.821 4.49816 125.821 5.58935C125.821 6.92304 126.548 7.40801 129.822 8.25672C133.338 9.10543 135.157 10.4391 135.157 13.1065C135.157 16.2588 132.732 18.0775 129.216 18.0775C126.548 18.0775 124.123 17.2288 122.062 15.4101Z" fill="#030405"/>
    <path d="M0.333374 24.0186H1.66706V27.2922H5.30438V24.0186H6.63806V31.7782H5.42562V28.5046H1.7883V31.7782H0.333374V24.0186ZM10.1541 24.0186H15.8526V25.2311H11.4878V27.2922H15.3676V28.5046H11.4878V30.5658H15.9738V31.7782H10.1541V24.0186ZM21.5511 24.0186H22.7635L26.1583 31.7782H24.7034L23.9759 29.9596H20.3386L19.4899 31.7782H18.1562L21.5511 24.0186ZM23.491 28.6259L22.1573 25.5948L20.9448 28.6259H23.491ZM28.9469 24.0186H30.2806V30.5658H34.4029V31.7782H28.9469V24.0186ZM37.7978 25.2311H35.3729V24.0186H41.6776V25.2311H39.2527V31.657H37.919V25.2311H37.7978ZM44.4662 24.0186H45.7999V27.2922H49.4372V24.0186H50.7709V31.7782H49.4372V28.5046H45.7999V31.7782H44.4662V24.0186ZM58.288 30.5658L59.1367 29.5958C59.8642 30.2021 60.5916 30.5658 61.5616 30.5658C62.4103 30.5658 62.8953 30.2021 62.8953 29.5958C62.8953 28.9896 62.5315 28.7471 61.1978 28.3834C59.5004 28.0197 58.6517 27.5347 58.6517 26.0798C58.6517 24.7461 59.7429 23.7761 61.3191 23.7761C62.4103 23.7761 63.3802 24.1399 64.1077 24.7461L63.3802 25.716C62.6528 25.2311 62.0465 24.8673 61.3191 24.8673C60.4704 24.8673 60.1066 25.2311 60.1066 25.8373C60.1066 26.4435 60.4704 26.686 61.9253 27.0497C63.5015 27.4134 64.3502 28.0197 64.3502 29.3533C64.3502 30.8083 63.259 31.657 61.5616 31.657C60.3491 31.8995 59.2579 31.4145 58.288 30.5658ZM66.8963 27.8984C66.8963 25.716 68.5937 23.8974 70.8974 23.8974C73.201 23.8974 74.8984 25.716 74.8984 27.8984C74.8984 30.0808 73.201 31.8995 70.8974 31.8995C68.5937 31.8995 66.8963 30.0808 66.8963 27.8984ZM73.5647 27.8984C73.5647 26.3222 72.4735 25.1098 70.8974 25.1098C69.3212 25.1098 68.23 26.3222 68.23 27.8984C68.23 29.3533 69.3212 30.687 70.8974 30.687C72.4735 30.687 73.5647 29.4746 73.5647 27.8984ZM77.9295 24.0186H79.2632V30.5658H83.3855V31.7782H77.9295V24.0186ZM85.8104 28.5046V24.0186H87.144V28.3834C87.144 29.8383 87.8715 30.5658 89.0839 30.5658C90.2964 30.5658 91.0239 29.8383 91.0239 28.3834V23.8974H92.3575V28.2621C92.3575 30.5658 91.0238 31.7782 89.0839 31.7782C87.0228 31.8995 85.8104 30.687 85.8104 28.5046ZM97.4498 25.2311H95.0249V24.0186H101.33V25.2311H98.9047V31.657H97.571V25.2311H97.4498ZM104.118 24.0186H105.452V31.7782H104.118V24.0186ZM108.483 27.8984C108.483 25.716 110.18 23.8974 112.484 23.8974C114.788 23.8974 116.485 25.716 116.485 27.8984C116.485 30.0808 114.788 31.8995 112.484 31.8995C110.18 31.8995 108.483 30.0808 108.483 27.8984ZM115.151 27.8984C115.151 26.3222 114.06 25.1098 112.484 25.1098C110.908 25.1098 109.817 26.3222 109.817 27.8984C109.817 29.3533 110.908 30.687 112.484 30.687C114.06 30.687 115.151 29.3533 115.151 27.8984ZM119.516 24.0186H120.729L124.851 29.3533V24.0186H126.185V31.7782H125.093L120.85 26.3222V31.7782H119.516V24.0186ZM129.094 30.5658L129.943 29.5958C130.671 30.2021 131.398 30.5658 132.368 30.5658C133.217 30.5658 133.702 30.2021 133.702 29.5958C133.702 28.9896 133.338 28.7471 132.004 28.3834C130.307 28.0197 129.458 27.5347 129.458 26.0798C129.458 24.7461 130.549 23.7761 132.126 23.7761C133.217 23.7761 134.187 24.1399 134.914 24.7461L134.187 25.716C133.459 25.2311 132.853 24.8673 132.126 24.8673C131.277 24.8673 130.913 25.2311 130.913 25.8373C130.913 26.4435 131.277 26.686 132.732 27.0497C134.308 27.4134 135.157 28.0197 135.157 29.3533C135.157 30.8083 134.065 31.657 132.368 31.657C131.156 31.8995 129.943 31.4145 129.094 30.5658Z" fill="#98999A"/>
  </g>
  <defs>
    <clipPath id="clip0_654_5621">
      <rect width="134.702" height="31.0385" fill="white" transform="translate(0.333374 0.86084)"/>
    </clipPath>
  </defs>
</svg>