<svg width="24" height="24" viewBox="0 0 24 24" fill="none" xmlns="http://www.w3.org/2000/svg">
<mask id="mask0_181_3327" style="mask-type:alpha" maskUnits="userSpaceOnUse" x="0" y="0" width="24" height="24">
<rect width="24" height="24" fill="#D9D9D9"/>
</mask>
<g mask="url(#mask0_181_3327)">
<path d="M12.0001 21L8.8001 18.15C7.6001 17.0667 6.57093 16.1 5.7126 15.25C4.85426 14.4 4.14593 13.6 3.5876 12.85C3.02926 12.1 2.62093 11.375 2.3626 10.675C2.10426 9.975 1.9751 9.24167 1.9751 8.475C1.9751 6.90833 2.5001 5.60417 3.5501 4.5625C4.6001 3.52083 5.90843 3 7.4751 3C8.34176 3 9.16677 3.18333 9.9501 3.55C10.7334 3.91667 11.4168 4.43333 12.0001 5.1C12.5834 4.43333 13.2668 3.91667 14.0501 3.55C14.8334 3.18333 15.6584 3 16.5251 3C18.0918 3 19.4001 3.52083 20.4501 4.5625C21.5001 5.60417 22.0251 6.90833 22.0251 8.475C22.0251 9.24167 21.8959 9.975 21.6376 10.675C21.3793 11.375 20.9709 12.1 20.4126 12.85C19.8543 13.6 19.1459 14.4 18.2876 15.25C17.4293 16.1 16.4001 17.0667 15.2001 18.15L12.0001 21ZM6.8251 13.5H17.1751C17.4418 13.2167 17.6834 12.9542 17.9001 12.7125C18.1168 12.4708 18.3168 12.2333 18.5001 12H5.5001C5.68343 12.2333 5.88343 12.4708 6.1001 12.7125C6.31676 12.9542 6.55843 13.2167 6.8251 13.5ZM12.0001 18.3C12.6001 17.7667 13.1626 17.2708 13.6876 16.8125C14.2126 16.3542 14.6918 15.9167 15.1251 15.5H8.8751C9.30843 15.9167 9.7876 16.3542 10.3126 16.8125C10.8376 17.2708 11.4001 17.7667 12.0001 18.3Z" fill="url(#paint0_radial_181_3327)"/>
</g>
<defs>
<radialGradient id="paint0_radial_181_3327" cx="0" cy="0" r="1" gradientUnits="userSpaceOnUse" gradientTransform="translate(12.0001 12) rotate(180) scale(10.025 30.25)">
<stop stop-color="#0B101A"/>
<stop offset="1" stop-color="#0B101A" stop-opacity="0.8"/>
</radialGradient>
</defs>
</svg>
