<svg width="24" height="24" viewBox="0 0 24 24" fill="none" xmlns="http://www.w3.org/2000/svg">
<g opacity="0.4">
<mask id="mask0_181_3371" style="mask-type:alpha" maskUnits="userSpaceOnUse" x="0" y="0" width="24" height="24">
<rect width="24" height="24" fill="#D9D9D9"/>
</mask>
<g mask="url(#mask0_181_3371)">
<path d="M3 22V16C3 15.1667 3.29167 14.4583 3.875 13.875C4.45833 13.2917 5.16667 13 6 13H8C8.83333 13 9.54167 12.7083 10.125 12.125C10.7083 11.5417 11 10.8333 11 10C11 9.71667 10.9042 9.47917 10.7125 9.2875C10.5208 9.09583 10.2833 9 10 9C9.45 9 8.97917 8.80417 8.5875 8.4125C8.19583 8.02083 8 7.55 8 7V2H14V4C15.95 4 17.6042 4.67917 18.9625 6.0375C20.3208 7.39583 21 9.05 21 11V12C21 13.95 20.3208 15.6042 18.9625 16.9625C17.6042 18.3208 15.95 19 14 19H10C9.71667 19 9.47917 19.0958 9.2875 19.2875C9.09583 19.4792 9 19.7167 9 20V22H3Z" fill="#1C1B1F"/>
</g>
</g>
</svg>
