<svg width="12" height="12" viewBox="0 0 12 12" fill="none" xmlns="http://www.w3.org/2000/svg">
<path d="M1.5 4.5C1.5 2.01472 3.51472 0 6 0C8.48528 0 10.5 2.01472 10.5 4.5C10.5 5.76843 9.9747 6.91483 9.13077 7.73238C8.97857 7.87983 8.86139 8.03302 8.79095 8.19654L8.21941 9.52336C8.16016 9.6609 8.02476 9.75 7.875 9.75C8.08211 9.75 8.25 9.91789 8.25 10.125C8.25 10.3321 8.08211 10.5 7.875 10.5C8.08211 10.5 8.25 10.6679 8.25 10.875C8.25 11.0821 8.08211 11.25 7.875 11.25L7.70729 11.5854C7.58025 11.8395 7.32055 12 7.03647 12H4.96353C4.67945 12 4.41975 11.8395 4.29271 11.5854L4.125 11.25C3.91789 11.25 3.75 11.0821 3.75 10.875C3.75 10.6679 3.91789 10.5 4.125 10.5C3.91789 10.5 3.75 10.3321 3.75 10.125C3.75 9.91789 3.91789 9.75 4.125 9.75C3.97524 9.75 3.83984 9.6609 3.7806 9.52336L3.20905 8.19654C3.13861 8.03302 3.02143 7.87983 2.86923 7.73238C2.0253 6.91483 1.5 5.76843 1.5 4.5ZM6 0.75C3.92893 0.75 2.25 2.42893 2.25 4.5C2.25 5.55714 2.68694 6.51158 3.39107 7.1937C3.588 7.38447 3.77598 7.6169 3.89786 7.89982L4.37178 9H7.62822L8.10214 7.89982C8.22402 7.6169 8.412 7.38447 8.60893 7.1937C9.31306 6.51158 9.75 5.55714 9.75 4.5C9.75 2.42893 8.07107 0.75 6 0.75Z" fill="#493DDD"/>
</svg>
