<svg xmlns="http://www.w3.org/2000/svg" width="24" height="24" viewBox="0 0 24 24" fill="none">
<path d="M6 3V6H3V3H6ZM7.5 1.5H1.5V7.5H7.5V1.5ZM13.5 3V6H10.5V3H13.5ZM15 1.5H9V7.5H15V1.5ZM21 3V6H18V3H21ZM22.5 1.5H16.5V7.5H22.5V1.5ZM6 10.5V13.5H3V10.5H6ZM7.5 9H1.5V15H7.5V9ZM13.5 10.5V13.5H10.5V10.5H13.5ZM15 9H9V15H15V9ZM21 10.5V13.5H18V10.5H21ZM22.5 9H16.5V15H22.5V9ZM6 18V21H3V18H6ZM7.5 16.5H1.5V22.5H7.5V16.5ZM13.5 18V21H10.5V18H13.5ZM15 16.5H9V22.5H15V16.5ZM21 18V21H18V18H21ZM22.5 16.5H16.5V22.5H22.5V16.5Z" fill="#2F61A0"/>
</svg>