<svg xmlns="http://www.w3.org/2000/svg" width="25" height="24" viewBox="0 0 25 24" fill="none">
<g opacity="0.8">
<path d="M11 12.0001C11.8284 12.0001 12.5 11.3285 12.5 10.5001C12.5 9.67165 11.8284 9.00008 11 9.00008C10.1716 9.00008 9.5 9.67165 9.5 10.5001C9.5 11.3285 10.1716 12.0001 11 12.0001Z" fill="#59635D"/>
<path d="M11 1.50008C8.61305 1.50008 6.32387 2.44829 4.63604 4.13612C2.94821 5.82394 2 8.11313 2 10.5001C2 12.887 2.94821 15.1762 4.63604 16.864C6.32387 18.5519 8.61305 19.5001 11 19.5001V18.0001C9.51664 18.0001 8.06659 17.5602 6.83322 16.7361C5.59985 15.912 4.63856 14.7407 4.0709 13.3702C3.50325 11.9998 3.35472 10.4918 3.64411 9.0369C3.9335 7.58204 4.64781 6.24567 5.6967 5.19678C6.74559 4.14788 8.08197 3.43358 9.53682 3.14419C10.9917 2.8548 12.4997 3.00332 13.8701 3.57098C15.2406 4.13864 16.4119 5.09993 17.236 6.3333C18.0601 7.56667 18.5 9.01672 18.5 10.5001C18.5151 10.7498 18.5151 11.0003 18.5 11.2501H20C20 11.0026 20.0375 10.7551 20.0375 10.5001C20.0375 9.31502 19.8035 8.14163 19.3488 7.04724C18.8942 5.95286 18.2279 4.95904 17.3882 4.12282C16.5485 3.2866 15.5519 2.62445 14.4557 2.17437C13.3594 1.72429 12.185 1.49514 11 1.50008Z" fill="#59635D"/>
<path d="M13.25 18.0001H20.1275L18.185 19.9426L19.25 21.0001L23 17.2501L19.25 13.5001L18.185 14.5651L20.1275 16.5001H13.25V18.0001Z" fill="#59635D"/>
<path d="M11 15.0001C10.11 15.0001 9.23995 14.7362 8.49993 14.2417C7.75991 13.7472 7.18314 13.0444 6.84254 12.2222C6.50195 11.3999 6.41283 10.4951 6.58647 9.62217C6.7601 8.74926 7.18868 7.94743 7.81802 7.3181C8.44736 6.68876 9.24918 6.26018 10.1221 6.08654C10.995 5.91291 11.8998 6.00203 12.7221 6.34262C13.5443 6.68321 14.2471 7.25999 14.7416 8.00001C15.2361 8.74003 15.5 9.61006 15.5 10.5001C15.5 11.6936 15.0259 12.8381 14.182 13.6821C13.3381 14.526 12.1935 15.0001 11 15.0001ZM11 7.50008C10.4067 7.50008 9.82664 7.67603 9.33329 8.00567C8.83994 8.33531 8.45542 8.80385 8.22836 9.35203C8.0013 9.90021 7.94189 10.5034 8.05764 11.0853C8.1734 11.6673 8.45912 12.2018 8.87868 12.6214C9.29824 13.041 9.83279 13.3267 10.4147 13.4424C10.9967 13.5582 11.5999 13.4988 12.1481 13.2717C12.6962 13.0447 13.1648 12.6601 13.4944 12.1668C13.8241 11.6734 14 11.0934 14 10.5001C14 9.70443 13.6839 8.94137 13.1213 8.37876C12.5587 7.81615 11.7956 7.50008 11 7.50008Z" fill="#59635D"/>
</g>
</svg>