<svg xmlns="http://www.w3.org/2000/svg" width="24" height="24" viewBox="0 0 24 24" fill="none">
<g opacity="0.8">
<path d="M3 15V16.5H6.4395L1.5 21.4395L2.5605 22.5L7.5 17.5605V21H9V15H3Z" fill="#59635D"/>
<path d="M19.5001 15.75H18.0001V19.5H19.5001V15.75Z" fill="#59635D"/>
<path d="M16.5001 12H15.0001V19.5H16.5001V12Z" fill="#59635D"/>
<path d="M13.5 13.5H12V19.5H13.5V13.5Z" fill="#59635D"/>
<path d="M21 1.5H3C2.6023 1.5004 2.221 1.65856 1.93978 1.93978C1.65856 2.221 1.5004 2.6023 1.5 3V12H3V9.75H21.0007L21.0015 21H12V22.5H21C21.3977 22.4995 21.7789 22.3413 22.0601 22.0601C22.3413 21.7789 22.4995 21.3977 22.5 21V3C22.4995 2.60232 22.3414 2.22105 22.0602 1.93984C21.7789 1.65864 21.3977 1.50046 21 1.5ZM9 8.25H3V3H9V8.25ZM10.5 8.25V3H21L21.0005 8.25H10.5Z" fill="#59635D"/>
</g>
</svg>