<svg xmlns="http://www.w3.org/2000/svg" width="44" height="44" viewBox="0 0 44 44" fill="none">
  <g clip-path="url(#clip0_654_6298)">
    <path d="M7.48722 1.3859H35.8657V18.2042H24.5986L16.4 10.0056C16.2916 9.89724 16.1414 9.83567 15.9862 9.83567H7.48722V1.3859ZM8.99197 3.47679C8.99197 3.15417 9.25303 2.89066 9.57811 2.89066H33.7724C34.095 2.89066 34.3585 3.15171 34.3585 3.47679C34.3585 3.80188 34.0975 4.06293 33.7724 4.06293H9.57811C9.25549 4.06293 8.99197 3.80188 8.99197 3.47679ZM33.7724 8.16591H9.57811C9.25549 8.16591 8.99197 7.90486 8.99197 7.57977C8.99197 7.25469 9.25303 6.99363 9.57811 6.99363H33.7724C34.095 6.99363 34.3585 7.25469 34.3585 7.57977C34.3585 7.90486 34.0975 8.16591 33.7724 8.16591ZM34.3561 11.6827C34.3561 12.0054 34.095 12.2689 33.7699 12.2689H21.131C20.8083 12.2689 20.5448 12.0078 20.5448 11.6827C20.5448 11.3577 20.8059 11.0966 21.131 11.0966H33.7699C34.0925 11.0966 34.3561 11.3577 34.3561 11.6827ZM34.3561 15.7857C34.3561 16.1083 34.095 16.3719 33.7699 16.3719H25.1896C24.867 16.3719 24.6035 16.1108 24.6035 15.7857C24.6035 15.4606 24.8645 15.1996 25.1896 15.1996H33.7699C34.0925 15.1996 34.3561 15.4606 34.3561 15.7857Z" fill="#FCFDFD"/>
    <path d="M42.5198 18.2042H37.0352V0.799763C37.0352 0.47714 36.7742 0.213623 36.4491 0.213623H6.90074C6.57812 0.213623 6.31461 0.474677 6.31461 0.799763V9.83567H0.832477C0.509854 9.83567 0.246338 10.0967 0.246338 10.4218V42.4896C0.246338 42.8122 0.507392 43.0757 0.832477 43.0757H42.5198C42.8424 43.0757 43.1059 42.8146 43.1059 42.4896V18.7928C43.1059 18.4701 42.8449 18.2066 42.5198 18.2066V18.2042ZM7.48688 1.3859H35.8654V18.2042H24.5982L16.3997 10.0056C16.2913 9.89724 16.1411 9.83567 15.9859 9.83567H7.48688V1.3859ZM41.9337 41.9009H1.41862V11.0079H15.7421L23.9407 19.2065C24.049 19.3149 24.1992 19.3764 24.3544 19.3764H41.9337V41.9009ZM21.6749 21.7382C16.6459 21.7382 12.5553 25.8289 12.5553 30.8579C12.5553 35.8869 16.6459 39.9775 21.6749 39.9775C26.7039 39.9775 30.7945 35.8869 30.7945 30.8579C30.7945 25.8289 26.7039 21.7382 21.6749 21.7382ZM21.6749 38.8052C17.2912 38.8052 13.7275 35.2416 13.7275 30.8579C13.7275 26.4741 17.2912 22.9105 21.6749 22.9105C26.0586 22.9105 29.6223 26.4741 29.6223 30.8579C29.6223 35.2416 26.0586 38.8052 21.6749 38.8052ZM26.0266 28.9049H23.6254V26.5037C23.6254 26.1811 23.3644 25.9176 23.0393 25.9176H20.3081C19.9854 25.9176 19.7219 26.1786 19.7219 26.5037V28.9049H17.3207C16.9981 28.9049 16.7346 29.166 16.7346 29.491V32.2223C16.7346 32.5449 16.9956 32.8084 17.3207 32.8084H19.7219V35.2096C19.7219 35.5322 19.983 35.7957 20.3081 35.7957H23.0393C23.3619 35.7957 23.6254 35.5347 23.6254 35.2096V32.8084H26.0266C26.3492 32.8084 26.6128 32.5473 26.6128 32.2223V29.491C26.6128 29.1684 26.3517 28.9049 26.0266 28.9049ZM25.4429 31.6361H23.0417C22.7191 31.6361 22.4556 31.8972 22.4556 32.2223V34.6235H20.8967V32.2223C20.8967 31.8996 20.6356 31.6361 20.3105 31.6361H17.9093V30.0772H20.3105C20.6332 30.0772 20.8967 29.8161 20.8967 29.491V27.0898H22.4556V29.491C22.4556 29.8137 22.7167 30.0772 23.0417 30.0772H25.4429V31.6361ZM8.99164 4.2421C8.99164 3.91948 9.25269 3.65596 9.57778 3.65596H33.772C34.0947 3.65596 34.3582 3.91701 34.3582 4.2421C34.3582 4.56719 34.0971 4.82824 33.772 4.82824H9.57778C9.25515 4.82824 8.99164 4.56719 8.99164 4.2421ZM33.772 8.16591H9.57778C9.25515 8.16591 8.99164 7.90486 8.99164 7.57977C8.99164 7.25469 9.25269 6.99363 9.57778 6.99363H33.772C34.0947 6.99363 34.3582 7.25469 34.3582 7.57977C34.3582 7.90486 34.0971 8.16591 33.772 8.16591ZM34.3557 11.6827C34.3557 12.0054 34.0947 12.2689 33.7696 12.2689H21.1306C20.808 12.2689 20.5445 12.0078 20.5445 11.6827C20.5445 11.3577 20.8055 11.0966 21.1306 11.0966H33.7696C34.0922 11.0966 34.3557 11.3577 34.3557 11.6827ZM34.3557 15.7857C34.3557 16.1083 34.0947 16.3719 33.7696 16.3719H25.1893C24.8667 16.3719 24.6031 16.1108 24.6031 15.7857C24.6031 15.4606 24.8642 15.1996 25.1893 15.1996H33.7696C34.0922 15.1996 34.3557 15.4606 34.3557 15.7857Z" fill="#0096FF"/>
    <path d="M41.9337 41.901H1.41862V11.008H15.7421L23.9407 19.2066C24.049 19.3149 24.1992 19.3765 24.3544 19.3765H41.9337V41.901Z" fill="#FCFDFD"/>
    <path d="M41.9337 41.901H1.41862V11.008H15.7421L23.9407 19.2066C24.049 19.3149 24.1992 19.3765 24.3544 19.3765H41.9337V41.901Z" fill="url(#paint0_linear_654_6298)"/>
    <path d="M21.6752 38.8054C17.2915 38.8054 13.7278 35.2417 13.7278 30.858C13.7278 26.4743 17.2915 22.9106 21.6752 22.9106C26.0589 22.9106 29.6225 26.4743 29.6225 30.858C29.6225 35.2417 26.0589 38.8054 21.6752 38.8054ZM26.0269 28.905H23.6257V26.5038C23.6257 26.1812 23.3646 25.9177 23.0396 25.9177H20.3083C19.9857 25.9177 19.7222 26.1787 19.7222 26.5038V28.905H17.321C16.9984 28.905 16.7349 29.1661 16.7349 29.4912V32.2224C16.7349 32.545 16.9959 32.8085 17.321 32.8085H19.7222V35.2097C19.7222 35.5323 19.9833 35.7959 20.3083 35.7959H23.0396C23.3622 35.7959 23.6257 35.5348 23.6257 35.2097V32.8085H26.0269C26.3495 32.8085 26.613 32.5475 26.613 32.2224V29.4912C26.613 29.1685 26.352 28.905 26.0269 28.905ZM25.4432 31.6362H23.042C22.7194 31.6362 22.4559 31.8973 22.4559 32.2224V34.6236H20.8969V32.2224C20.8969 31.8998 20.6359 31.6362 20.3108 31.6362H17.9096V30.0773H20.3108C20.6334 30.0773 20.8969 29.8163 20.8969 29.4912V27.09H22.4559V29.4912C22.4559 29.8138 22.7169 30.0773 23.042 30.0773H25.4432V31.6362Z" fill="white"/>
    <path d="M21.6752 21.7383C16.6462 21.7383 12.5555 25.8289 12.5555 30.8579C12.5555 35.8869 16.6462 39.9776 21.6752 39.9776C26.7042 39.9776 30.7948 35.8869 30.7948 30.8579C30.7948 25.8289 26.7042 21.7383 21.6752 21.7383ZM21.6752 38.8053C17.2915 38.8053 13.7278 35.2417 13.7278 30.8579C13.7278 26.4742 17.2915 22.9106 21.6752 22.9106C26.0589 22.9106 29.6225 26.4742 29.6225 30.8579C29.6225 35.2417 26.0589 38.8053 21.6752 38.8053ZM26.0269 28.9049H23.6257V26.5037C23.6257 26.1811 23.3646 25.9176 23.0396 25.9176H20.3083C19.9857 25.9176 19.7222 26.1787 19.7222 26.5037V28.9049H17.321C16.9984 28.9049 16.7349 29.166 16.7349 29.4911V32.2223C16.7349 32.5449 16.9959 32.8084 17.321 32.8084H19.7222V35.2096C19.7222 35.5323 19.9833 35.7958 20.3083 35.7958H23.0396C23.3622 35.7958 23.6257 35.5347 23.6257 35.2096V32.8084H26.0269C26.3495 32.8084 26.613 32.5474 26.613 32.2223V29.4911C26.613 29.1685 26.352 28.9049 26.0269 28.9049ZM25.4432 31.6362H23.042C22.7194 31.6362 22.4559 31.8972 22.4559 32.2223V34.6235H20.8969V32.2223C20.8969 31.8997 20.6359 31.6362 20.3108 31.6362H17.9096V30.0772H20.3108C20.6334 30.0772 20.8969 29.8162 20.8969 29.4911V27.0899H22.4559V29.4911C22.4559 29.8137 22.7169 30.0772 23.042 30.0772H25.4432V31.6362Z" fill="#0096FF"/>
  </g>
  <defs>
    <linearGradient id="paint0_linear_654_6298" x1="42.5198" y1="26.7488" x2="0.246338" y2="26.7488" gradientUnits="userSpaceOnUse">
      <stop stop-color="#C9DEF7"/>
      <stop offset="1" stop-color="#C9DEF7" stop-opacity="0"/>
    </linearGradient>
    <clipPath id="clip0_654_6298">
      <rect width="42.8571" height="42.8596" fill="white" transform="translate(0.244873 0.213623)"/>
    </clipPath>
  </defs>
</svg>