<svg xmlns="http://www.w3.org/2000/svg" width="48" height="48" viewBox="0 0 48 48" fill="none">
  <path d="M35.6222 16.787H32.5574C32.3402 16.787 32.1337 16.8811 31.9912 17.0452C31.8488 17.2089 31.7843 17.4268 31.8147 17.6417L32.398 21.7777H32.2391C31.1647 21.7777 30.2905 22.6519 30.2905 23.7267V23.8713C30.2905 24.7523 30.8815 25.4898 31.6851 25.7303V38.8054H6.5V9.93738H13.187C13.6012 9.93738 13.937 9.60156 13.937 9.18738V2.5H35.6222V16.787Z" fill="url(#paint0_linear_631_12024)"/>
  <path d="M5.07292 8.87674C5.06866 8.88599 5.06061 8.89313 5.05672 8.90256C5.04994 8.91913 5.05099 8.93707 5.04546 8.95396C5.0255 9.0143 5.01369 9.07532 5.00948 9.13876C5.00838 9.15524 5 9.17085 5 9.18738V39.5554C5 39.9696 5.33582 40.3054 5.75 40.3054H31.6851V41.3129C31.6851 43.8972 33.7878 46 36.3722 46C38.9569 46 41.0597 43.8972 41.0597 41.3129V25.7303C41.8632 25.4898 42.4542 24.7523 42.4542 23.8713V23.7267C42.4542 22.6519 41.5801 21.7777 40.5056 21.7777H40.3467L40.9301 17.6417C40.9605 17.4268 40.896 17.2089 40.7535 17.0452C40.6111 16.8811 40.4045 16.787 40.1874 16.787H37.1222V1.75C37.1222 1.33582 36.7864 1 36.3722 1H13.1874C13.1716 1 13.1568 1.00806 13.1411 1.00902C13.0759 1.01309 13.0131 1.02522 12.9512 1.04601C12.9352 1.05136 12.9182 1.05031 12.9026 1.05672C12.8935 1.06042 12.8868 1.06812 12.8779 1.07214C12.7977 1.10876 12.7215 1.15495 12.6567 1.21973L5.21973 8.6571C5.15541 8.72142 5.10941 8.79709 5.07292 8.87674ZM12.437 3.56091V8.43738H7.56055L12.437 3.56091ZM39.5597 41.3129C39.5597 43.0703 38.1296 44.5 36.3722 44.5C34.6147 44.5 33.1851 43.0703 33.1851 41.3129V25.8203H39.5597V41.3129ZM40.9542 23.7267V23.8713C40.9542 24.1189 40.7528 24.3203 40.5056 24.3203H32.2391C31.9919 24.3203 31.7905 24.1189 31.7905 23.8713V23.7267C31.7905 23.4791 31.9919 23.2777 32.2391 23.2777H40.5056C40.7528 23.2777 40.9542 23.4791 40.9542 23.7267ZM38.832 21.7777H33.9127L33.4205 18.287H39.3242L38.832 21.7777ZM35.6222 16.787H32.5574C32.3402 16.787 32.1337 16.8811 31.9912 17.0452C31.8488 17.2089 31.7843 17.4268 31.8147 17.6417L32.398 21.7777H32.2391C31.1647 21.7777 30.2905 22.6519 30.2905 23.7267V23.8713C30.2905 24.7523 30.8815 25.4898 31.6851 25.7303V38.8054H6.5V9.93738H13.187C13.6012 9.93738 13.937 9.60156 13.937 9.18738V2.5H35.6222V16.787Z" fill="#84B8F9"/>
  <path d="M39.5602 41.3129C39.5602 43.0703 38.1301 44.5 36.3727 44.5C34.6152 44.5 33.1855 43.0703 33.1855 41.3129V25.8203H39.5602V41.3129ZM40.9547 23.7267V23.8713C40.9547 24.1189 40.7533 24.3203 40.5061 24.3203H32.2396C31.9924 24.3203 31.791 24.1189 31.791 23.8713V23.7267C31.791 23.4791 31.9924 23.2777 32.2396 23.2777H40.5061C40.7533 23.2777 40.9547 23.4791 40.9547 23.7267ZM38.8325 21.7777H33.9132L33.421 18.287H39.3247L38.8325 21.7777Z" fill="#282D37"/>
  <path d="M15.2969 17.5884L13.0754 19.8094L12.2002 18.9342C11.9072 18.6412 11.4326 18.6412 11.1396 18.9342C10.8467 19.2272 10.8467 19.7018 11.1396 19.9948L12.5452 21.4003C12.6917 21.5468 12.8835 21.62 13.0754 21.62C13.2673 21.62 13.4592 21.5468 13.6057 21.4003L16.3574 18.6489C16.6504 18.3563 16.6504 17.8813 16.3574 17.5884C16.0645 17.2954 15.5898 17.2954 15.2969 17.5884Z" fill="#84B8F9"/>
  <path d="M19.5664 20.2444H27.9424C28.3566 20.2444 28.6924 19.9086 28.6924 19.4944C28.6924 19.0802 28.3566 18.7444 27.9424 18.7444H19.5664C19.1522 18.7444 18.8164 19.0802 18.8164 19.4944C18.8164 19.9086 19.1522 20.2444 19.5664 20.2444Z" fill="#84B8F9"/>
  <path d="M15.2969 23.5381L13.0754 25.7595L12.2002 24.8839C11.9072 24.5909 11.4326 24.5909 11.1396 24.8839C10.8467 25.1765 10.8467 25.6515 11.1396 25.9445L12.5452 27.3503C12.6858 27.491 12.8766 27.5701 13.0754 27.5701C13.2743 27.5701 13.4651 27.491 13.6057 27.3503L16.3574 24.5986C16.6504 24.3057 16.6504 23.8311 16.3574 23.5381C16.0645 23.2451 15.5898 23.2451 15.2969 23.5381Z" fill="#84B8F9"/>
  <path d="M19.5664 26.1943H27.9424C28.3566 26.1943 28.6924 25.8585 28.6924 25.4443C28.6924 25.0302 28.3566 24.6943 27.9424 24.6943H19.5664C19.1522 24.6943 18.8164 25.0302 18.8164 25.4443C18.8164 25.8585 19.1522 26.1943 19.5664 26.1943Z" fill="#84B8F9"/>
  <path d="M15.2969 29.4883L13.0754 31.7094L12.2002 30.8341C11.9072 30.5411 11.4326 30.5411 11.1396 30.8341C10.8467 31.1271 10.8467 31.6017 11.1396 31.8947L12.5452 33.3002C12.6917 33.4467 12.8835 33.5199 13.0754 33.5199C13.2673 33.5199 13.4592 33.4467 13.6057 33.3002L16.3574 30.5488C16.6504 30.2562 16.6504 29.7812 16.3574 29.4883C16.0645 29.1953 15.5898 29.1953 15.2969 29.4883Z" fill="#84B8F9"/>
  <path d="M19.2107 32.1445H23.6144C23.8322 32.1445 24.0087 31.8087 24.0087 31.3945C24.0087 30.9803 23.8322 30.6445 23.6144 30.6445H19.2107C18.993 30.6445 18.8164 30.9803 18.8164 31.3945C18.8164 31.8087 18.993 32.1445 19.2107 32.1445Z" fill="#84B8F9"/>
  <defs>
    <linearGradient id="paint0_linear_631_12024" x1="38.7501" y1="31.7212" x2="-2.78848" y2="18.3077" gradientUnits="userSpaceOnUse">
      <stop stop-color="#4D6D95"/>
      <stop offset="1" stop-color="#2E333C"/>
    </linearGradient>
  </defs>
</svg>