<svg xmlns="http://www.w3.org/2000/svg" width="86" height="69" viewBox="0 0 86 69" fill="none">
  <path d="M69.2489 25.2615V64.0711C69.2489 65.5378 68.06 66.7266 66.5934 66.7266H4.087C2.62035 66.7266 1.4315 65.5378 1.4315 64.0711V25.2615H69.2489Z" fill="url(#paint0_linear_390_12180)"/>
  <path d="M66.5929 67.5437H4.08654C2.17173 67.5437 0.613969 65.9859 0.613969 64.0711V16.4439C0.613969 14.5291 2.17173 12.9713 4.08654 12.9713H66.5929C68.5077 12.9713 70.0655 14.5291 70.0655 16.4439V64.0711C70.0655 65.9859 68.5076 67.5437 66.5929 67.5437Z" fill="white"/>
  <path d="M69.2449 26.0786H1.43026C0.979092 26.0786 0.611816 25.7127 0.611816 25.2615C0.611816 24.8103 0.976369 24.4444 1.42753 24.4444H69.2449C69.6961 24.4444 70.062 24.8103 70.062 25.2615C70.062 25.7127 69.6962 26.0786 69.2449 26.0786Z" fill="#0096FF"/>
  <path d="M44.9803 57.5471C44.5292 57.5471 44.1633 57.1157 44.1633 56.5839V51.2864C44.1633 50.7546 44.5292 50.3233 44.9803 50.3233C45.4315 50.3233 45.7974 50.7546 45.7974 51.2864V56.5839C45.7974 57.1157 45.4316 57.5471 44.9803 57.5471Z" fill="#0096FF"/>
  <path d="M53.1511 57.5471C52.6999 57.5471 52.334 57.1157 52.334 56.5839V46.4705C52.334 45.9387 52.6999 45.5073 53.1511 45.5073C53.6023 45.5073 53.9682 45.9387 53.9682 46.4705V56.5839C53.9682 57.1157 53.6024 57.5471 53.1511 57.5471Z" fill="#0096FF"/>
  <path d="M61.3219 57.5471C60.8707 57.5471 60.5048 57.1157 60.5048 56.5839V41.6547C60.5048 41.1228 60.8707 40.6915 61.3219 40.6915C61.773 40.6915 62.139 41.1228 62.139 41.6547V56.5839C62.139 57.1157 61.7732 57.5471 61.3219 57.5471Z" fill="#0096FF"/>
  <path d="M69.2489 25.2615V64.0711C69.2489 65.5378 68.06 66.7266 66.5934 66.7266H4.087C2.62035 66.7266 1.4315 65.5378 1.4315 64.0711V25.2615H69.2489Z" fill="url(#paint1_linear_390_12180)"/>
  <path d="M66.5929 67.5437H4.08655C2.17173 67.5437 0.613969 65.9859 0.613969 64.0711V16.4439C0.613969 14.5291 2.17173 12.9713 4.08655 12.9713H66.5929C68.5077 12.9713 70.0655 14.5291 70.0655 16.4439V64.0711C70.0655 65.9859 68.5076 67.5437 66.5929 67.5437ZM4.08655 14.6055C3.07283 14.6055 2.24812 15.4302 2.24812 16.4439V64.0711C2.24812 65.0848 3.07283 65.9095 4.08655 65.9095H66.5929C67.6066 65.9095 68.4313 65.0848 68.4313 64.0711V16.4439C68.4313 15.4302 67.6066 14.6055 66.5929 14.6055H4.08655Z" fill="#0096FF"/>
  <path d="M69.2449 26.0786H1.43026C0.979093 26.0786 0.611816 25.7127 0.611816 25.2615C0.611816 24.8103 0.976369 24.4444 1.42753 24.4444H69.2449C69.6961 24.4444 70.062 24.8103 70.062 25.2615C70.062 25.7127 69.6962 26.0786 69.2449 26.0786Z" fill="#0096FF"/>
  <path d="M39.6943 20.359H7.82831C7.37714 20.359 7.01123 19.9931 7.01123 19.542C7.01123 19.0908 7.37714 18.7249 7.82831 18.7249H39.6943C40.1455 18.7249 40.5114 19.0908 40.5114 19.542C40.5114 19.9931 40.1456 20.359 39.6943 20.359Z" fill="#0096FF"/>
  <path d="M52.7675 20.359H51.1334C50.6822 20.359 50.3163 19.9931 50.3163 19.542C50.3163 19.0908 50.6822 18.7249 51.1334 18.7249H52.7675C53.2187 18.7249 53.5846 19.0908 53.5846 19.542C53.5846 19.9931 53.2188 20.359 52.7675 20.359Z" fill="#0096FF"/>
  <path d="M57.8062 20.359H56.172C55.7209 20.359 55.3549 19.9931 55.3549 19.542C55.3549 19.0908 55.7209 18.7249 56.172 18.7249H57.8062C58.2573 18.7249 58.6233 19.0908 58.6233 19.542C58.6233 19.9931 58.2575 20.359 57.8062 20.359Z" fill="#0096FF"/>
  <path d="M62.8448 20.359H61.2107C60.7595 20.359 60.3936 19.9931 60.3936 19.542C60.3936 19.0908 60.7595 18.7249 61.2107 18.7249H62.8448C63.296 18.7249 63.6619 19.0908 63.6619 19.542C63.6619 19.9931 63.2961 20.359 62.8448 20.359Z" fill="#0096FF"/>
  <path d="M44.9803 57.5471C44.5292 57.5471 44.1633 57.1158 44.1633 56.5839V51.2864C44.1633 50.7546 44.5292 50.3233 44.9803 50.3233C45.4315 50.3233 45.7974 50.7546 45.7974 51.2864V56.5839C45.7974 57.1158 45.4316 57.5471 44.9803 57.5471Z" fill="#0096FF"/>
  <path d="M53.1511 57.5471C52.6999 57.5471 52.334 57.1157 52.334 56.5839V46.4705C52.334 45.9387 52.6999 45.5073 53.1511 45.5073C53.6023 45.5073 53.9682 45.9387 53.9682 46.4705V56.5839C53.9682 57.1157 53.6024 57.5471 53.1511 57.5471Z" fill="#0096FF"/>
  <path d="M61.3219 57.5471C60.8707 57.5471 60.5048 57.1158 60.5048 56.5839V41.6547C60.5048 41.1228 60.8707 40.6915 61.3219 40.6915C61.773 40.6915 62.139 41.1228 62.139 41.6547V56.5839C62.139 57.1158 61.7732 57.5471 61.3219 57.5471Z" fill="#0096FF"/>
  <path d="M18.2283 38.9192C16.0157 38.9192 14.214 37.1065 14.214 34.8765C14.214 32.6466 16.0157 30.8339 18.2283 30.8339C20.441 30.8339 22.2427 32.6466 22.2427 34.8765C22.2427 37.1065 20.4427 38.9192 18.2283 38.9192ZM18.2283 32.4067C16.8762 32.4067 15.7758 33.5149 15.7758 34.8765C15.7758 36.2382 16.8762 37.3464 18.2283 37.3464C19.5804 37.3464 20.6809 36.2382 20.6809 34.8765C20.6809 33.5149 19.5804 32.4067 18.2283 32.4067Z" fill="#0096FF"/>
  <path d="M18.2283 62.5265C17.0054 62.5265 15.858 62.0468 14.9924 61.1767C14.1284 60.3067 13.652 59.1495 13.652 57.9196V53.4495L13.4306 53.5239C13.1622 53.6151 12.8837 53.6607 12.6002 53.6607C11.1592 53.6607 9.98657 52.4798 9.98657 51.0287V47.1211C9.98657 45.3997 10.6526 43.7795 11.8621 42.5632C13.0716 41.3452 14.6787 40.6745 16.3881 40.6745H20.0653C21.7747 40.6745 23.3834 41.3452 24.5913 42.5632C25.8008 43.7812 26.4668 45.3997 26.4668 47.1211V51.0287C26.4668 52.4798 25.2942 53.6607 23.8531 53.6607C23.5696 53.6607 23.2912 53.6151 23.0228 53.5239L22.8013 53.4495V57.9196C22.8013 59.1512 22.3249 60.3067 21.461 61.1767C20.597 62.0468 19.4479 62.5265 18.2267 62.5265H18.2283ZM14.4337 47.8543C14.8649 47.8543 15.2138 48.2074 15.2138 48.6416V57.9213C15.2138 58.7322 15.5275 59.4941 16.0962 60.0668C16.6649 60.6395 17.4214 60.9554 18.2267 60.9554C19.0319 60.9554 19.7885 60.6395 20.3571 60.0668C20.9258 59.4941 21.2395 58.7322 21.2395 57.9213V48.6416C21.2395 48.2074 21.5901 47.8543 22.0196 47.8543C22.449 47.8543 22.7997 48.2074 22.7997 48.6416V51.0303C22.7997 51.6149 23.271 52.0896 23.8515 52.0896C24.4319 52.0896 24.9033 51.6149 24.9033 51.0303V47.1228C24.9033 45.8203 24.4 44.5972 23.4858 43.6765C22.5715 42.7558 21.3553 42.249 20.0636 42.249H16.3864C15.093 42.249 13.8785 42.7558 12.9642 43.6765C12.05 44.5972 11.5467 45.822 11.5467 47.1228V51.0303C11.5467 51.6149 12.0181 52.0896 12.5985 52.0896C13.1789 52.0896 13.6503 51.6149 13.6503 51.0303V48.6416C13.6503 48.2074 14.0009 47.8543 14.4304 47.8543H14.4337Z" fill="#0096FF"/>
  <circle cx="44.214" cy="37.1724" r="7.22593" fill="white" stroke="#0096FF" stroke-width="1.77479"/>
  <path d="M44.2134 30.8339V37.0668C44.2134 37.4752 44.5445 37.8063 44.9529 37.8063H51.8196" stroke="#0096FF" stroke-width="1.77479"/>
  <path d="M74.0049 2.94434L74.0049 10.5506M77.8079 6.74746L70.2017 6.74746" stroke="#0096FF" stroke-width="2.21849" stroke-linecap="round"/>
  <path d="M80.9785 18.7906L80.9785 25.1292M84.1476 21.9599L77.8091 21.9599" stroke="#0096FF" stroke-width="2.21849" stroke-linecap="round"/>
  <defs>
    <linearGradient id="paint0_linear_390_12180" x1="70.0655" y1="40.2575" x2="0.611816" y2="40.2575" gradientUnits="userSpaceOnUse">
      <stop stop-color="#C9DEF7"/>
      <stop offset="1" stop-color="#C9DEF7" stop-opacity="0"/>
    </linearGradient>
    <linearGradient id="paint1_linear_390_12180" x1="70.0655" y1="40.2575" x2="0.611816" y2="40.2575" gradientUnits="userSpaceOnUse">
      <stop stop-color="#C9DEF7"/>
      <stop offset="1" stop-color="#C9DEF7" stop-opacity="0"/>
    </linearGradient>
  </defs>
</svg>