<svg xmlns="http://www.w3.org/2000/svg" width="24" height="24" viewBox="0 0 24 24" fill="none">
<path fill-rule="evenodd" clip-rule="evenodd" d="M15 9C15 8.53653 14.9475 8.08532 14.848 7.65203C17.5126 8.26373 19.5 10.6498 19.5 13.5C19.5 16.8137 16.8137 19.5 13.5 19.5C10.6498 19.5 8.26374 17.5126 7.65203 14.848C8.08532 14.9475 8.53652 15 9 15C12.3137 15 15 12.3137 15 9ZM6.03381 14.2167C4.22178 13.1842 3 11.2348 3 9C3 5.68629 5.68629 3 9 3C11.2348 3 13.1842 4.22178 14.2167 6.03381C18.0226 6.39462 21 9.59961 21 13.5C21 17.6421 17.6421 21 13.5 21C9.5996 21 6.39462 18.0226 6.03381 14.2167ZM6.07698 12.4215C6.54918 9.14253 9.14255 6.54918 12.4215 6.07698C11.5962 5.11179 10.3695 4.5 9 4.5C6.51471 4.5 4.5 6.51472 4.5 9C4.5 10.3695 5.11179 11.5962 6.07698 12.4215Z" fill="#111111"/>
</svg>