<svg xmlns="http://www.w3.org/2000/svg" width="33" height="32" viewBox="0 0 33 32" fill="none">
  <path d="M15.4403 11.2414C15.0564 11.3461 14.6912 11.4967 14.351 11.6872C14.2632 11.6137 14.193 11.5165 14.1512 11.4005L12.1754 5.92614C12.0495 5.57724 12.2279 5.1915 12.5739 5.06455C12.6491 5.03689 12.7261 5.02393 12.8016 5.02393C13.0739 5.02393 13.3296 5.1934 13.428 5.46626L15.4038 10.9406C15.4397 11.0402 15.4508 11.1428 15.4403 11.2414Z" fill="#0C2B50"/>
  <path d="M11.9719 1.43113C11.846 1.08227 11.4635 0.9024 11.1176 1.02937C10.7716 1.15635 10.5933 1.54208 10.7192 1.89094L11.5144 4.09431C11.6403 4.44317 12.0228 4.62304 12.3687 4.49606C12.7146 4.36909 12.893 3.98336 12.7671 3.6345L11.9719 1.43113Z" fill="#0C2B50"/>
  <path d="M11.994 14.7379C11.8955 15.1135 11.84 15.5067 11.8331 15.9118C11.7257 15.952 11.6068 15.9648 11.4859 15.9433L5.79696 14.9317C5.43453 14.8672 5.1925 14.5186 5.2563 14.1529C5.31336 13.827 5.59458 13.5974 5.91202 13.5974C5.95043 13.5974 5.9893 13.6007 6.02849 13.6077L11.7174 14.6193C11.8209 14.6376 11.9145 14.6792 11.994 14.7379Z" fill="#0C2B50"/>
  <path d="M1.83517 12.8621C1.47264 12.7976 1.12693 13.0417 1.06301 13.4074C0.999086 13.773 1.24115 14.1216 1.60368 14.1861L3.89341 14.5932C4.25593 14.6577 4.60164 14.4136 4.66556 14.048C4.72949 13.6824 4.48742 13.3337 4.12489 13.2693L1.83517 12.8621Z" fill="#0C2B50"/>
  <path d="M14.1998 20.225C14.1805 20.3386 14.132 20.4484 14.0533 20.5431L10.3402 25.0058C10.1036 25.2902 9.68321 25.3274 9.4012 25.0887C9.24413 24.9557 9.16309 24.7652 9.16309 24.5735C9.16309 24.4209 9.21419 24.2677 9.31906 24.1417L13.0322 19.679C13.1001 19.5974 13.183 19.5362 13.2735 19.4961C13.5512 19.7748 13.8623 20.0198 14.1998 20.225Z" fill="#0C2B50"/>
  <path d="M6.58303 27.431C6.3464 27.7154 6.38319 28.1393 6.66518 28.378C6.94718 28.6166 7.3676 28.5795 7.60422 28.2951L9.09874 26.4989C9.33536 26.2145 9.29858 25.7905 9.01658 25.5519C8.73459 25.3133 8.31416 25.3504 8.07754 25.6348L6.58303 27.431Z" fill="#0C2B50"/>
  <path d="M20.8654 26.9357C20.7901 26.9633 20.7132 26.9763 20.6376 26.9763C20.3653 26.9763 20.1097 26.8068 20.0112 26.534L18.0354 21.0596C17.9995 20.96 17.9884 20.8574 17.9989 20.7588C18.3828 20.6541 18.748 20.5035 19.0882 20.313C19.176 20.3865 19.2462 20.4837 19.2881 20.5998L21.2639 26.0741C21.3898 26.423 21.2114 26.8087 20.8654 26.9357Z" fill="#0C2B50"/>
  <path d="M21.4673 30.5689C21.5932 30.9177 21.9757 31.0976 22.3217 30.9706C22.6676 30.8437 22.8459 30.4579 22.72 30.1091L21.9248 27.9057C21.7989 27.5568 21.4164 27.377 21.0705 27.5039C20.7246 27.6309 20.5462 28.0166 20.6721 28.3655L21.4673 30.5689Z" fill="#0C2B50"/>
  <path d="M28.1838 17.8471C28.1269 18.1731 27.8455 18.4026 27.5282 18.4026C27.4898 18.4026 27.4509 18.3993 27.4118 18.3923L21.7228 17.3807C21.6194 17.3624 21.5258 17.3208 21.4463 17.2622C21.5447 16.8865 21.6002 16.4934 21.6071 16.0882C21.7145 16.048 21.8335 16.0352 21.9543 16.0567L27.6431 17.0683C28.0057 17.1328 28.2477 17.4814 28.1838 17.8471Z" fill="#0C2B50"/>
  <path d="M31.6053 19.1379C31.9678 19.2024 32.3135 18.9583 32.3774 18.5926C32.4413 18.227 32.1993 17.8784 31.8368 17.8139L29.547 17.4068C29.1845 17.3423 28.8388 17.5864 28.7749 17.952C28.7109 18.3176 28.953 18.6663 29.3155 18.7307L31.6053 19.1379Z" fill="#0C2B50"/>
  <path d="M24.2759 7.42669C24.2759 7.57925 24.2248 7.73243 24.1199 7.85843L20.4068 12.3211C20.3389 12.4027 20.256 12.4639 20.1655 12.504C19.8878 12.2253 19.5768 11.9803 19.2393 11.7751C19.2585 11.6616 19.307 11.5517 19.3857 11.457L23.0988 6.99431C23.3354 6.70991 23.7558 6.67276 24.0378 6.91148C24.1949 7.04443 24.2759 7.23493 24.2759 7.42669Z" fill="#0C2B50"/>
  <path d="M26.8564 4.56903C27.093 4.28464 27.0563 3.86065 26.7743 3.62202C26.4923 3.38339 26.0719 3.42048 25.8352 3.70487L24.3407 5.50108C24.1041 5.78547 24.1409 6.20946 24.4229 6.44809C24.7049 6.68672 25.1253 6.64963 25.3619 6.36524L26.8564 4.56903Z" fill="#0C2B50"/>
  <path d="M13.9042 11.9703C13.5828 12.1989 13.29 12.4659 13.0325 12.7644C12.9248 12.7255 12.8254 12.6583 12.7465 12.5635L11.6716 11.2717C11.4349 10.9873 11.4718 10.5633 11.7538 10.3246C11.8787 10.219 12.0306 10.1675 12.1819 10.1675C12.372 10.1675 12.5609 10.2491 12.6928 10.4075L13.7677 11.6994C13.8354 11.7808 13.8807 11.8737 13.9042 11.9703Z" fill="#0C2B50"/>
  <path d="M7.3178 3.9474C7.08118 3.66301 6.66076 3.62592 6.37876 3.86455C6.09677 4.10318 6.05998 4.52717 6.29661 4.81156L10.4581 9.81314C10.6947 10.0975 11.1152 10.1346 11.3972 9.89599C11.6791 9.65736 11.7159 9.23337 11.4793 8.94898L7.3178 3.9474Z" fill="#0C2B50"/>
  <path d="M12.0961 17.6036C12.0091 17.6779 11.9021 17.7306 11.7817 17.7521L10.1349 18.0449C9.77234 18.1094 9.42669 17.8653 9.36273 17.4996C9.35583 17.4601 9.35254 17.4207 9.35254 17.382C9.35254 17.0619 9.58 16.7784 9.90339 16.7209L11.5501 16.4281C11.6539 16.4096 11.7564 16.4164 11.8513 16.4444C11.8867 16.8467 11.9703 17.2351 12.0961 17.6036Z" fill="#0C2B50"/>
  <path d="M8.04392 17.0513L1.66813 18.185C1.3056 18.2495 1.06354 18.5981 1.12746 18.9637C1.19139 19.3293 1.53709 19.5735 1.89962 19.509L8.27541 18.3752C8.63794 18.3108 8.88 17.9621 8.81608 17.5965C8.75215 17.2309 8.40645 16.9868 8.04392 17.0513Z" fill="#0C2B50"/>
  <path d="M15.7558 21.1885L15.184 22.7732C15.0581 23.1221 14.6756 23.302 14.3296 23.1751C14.0589 23.0757 13.8909 22.8178 13.8909 22.5434C13.8909 22.467 13.9039 22.3894 13.9313 22.3135L14.5032 20.7288C14.5391 20.6292 14.5958 20.5434 14.6668 20.4746C15.0191 20.6393 15.394 20.763 15.7856 20.8393C15.8058 20.9525 15.7977 21.0727 15.7558 21.1885Z" fill="#0C2B50"/>
  <path d="M13.2853 24.1024L11.071 30.2377C10.9451 30.5866 11.1234 30.9723 11.4694 31.0993C11.8153 31.2263 12.1978 31.0464 12.3237 30.6975L14.538 24.5622C14.6639 24.2133 14.4855 23.8276 14.1396 23.7006C13.7937 23.5737 13.4112 23.7535 13.2853 24.1024Z" fill="#0C2B50"/>
  <path d="M21.6856 21.6754C21.5606 21.781 21.4087 21.8325 21.2575 21.8325C21.0673 21.8325 20.8784 21.751 20.7466 21.5926L19.6717 20.3006C19.604 20.2192 19.5587 20.1263 19.5352 20.0297C19.8565 19.8011 20.1493 19.5341 20.4069 19.2356C20.5146 19.2745 20.614 19.3417 20.6928 19.4365L21.7677 20.7283C22.0044 21.0127 21.9676 21.4367 21.6856 21.6754Z" fill="#0C2B50"/>
  <path d="M22.9819 22.1867C22.7452 21.9023 22.3248 21.8652 22.0428 22.1038C21.7608 22.3424 21.724 22.7664 21.9607 23.0508L26.1222 28.0524C26.3588 28.3368 26.7792 28.3739 27.0612 28.1353C27.3432 27.8966 27.38 27.4726 27.1434 27.1882L22.9819 22.1867Z" fill="#0C2B50"/>
  <path d="M24.0864 14.618C24.0864 14.9382 23.8589 15.2216 23.5355 15.2792L21.8888 15.5719C21.785 15.5904 21.6825 15.5836 21.5876 15.5557C21.5522 15.1533 21.4687 14.7649 21.3428 14.3964C21.4298 14.3221 21.5368 14.2694 21.6572 14.2479L23.304 13.9552C23.6666 13.8907 24.0122 14.1347 24.0762 14.5004C24.0831 14.5399 24.0864 14.5793 24.0864 14.618Z" fill="#0C2B50"/>
  <path d="M31.539 12.4907L25.1632 13.6245C24.8007 13.689 24.5587 14.0376 24.6226 14.4032C24.6865 14.7688 25.0322 15.0129 25.3947 14.9485L31.7705 13.8147C32.1331 13.7502 32.3751 13.4016 32.3112 13.036C32.2473 12.6704 31.9016 12.4263 31.539 12.4907Z" fill="#0C2B50"/>
  <path d="M19.5492 9.45685C19.5492 9.53321 19.5362 9.61083 19.5087 9.68671L18.9369 11.2714C18.901 11.371 18.8442 11.4568 18.7732 11.5256C18.421 11.3609 18.046 11.2373 17.6544 11.1609C17.6341 11.0477 17.6424 10.9276 17.6842 10.8117L18.2561 9.22699C18.382 8.87809 18.7645 8.69818 19.1104 8.82513C19.3811 8.92456 19.5492 9.18225 19.5492 9.45685Z" fill="#0C2B50"/>
  <path d="M21.1161 1.30234L18.9018 7.43768C18.7759 7.78653 18.9543 8.17227 19.3002 8.29924C19.6461 8.42621 20.0286 8.24634 20.1545 7.89749L22.3688 1.76215C22.4947 1.41329 22.3163 1.02755 21.9704 0.900582C21.6245 0.773609 21.242 0.95348 21.1161 1.30234Z" fill="#0C2B50"/>
  <path d="M17.1993 6.30135V10.7917C17.1993 10.8981 17.1748 10.9987 17.1313 11.088C16.9957 11.0764 16.8583 11.0706 16.7198 11.0706C16.4602 11.0706 16.2054 11.091 15.9568 11.1303C15.8993 11.0309 15.8662 10.9152 15.8662 10.7917V6.30135C15.8662 5.93015 16.1647 5.62915 16.5328 5.62915C16.7169 5.62915 16.8834 5.7044 17.0041 5.82613C17.1247 5.9477 17.1993 6.11575 17.1993 6.30135Z" fill="#0C2B50"/>
  <path d="M17.1995 0.672197C17.1995 0.300953 16.9011 0 16.533 0C16.1649 0 15.8665 0.300953 15.8665 0.672197V4.36295C15.8665 4.7342 16.1649 5.03515 16.533 5.03515C16.9011 5.03515 17.1995 4.7342 17.1995 4.36295V0.672197Z" fill="#0C2B50"/>
  <path d="M12.7076 13.1843C12.4844 13.5073 12.2985 13.8584 12.1563 14.2314C12.0424 14.2318 11.9267 14.2029 11.8209 14.1413L7.9649 11.8961C7.64621 11.7105 7.53695 11.2993 7.72098 10.9779C7.90502 10.6563 8.31275 10.5461 8.63144 10.7317L12.4874 12.9769C12.5786 13.03 12.6526 13.1017 12.7076 13.1843Z" fill="#0C2B50"/>
  <path d="M3.79749 7.91718C3.47869 7.73156 3.07104 7.84172 2.88698 8.16322C2.70292 8.48473 2.81215 8.89584 3.13095 9.08146L6.30034 10.9268C6.61914 11.1125 7.02679 11.0023 7.21085 10.6808C7.39491 10.3593 7.28568 9.94818 6.96688 9.76256L3.79749 7.91718Z" fill="#0C2B50"/>
  <path d="M12.9201 19.1006C12.8635 19.201 12.7806 19.2878 12.6743 19.3498L8.81832 21.5948C8.49948 21.7806 8.0919 21.6704 7.90787 21.3488C7.8472 21.2429 7.81836 21.1273 7.81836 21.0132C7.81836 20.781 7.93797 20.5551 8.15179 20.4306L12.0077 18.1855C12.0988 18.1323 12.1971 18.1036 12.2952 18.0969C12.4634 18.4575 12.6738 18.7943 12.9201 19.1006Z" fill="#0C2B50"/>
  <path d="M6.48686 21.3998L3.31747 23.2452C2.99867 23.4308 2.88944 23.8419 3.0735 24.1634C3.25756 24.4849 3.66521 24.5951 3.98401 24.4095L7.1534 22.5641C7.4722 22.3785 7.58143 21.9674 7.39737 21.6459C7.21331 21.3244 6.80566 21.2142 6.48686 21.3998Z" fill="#0C2B50"/>
  <path d="M17.5733 21.2083V25.6986C17.5733 26.0698 17.2748 26.3708 16.9068 26.3708C16.7226 26.3708 16.5561 26.2956 16.4354 26.1738C16.3149 26.0523 16.2402 25.8842 16.2402 25.6986V21.2083C16.2402 21.1019 16.2647 21.0013 16.3083 20.912C16.4439 20.9235 16.5812 20.9294 16.7198 20.9294C16.9794 20.9294 17.2341 20.909 17.4827 20.8696C17.5402 20.9691 17.5733 21.0848 17.5733 21.2083Z" fill="#0C2B50"/>
  <path d="M17.5733 27.637C17.5733 27.2658 17.2749 26.9648 16.9068 26.9648C16.5387 26.9648 16.2402 27.2658 16.2402 27.637V31.3278C16.2402 31.699 16.5387 32 16.9068 32C17.2749 32 17.5733 31.699 17.5733 31.3278V27.637Z" fill="#0C2B50"/>
  <path d="M25.7191 21.022C25.5956 21.2377 25.3715 21.3583 25.1411 21.3583C25.0281 21.3583 24.9135 21.3292 24.8086 21.2682L20.9525 19.023C20.8613 18.9699 20.7871 18.8983 20.7324 18.8156C20.9556 18.4926 21.1416 18.1415 21.2837 17.7686C21.3977 17.7681 21.5132 17.797 21.619 17.8587L25.4752 20.1039C25.7939 20.2895 25.9031 20.7006 25.7191 21.022Z" fill="#0C2B50"/>
  <path d="M27.1403 21.0732C26.8215 20.8876 26.4138 20.9977 26.2298 21.3192C26.0457 21.6407 26.1549 22.0518 26.4737 22.2375L29.6431 24.0828C29.9619 24.2685 30.3696 24.1583 30.5536 23.8368C30.7377 23.5153 30.6285 23.1042 30.3097 22.9186L27.1403 21.0732Z" fill="#0C2B50"/>
  <path d="M25.6213 10.987C25.6213 11.2193 25.5016 11.4452 25.2878 11.5696L21.4319 13.8148C21.3408 13.8679 21.2425 13.8967 21.1444 13.9033C20.9762 13.5427 20.7658 13.206 20.5195 12.8996C20.5761 12.7992 20.659 12.7124 20.7653 12.6505L24.6213 10.4054C24.9401 10.2197 25.3477 10.3299 25.5317 10.6514C25.5924 10.7573 25.6213 10.8729 25.6213 10.987Z" fill="#0C2B50"/>
  <path d="M29.4554 7.5905L26.286 9.43588C25.9672 9.6215 25.858 10.0326 26.042 10.3541C26.2261 10.6756 26.6337 10.7858 26.9525 10.6002L30.1219 8.75477C30.4407 8.56915 30.5499 8.15804 30.3659 7.83654C30.1818 7.51503 29.7742 7.40487 29.4554 7.5905Z" fill="#0C2B50"/>
</svg>