<svg width="38" height="39" viewBox="0 0 38 39" fill="none" xmlns="http://www.w3.org/2000/svg">
<path d="M17.1734 13.7004C16.7185 13.8279 16.2857 14.0115 15.8826 14.2437C15.7786 14.1541 15.6954 14.0356 15.6458 13.8942L13.3047 7.22238C13.1555 6.79715 13.3669 6.32703 13.7768 6.17232C13.866 6.1386 13.9572 6.1228 14.0467 6.1228C14.3694 6.1228 14.6723 6.32935 14.789 6.6619L17.1301 13.3337C17.1726 13.4551 17.1858 13.5802 17.1734 13.7004Z" fill="#34C347"/>
<path d="M13.0635 1.74435C12.9143 1.31919 12.4611 1.09997 12.0512 1.25472C11.6414 1.40946 11.43 1.87958 11.5792 2.30475L12.5215 4.99011C12.6707 5.41528 13.1239 5.63449 13.5338 5.47975C13.9436 5.325 14.155 4.85488 14.0058 4.42972L13.0635 1.74435Z" fill="#34C347"/>
<path d="M13.0889 17.9617C12.9723 18.4195 12.9065 18.8987 12.8983 19.3925C12.7711 19.4414 12.6301 19.457 12.4869 19.4308L5.74599 18.1979C5.31654 18.1193 5.02975 17.6945 5.10535 17.2488C5.17296 16.8515 5.50619 16.5718 5.88233 16.5718C5.92784 16.5718 5.9739 16.5758 6.02034 16.5843L12.7613 17.8172C12.8838 17.8396 12.9947 17.8902 13.0889 17.9617Z" fill="#34C347"/>
<path d="M1.05209 15.6756C0.622523 15.5971 0.21289 15.8946 0.137146 16.3402C0.0614024 16.7858 0.348231 17.2107 0.777794 17.2892L3.49093 17.7855C3.92049 17.864 4.33012 17.5665 4.40587 17.1209C4.48161 16.6754 4.19478 16.2504 3.76522 16.1719L1.05209 15.6756Z" fill="#34C347"/>
<path d="M15.7034 24.6492C15.6805 24.7875 15.6231 24.9214 15.5299 25.0368L11.1301 30.4757C10.8498 30.8223 10.3517 30.8676 10.0175 30.5767C9.83138 30.4147 9.73535 30.1825 9.73535 29.9488C9.73535 29.7628 9.79591 29.5761 9.92017 29.4226L14.3199 23.9837C14.4004 23.8842 14.4986 23.8097 14.6058 23.7607C14.9349 24.1004 15.3035 24.3991 15.7034 24.6492Z" fill="#34C347"/>
<path d="M6.67752 33.4315C6.39714 33.7781 6.44072 34.2949 6.77487 34.5857C7.10901 34.8765 7.60717 34.8313 7.88755 34.4847L9.65842 32.2956C9.9388 31.949 9.89522 31.4323 9.56108 31.1414C9.22693 30.8506 8.72877 30.8958 8.44839 31.2424L6.67752 33.4315Z" fill="#34C347"/>
<path d="M23.6012 32.828C23.5121 32.8617 23.4209 32.8775 23.3313 32.8775C23.0087 32.8775 22.7057 32.671 22.5891 32.3384L20.248 25.6666C20.2054 25.5452 20.1922 25.4202 20.2047 25.2999C20.6596 25.1724 21.0924 24.9888 21.4954 24.7566C21.5994 24.8462 21.6827 24.9647 21.7323 25.1061L24.0734 31.7779C24.2226 32.2032 24.0112 32.6733 23.6012 32.828Z" fill="#34C347"/>
<path d="M24.3144 37.2559C24.4636 37.6811 24.9168 37.9003 25.3267 37.7455C25.7366 37.5908 25.9479 37.1207 25.7987 36.6955L24.8565 34.0101C24.7073 33.585 24.2541 33.3658 23.8442 33.5205C23.4343 33.6752 23.223 34.1454 23.3721 34.5705L24.3144 37.2559Z" fill="#34C347"/>
<path d="M32.2724 21.7512C32.205 22.1485 31.8716 22.4283 31.4956 22.4283C31.4501 22.4283 31.4041 22.4242 31.3576 22.4158L24.6167 21.1829C24.4941 21.1605 24.3832 21.1098 24.2891 21.0384C24.4057 20.5806 24.4715 20.1014 24.4796 19.6076C24.6069 19.5586 24.7479 19.543 24.8911 19.5692L31.6318 20.8021C32.0614 20.8807 32.3482 21.3056 32.2724 21.7512Z" fill="#34C347"/>
<path d="M36.3258 23.3244C36.7554 23.4029 37.165 23.1054 37.2408 22.6598C37.3165 22.2142 37.0297 21.7893 36.6001 21.7108L33.887 21.2145C33.4574 21.136 33.0478 21.4335 32.9721 21.8791C32.8963 22.3246 33.1831 22.7495 33.6127 22.8281L36.3258 23.3244Z" fill="#34C347"/>
<path d="M27.6423 9.05159C27.6423 9.23752 27.5818 9.42422 27.4575 9.57778L23.0578 15.0167C22.9773 15.1161 22.8791 15.1907 22.7719 15.2396C22.4427 14.8999 22.0742 14.6013 21.6743 14.3512C21.6972 14.2129 21.7546 14.079 21.8478 13.9636L26.2476 8.52463C26.5279 8.17802 27.026 8.13274 27.3602 8.42367C27.5463 8.58571 27.6423 8.81788 27.6423 9.05159Z" fill="#34C347"/>
<path d="M30.7004 5.56846C30.9808 5.22186 30.9372 4.70512 30.6031 4.41429C30.2689 4.12346 29.7708 4.16867 29.4904 4.51527L27.7195 6.7044C27.4391 7.051 27.4827 7.56774 27.8169 7.85857C28.151 8.1494 28.6492 8.10419 28.9295 7.75759L30.7004 5.56846Z" fill="#34C347"/>
<path d="M15.3527 14.5888C14.9719 14.8674 14.625 15.1929 14.3198 15.5566C14.1922 15.5092 14.0744 15.4273 13.981 15.3117L12.7073 13.7374C12.4268 13.3908 12.4705 12.8741 12.8046 12.5831C12.9527 12.4544 13.1327 12.3916 13.3119 12.3916C13.5372 12.3916 13.761 12.491 13.9173 12.6841L15.1909 14.2586C15.2712 14.3578 15.3248 14.4711 15.3527 14.5888Z" fill="#77D4FD"/>
<path d="M7.54827 4.81071C7.26789 4.46411 6.76972 4.4189 6.43558 4.70973C6.10144 5.00056 6.05786 5.5173 6.33824 5.8639L11.2693 11.9596C11.5496 12.3062 12.0478 12.3514 12.3819 12.0606C12.7161 11.7697 12.7597 11.253 12.4793 10.9064L7.54827 4.81071Z" fill="#77D4FD"/>
<path d="M13.2114 21.4544C13.1083 21.5449 12.9814 21.6091 12.8388 21.6353L10.8875 21.9921C10.4579 22.0707 10.0483 21.7732 9.97252 21.3276C9.96435 21.2794 9.96045 21.2314 9.96045 21.1842C9.96045 20.7941 10.23 20.4486 10.6132 20.3785L12.5644 20.0217C12.6874 19.9991 12.8089 20.0074 12.9212 20.0415C12.9632 20.5318 13.0622 21.0052 13.2114 21.4544Z" fill="#77D4FD"/>
<path d="M8.40971 20.7814L0.854942 22.1632C0.425379 22.2417 0.13855 22.6666 0.214294 23.1122C0.290038 23.5578 0.699671 23.8553 1.12923 23.7767L8.68401 22.395C9.11357 22.3164 9.4004 21.8915 9.32465 21.4459C9.24891 21.0003 8.83928 20.7028 8.40971 20.7814Z" fill="#77D4FD"/>
<path d="M17.5467 25.8237L16.8691 27.7551C16.72 28.1803 16.2668 28.3995 15.8568 28.2448C15.536 28.1236 15.3369 27.8094 15.3369 27.4749C15.3369 27.3819 15.3523 27.2873 15.3848 27.1948L16.0624 25.2634C16.105 25.142 16.1722 25.0374 16.2564 24.9536C16.6737 25.1544 17.118 25.305 17.582 25.3981C17.606 25.5361 17.5963 25.6825 17.5467 25.8237Z" fill="#77D4FD"/>
<path d="M14.6195 29.375L11.9957 36.8525C11.8465 37.2776 12.0579 37.7478 12.4677 37.9025C12.8776 38.0573 13.3309 37.838 13.48 37.4129L16.1038 29.9354C16.253 29.5103 16.0416 29.0401 15.6317 28.8854C15.2219 28.7306 14.7686 28.9499 14.6195 29.375Z" fill="#77D4FD"/>
<path d="M24.5735 26.4169C24.4254 26.5456 24.2454 26.6084 24.0662 26.6084C23.8409 26.6084 23.617 26.509 23.4608 26.3159L22.1872 24.7414C22.1069 24.6422 22.0533 24.5289 22.0254 24.4111C22.4062 24.1325 22.7531 23.8071 23.0583 23.4434C23.1859 23.4908 23.3037 23.5726 23.3971 23.6882L24.6708 25.2626C24.9513 25.6092 24.9076 26.1259 24.5735 26.4169Z" fill="#77D4FD"/>
<path d="M26.1088 27.0402C25.8284 26.6936 25.3303 26.6484 24.9961 26.9392C24.662 27.2301 24.6184 27.7468 24.8988 28.0934L29.8298 34.1891C30.1102 34.5357 30.6084 34.5809 30.9425 34.29C31.2766 33.9992 31.3202 33.4825 31.0398 33.1359L26.1088 27.0402Z" fill="#77D4FD"/>
<path d="M27.4184 17.8158C27.4184 18.206 27.1489 18.5515 26.7657 18.6216L24.8144 18.9784C24.6915 19.001 24.57 18.9927 24.4576 18.9586C24.4156 18.4682 24.3166 17.9948 24.1675 17.5457C24.2706 17.4551 24.3974 17.391 24.5401 17.3648L26.4914 17.008C26.921 16.9293 27.3306 17.2268 27.4063 17.6725C27.4145 17.7206 27.4184 17.7686 27.4184 17.8158Z" fill="#77D4FD"/>
<path d="M36.2496 15.2233L28.6948 16.6051C28.2652 16.6836 27.9784 17.1085 28.0541 17.5541C28.1299 17.9997 28.5395 18.2972 28.9691 18.2186L36.5239 16.8369C36.9534 16.7583 37.2402 16.3334 37.1645 15.8878C37.0888 15.4422 36.6791 15.1447 36.2496 15.2233Z" fill="#77D4FD"/>
<path d="M22.0419 11.5253C22.0419 11.6184 22.0265 11.713 21.994 11.8055L21.3164 13.7368C21.2739 13.8582 21.2066 13.9628 21.1225 14.0466C20.7051 13.8459 20.2608 13.6952 19.7968 13.6021C19.7727 13.4642 19.7825 13.3178 19.8321 13.1765L20.5097 11.2452C20.6588 10.82 21.1121 10.6007 21.522 10.7554C21.8428 10.8766 22.0419 11.1907 22.0419 11.5253Z" fill="#77D4FD"/>
<path d="M23.8988 1.58719L21.275 9.06464C21.1258 9.48981 21.3372 9.95992 21.747 10.1147C22.1569 10.2694 22.6101 10.0502 22.7593 9.62503L25.3831 2.14758C25.5323 1.72242 25.3209 1.2523 24.911 1.09755C24.5012 0.942804 24.0479 1.16202 23.8988 1.58719Z" fill="#77D4FD"/>
<path d="M19.2573 7.68008V13.1527C19.2573 13.2824 19.2283 13.4049 19.1767 13.5138C19.016 13.4997 18.8533 13.4926 18.6891 13.4926C18.3815 13.4926 18.0797 13.5175 17.7851 13.5654C17.7169 13.4442 17.6777 13.3032 17.6777 13.1527V7.68008C17.6777 7.22769 18.0314 6.86084 18.4675 6.86084C18.6858 6.86084 18.883 6.95255 19.0261 7.10091C19.1689 7.24907 19.2573 7.45388 19.2573 7.68008Z" fill="#5498EE"/>
<path d="M19.2573 0.819239C19.2573 0.366786 18.9037 0 18.4675 0C18.0313 0 17.6777 0.366786 17.6777 0.819239V5.31735C17.6777 5.7698 18.0313 6.13659 18.4675 6.13659C18.9037 6.13659 19.2573 5.7698 19.2573 5.31735V0.819239Z" fill="#5498EE"/>
<path d="M13.9346 16.0687C13.6701 16.4623 13.4498 16.8902 13.2813 17.3448C13.1463 17.3453 13.0092 17.3101 12.8838 17.2349L8.31486 14.4986C7.93724 14.2724 7.80777 13.7713 8.02584 13.3796C8.24391 12.9877 8.72703 12.8534 9.10465 13.0796L13.6736 15.8159C13.7817 15.8806 13.8694 15.9679 13.9346 16.0687Z" fill="#5498EE"/>
<path d="M3.37661 9.6491C2.99885 9.42288 2.51582 9.55713 2.29773 9.94897C2.07963 10.3408 2.20906 10.8418 2.58681 11.0681L6.34227 13.3171C6.72002 13.5433 7.20305 13.4091 7.42115 13.0173C7.63924 12.6254 7.50982 12.1244 7.13206 11.8982L3.37661 9.6491Z" fill="#5498EE"/>
<path d="M14.1862 23.2787C14.1192 23.401 14.0209 23.5068 13.895 23.5823L9.32599 26.3185C8.94818 26.5449 8.46524 26.4106 8.24717 26.0187C8.17529 25.8896 8.14111 25.7487 8.14111 25.6096C8.14111 25.3266 8.28284 25.0513 8.5362 24.8996L13.1052 22.1633C13.2131 22.0986 13.3296 22.0635 13.4458 22.0554C13.6451 22.4949 13.8944 22.9053 14.1862 23.2787Z" fill="#5498EE"/>
<path d="M6.56395 26.0808L2.80849 28.3299C2.43074 28.5561 2.30131 29.0571 2.51941 29.449C2.7375 29.8408 3.22053 29.9751 3.59828 29.7488L7.35374 27.4998C7.73149 27.2736 7.86092 26.7725 7.64283 26.3807C7.42473 25.9889 6.9417 25.8546 6.56395 26.0808Z" fill="#5498EE"/>
<path d="M19.7007 25.8475V31.3202C19.7007 31.7726 19.347 32.1394 18.9109 32.1394C18.6926 32.1394 18.4954 32.0477 18.3523 31.8993C18.2095 31.7512 18.1211 31.5464 18.1211 31.3202V25.8475C18.1211 25.7178 18.1501 25.5953 18.2017 25.4865C18.3624 25.5005 18.5251 25.5076 18.6893 25.5076C18.9969 25.5076 19.2987 25.4828 19.5933 25.4348C19.6615 25.556 19.7007 25.697 19.7007 25.8475Z" fill="#5498EE"/>
<path d="M19.7007 33.6825C19.7007 33.2301 19.3471 32.8633 18.9109 32.8633C18.4747 32.8633 18.1211 33.2301 18.1211 33.6825V38.1806C18.1211 38.6331 18.4747 38.9999 18.9109 38.9999C19.3471 38.9999 19.7007 38.6331 19.7007 38.1806V33.6825Z" fill="#5498EE"/>
<path d="M29.3526 25.6207C29.2063 25.8835 28.9408 26.0305 28.6678 26.0305C28.5339 26.0305 28.3981 25.9951 28.2738 25.9207L23.7046 23.1844C23.5965 23.1196 23.5087 23.0324 23.4438 22.9316C23.7084 22.538 23.9286 22.11 24.0971 21.6555C24.2322 21.6549 24.369 21.6902 24.4944 21.7653L29.0636 24.5017C29.4412 24.7279 29.5707 25.229 29.3526 25.6207Z" fill="#5498EE"/>
<path d="M31.0363 25.683C30.6585 25.4568 30.1755 25.5911 29.9574 25.9829C29.7393 26.3747 29.8687 26.8758 30.2465 27.102L34.0019 29.3511C34.3797 29.5773 34.8627 29.443 35.0808 29.0512C35.2989 28.6594 35.1695 28.1583 34.7917 27.9321L31.0363 25.683Z" fill="#5498EE"/>
<path d="M29.237 13.3904C29.237 13.6734 29.0953 13.9487 28.8419 14.1004L24.2729 16.8367C24.165 16.9014 24.0486 16.9365 23.9323 16.9446C23.733 16.5051 23.4837 16.0947 23.1919 15.7213C23.2589 15.599 23.3572 15.4932 23.4831 15.4177L28.0521 12.6815C28.4299 12.4551 28.9129 12.5894 29.1309 12.9813C29.2028 13.1104 29.237 13.2513 29.237 13.3904Z" fill="#5498EE"/>
<path d="M33.7803 9.25099L30.0248 11.5C29.647 11.7263 29.5176 12.2273 29.7357 12.6192C29.9538 13.011 30.4368 13.1452 30.8146 12.919L34.5701 10.67C34.9478 10.4437 35.0772 9.94269 34.8591 9.55086C34.641 9.15902 34.158 9.02477 33.7803 9.25099Z" fill="#5498EE"/>
</svg>
