<svg xmlns="http://www.w3.org/2000/svg" width="16" height="16" viewBox="0 0 16 16" fill="none">
  <path d="M8.5 11V7H6.5V8H7.5V11H6V12H10V11H8.5Z" fill="#515967"/>
  <path d="M8 4C7.85166 4 7.70666 4.04399 7.58332 4.1264C7.45998 4.20881 7.36385 4.32595 7.30709 4.46299C7.25032 4.60004 7.23547 4.75084 7.26441 4.89632C7.29334 5.04181 7.36478 5.17544 7.46967 5.28033C7.57455 5.38522 7.70819 5.45665 7.85368 5.48559C7.99916 5.51453 8.14996 5.49968 8.28701 5.44291C8.42405 5.38615 8.54119 5.29002 8.6236 5.16668C8.70601 5.04334 8.75 4.89834 8.75 4.75C8.75 4.55109 8.67098 4.36033 8.53032 4.21967C8.38967 4.07902 8.19891 4 8 4Z" fill="#515967"/>
  <path d="M8 15C6.61553 15 5.26215 14.5895 4.111 13.8203C2.95986 13.0511 2.06265 11.9579 1.53284 10.6788C1.00303 9.3997 0.864402 7.99224 1.1345 6.63437C1.4046 5.2765 2.07128 4.02922 3.05025 3.05026C4.02922 2.07129 5.2765 1.4046 6.63436 1.13451C7.99223 0.86441 9.3997 1.00303 10.6788 1.53285C11.9579 2.06266 13.0511 2.95987 13.8203 4.11101C14.5895 5.26216 15 6.61553 15 8C15 9.85652 14.2625 11.637 12.9497 12.9497C11.637 14.2625 9.85651 15 8 15ZM8 2C6.81331 2 5.65327 2.3519 4.66657 3.01119C3.67988 3.67047 2.91084 4.60755 2.45672 5.7039C2.00259 6.80026 1.88377 8.00666 2.11528 9.17054C2.3468 10.3344 2.91824 11.4035 3.75735 12.2426C4.59647 13.0818 5.66557 13.6532 6.82945 13.8847C7.99334 14.1162 9.19974 13.9974 10.2961 13.5433C11.3925 13.0892 12.3295 12.3201 12.9888 11.3334C13.6481 10.3467 14 9.18669 14 8C14 6.4087 13.3679 4.88258 12.2426 3.75736C11.1174 2.63214 9.59129 2 8 2Z" fill="#515967"/>
</svg>