<svg xmlns="http://www.w3.org/2000/svg" width="100" height="27" viewBox="0 0 100 27" fill="none">
  <g clip-path="url(#clip0_554_19261)">
    <path d="M31.8105 4.20508H34.5518V18.8139H31.8105V4.20508Z" fill="white"/>
    <path d="M40.6964 19.0341C37.7351 19.0341 35.7539 16.6127 35.7539 13.8105C35.7539 11.0083 37.7351 8.58691 40.6964 8.58691C41.7777 8.58691 42.6776 8.96767 43.2576 9.52689V8.80702H45.9988V18.8125H43.2576V18.0718C42.6776 18.6519 41.7762 19.0326 40.6964 19.0326V19.0341ZM41.0965 16.5323C42.157 16.5323 42.798 16.0728 43.2576 15.4317V12.1699C42.798 11.5497 42.157 11.0887 41.0965 11.0887C39.6151 11.0887 38.5948 12.3291 38.5948 13.8105C38.5948 15.2919 39.6151 16.5323 41.0965 16.5323Z" fill="white"/>
    <path d="M52.9665 19.034C51.906 19.034 50.9853 18.6533 50.4053 18.0732V18.8139H47.6641V4.20508H50.4053V9.52829C50.9853 8.96757 51.906 8.58831 52.9665 8.58831C55.9278 8.58831 57.909 11.0097 57.909 13.8119C57.909 16.6141 55.9278 19.0355 52.9665 19.0355V19.034ZM52.5664 16.5323C54.0671 16.5323 55.0875 15.2918 55.0875 13.8104C55.0875 12.329 54.0671 11.0886 52.5664 11.0886C51.5059 11.0886 50.8648 11.5496 50.4053 12.1698V15.4316C50.8648 16.0727 51.5059 16.5323 52.5664 16.5323Z" fill="white"/>
    <path d="M64.1091 19.0341C61.1478 19.0341 58.8066 16.8328 58.8066 13.8105C58.8066 10.7882 61.1478 8.58691 64.1091 8.58691C66.1899 8.58691 67.9911 9.74702 68.8522 11.468L66.471 12.7485C66.0709 11.8278 65.2098 11.1482 64.1091 11.1482C62.6679 11.1482 61.5672 12.2681 61.5672 13.809C61.5672 15.3499 62.6679 16.4699 64.1091 16.4699C65.2098 16.4699 66.0709 15.7902 66.471 14.8695L68.8522 16.1501C67.9911 17.871 66.1914 19.0311 64.1091 19.0311V19.0341Z" fill="white"/>
    <path d="M74.6725 19.0341C71.7706 19.0341 69.4102 16.7332 69.4102 13.8105C69.4102 10.8878 71.7721 8.58691 74.6725 8.58691C77.5727 8.58691 79.9347 10.8878 79.9347 13.8105C79.9347 16.7332 77.5727 19.0341 74.6725 19.0341ZM74.6725 16.4714C76.1137 16.4714 77.1534 15.3514 77.1534 13.8105C77.1534 12.2696 76.1122 11.1497 74.6725 11.1497C73.2327 11.1497 72.1707 12.2696 72.1707 13.8105C72.1707 15.3514 73.2312 16.4714 74.6725 16.4714Z" fill="white"/>
    <path d="M88.5508 8.80702H91.292V9.52689C91.8719 8.96617 92.7928 8.58691 93.8527 8.58691C96.8144 8.58691 98.7952 11.0083 98.7952 13.8105C98.7952 16.6127 96.8144 19.0341 93.8527 19.0341C92.7928 19.0341 91.8719 18.6534 91.292 18.0733V22.696H88.5508V8.80702ZM93.4542 16.5323C94.955 16.5323 95.9758 15.2919 95.9758 13.8105C95.9758 12.3291 94.955 11.0887 93.4542 11.0887C92.3943 11.0887 91.7529 11.5497 91.2937 12.1699V15.4317C91.7529 16.0728 92.3943 16.5323 93.4542 16.5323Z" fill="white"/>
    <path d="M86.1901 8.68799C85.1485 8.68799 84.2084 9.28889 83.8682 10.0088V8.80844H81.127V18.8139H83.8682V12.622C85.1693 10.7331 87.3498 11.4961 87.3498 11.4961V8.86942C87.1302 8.78914 86.6893 8.68948 86.1901 8.68948V8.68799Z" fill="white"/>
    <path d="M13.7354 26.9886C10.7027 26.9886 7.77703 25.8776 5.38537 23.7953C2.61888 21.3337 0.90694 17.9753 0.563361 14.3387C0.218295 10.6961 1.29068 7.25443 3.58418 4.64859C8.29166 -0.563106 16.6372 -1.07624 22.1925 3.50332C27.7195 7.96241 28.4662 16.0283 23.894 21.8662C21.6763 24.7695 18.5173 26.5678 14.9996 26.9247C14.5772 26.9678 14.1548 26.9886 13.7354 26.9886ZM13.4245 0.879626C9.89651 0.879626 6.41313 2.26733 3.95899 4.98473C1.76069 7.48199 0.731432 10.7884 1.06311 14.2911C1.39628 17.7998 3.04873 21.0407 5.71704 23.4175C8.33182 25.6931 11.6115 26.7611 14.9491 26.4235C18.3268 26.0799 21.3625 24.3531 23.4969 21.5569C27.8995 15.9347 27.187 8.17659 21.8772 3.89301H21.8757C19.4231 1.8717 16.4081 0.879626 13.4245 0.879626Z" fill="white"/>
    <path d="M15.6282 22.2559C13.409 22.2559 11.2762 21.4498 9.53598 19.9357C5.30149 16.1652 4.69316 9.61197 8.20332 5.62433C11.6942 1.76018 17.8815 1.37942 22 4.77356C26.0977 8.07995 26.6525 14.0606 23.2628 18.3888C21.6103 20.5514 19.1666 21.945 16.5592 22.2098C16.2484 22.241 15.936 22.2574 15.6267 22.2574L15.6282 22.2559ZM15.5003 2.9575C12.9197 2.9575 10.3734 3.97188 8.57962 5.95898C5.24943 9.74133 5.83842 15.9703 9.86917 19.5594C11.7433 21.191 14.1021 21.9555 16.5102 21.7101C18.9792 21.4587 21.2965 20.1364 22.8656 18.081C26.0858 13.9684 25.5667 8.29562 21.6832 5.16325H21.6817C19.8895 3.68333 17.6837 2.9575 15.5018 2.9575H15.5003Z" fill="white"/>
    <path d="M16.8626 19.3199C15.1418 19.3199 13.4834 18.6892 12.1269 17.5053C8.86068 14.5901 8.40556 9.7131 11.1111 6.63275C13.7794 3.67143 18.5092 3.37991 21.6564 5.97832C24.7888 8.51128 25.2142 13.0938 22.6232 16.4092C21.3664 18.0586 19.5741 19.0804 17.5781 19.2827C17.3387 19.3065 17.1006 19.3184 16.8626 19.3184V19.3199ZM16.6902 4.70663C14.7506 4.70663 12.8364 5.47113 11.4873 6.96741C8.96484 9.83797 9.40061 14.3967 12.4601 17.1275C13.8954 18.3798 15.6951 18.9689 17.5275 18.7829C19.3837 18.5941 21.0511 17.6422 22.2246 16.1028C24.646 13.0031 24.2563 8.72843 21.3381 6.36949H21.3366C19.9891 5.25397 18.3292 4.70663 16.6902 4.70663Z" fill="white"/>
  </g>
  <defs>
    <clipPath id="clip0_554_19261">
      <rect width="99" height="26.6218" fill="white" transform="translate(0.5 0.37793)"/>
    </clipPath>
  </defs>
</svg>