<svg width="123" height="38" viewBox="0 0 123 38" fill="none" xmlns="http://www.w3.org/2000/svg">
<g clip-path="url(#clip0_59_5106)">
<path d="M51.1339 12.9916H54.1599V24.5471C54.1599 26.4249 53.5471 27.8571 52.3225 28.8441C51.0978 29.831 49.62 30.3249 47.8911 30.3249C46.5942 30.3249 45.4526 30.0739 44.4684 29.5721C43.4832 29.0703 42.7266 28.3344 42.198 27.3634L44.8408 25.8343C45.4487 26.9664 46.4975 27.5333 47.987 27.5333C48.9634 27.5333 49.7326 27.2744 50.2926 26.7569C50.8536 26.2383 51.1341 25.5022 51.1341 24.5471V23.2363C50.2211 24.4662 48.9398 25.0815 47.29 25.0815C45.6402 25.0815 44.1712 24.4789 43.0268 23.2729C41.8822 22.0679 41.3096 20.5989 41.3096 18.8663C41.3096 17.1338 41.8861 15.6865 43.0385 14.4725C44.1918 13.2584 45.609 12.6519 47.29 12.6519C48.971 12.6519 50.2211 13.2672 51.1341 14.4971V12.9916H51.1339ZM45.3566 21.2576C45.9889 21.8809 46.7934 22.1922 47.7708 22.1922C48.7481 22.1922 49.5515 21.8811 50.1849 21.2576C50.8172 20.6353 51.1339 19.8371 51.1339 18.8661C51.1339 17.8952 50.8172 17.1227 50.1849 16.4994C49.5515 15.8771 48.7472 15.5649 47.7708 15.5649C46.7943 15.5649 45.9891 15.8771 45.3566 16.4994C44.7243 17.1227 44.4076 17.9119 44.4076 18.8661C44.4076 19.8204 44.7243 20.6353 45.3566 21.2576Z" fill="#0E2E51"/>
<path d="M58.3872 20.3479C58.8036 21.8691 59.9324 22.6298 61.7737 22.6298C62.9582 22.6298 63.8555 22.2248 64.4635 21.4157L66.9616 22.8718C65.7771 24.6043 64.0314 25.4698 61.7258 25.4698C59.7398 25.4698 58.1466 24.8632 56.9454 23.6492C55.7442 22.4351 55.144 20.906 55.144 19.0608C55.144 17.2156 55.7364 15.7072 56.9218 14.4843C58.1063 13.2633 59.6272 12.6519 61.4852 12.6519C63.2465 12.6519 64.6998 13.2672 65.8453 14.4971C66.9898 15.7269 67.5625 17.2481 67.5625 19.0608C67.5625 19.4658 67.5224 19.8945 67.4423 20.3479H58.387H58.3872ZM58.3393 17.9198H64.4635C64.2876 17.094 63.9239 16.4795 63.3707 16.0746C62.8185 15.6706 62.1901 15.468 61.4854 15.468C60.6527 15.468 59.9636 15.6824 59.4203 16.111C58.8749 16.5398 58.5153 17.1422 58.3393 17.9196V17.9198Z" fill="#0E2E51"/>
<path d="M75.2008 12.6519C76.5135 12.6519 77.5982 13.0973 78.4555 13.9874C79.3116 14.8774 79.7406 16.1072 79.7406 17.6769V25.13H76.6424V18.0651C76.6424 17.2562 76.4254 16.6378 75.9934 16.208C75.5614 15.7793 74.9848 15.5651 74.2645 15.5651C73.463 15.5651 72.8229 15.8161 72.3429 16.3179C71.862 16.8197 71.6217 17.5725 71.6217 18.575V25.1302H68.5234V12.9916H71.6217V14.3508C72.3743 13.2188 73.5676 12.6519 75.2008 12.6519Z" fill="#0E2E51"/>
<path d="M83.8007 20.3479C84.2172 21.8691 85.346 22.6298 87.1873 22.6298C88.3718 22.6298 89.2691 22.2248 89.8771 21.4157L92.3752 22.8718C91.1906 24.6043 89.445 25.4698 87.1393 25.4698C85.1533 25.4698 83.5602 24.8632 82.359 23.6492C81.1578 22.4351 80.5576 20.906 80.5576 19.0608C80.5576 17.2156 81.15 15.7072 82.3354 14.4843C83.5199 13.2633 85.0408 12.6519 86.8988 12.6519C88.66 12.6519 90.1133 13.2672 91.2588 14.4971C92.4034 15.7269 92.976 17.2481 92.976 19.0608C92.976 19.4658 92.9359 19.8945 92.8559 20.3479H83.8006H83.8007ZM83.7528 17.9198H89.8771C89.7012 17.094 89.3375 16.4795 88.7843 16.0746C88.2321 15.6706 87.6037 15.468 86.899 15.468C86.0663 15.468 85.3772 15.6824 84.8339 16.111C84.2885 16.5398 83.9289 17.1422 83.7528 17.9196V17.9198Z" fill="#0E2E51"/>
<path d="M100.445 16.0015H97.7313V21.0513C97.7313 21.4722 97.8349 21.7803 98.0432 21.974C98.2514 22.1687 98.5553 22.2772 98.9561 22.302C99.3558 22.3256 99.8523 22.3226 100.446 22.2902V25.1302C98.3158 25.3731 96.8146 25.1707 95.9418 24.5236C95.069 23.8756 94.6321 22.7189 94.6321 21.0515V16.0017H92.5425V12.9918H94.6321V10.5401L97.7313 9.59277V12.9918H100.445V16.0017V16.0015Z" fill="#0E2E51"/>
<path d="M102.968 11.5345C102.455 11.5345 102.011 11.3449 101.635 10.9645C101.258 10.5842 101.07 10.1348 101.07 9.61718C101.07 9.09961 101.259 8.64624 101.635 8.25801C102.011 7.86884 102.455 7.67529 102.968 7.67529C103.481 7.67529 103.948 7.86884 104.324 8.25801C104.701 8.64624 104.889 9.09961 104.889 9.61718C104.889 10.1348 104.7 10.5842 104.324 10.9645C103.948 11.3449 103.496 11.5345 102.968 11.5345Z" fill="#5498EE"/>
<path d="M104.528 12.9915H101.43V25.1298H104.528V12.9915Z" fill="#0E2E51"/>
<path d="M123 16.6328C123 18.8336 122.312 20.7421 120.937 22.3592L122.664 24.1837L120.309 26.2957L118.483 24.3655C117.186 25.1023 115.777 25.4699 114.257 25.4699C111.839 25.4699 109.781 24.6165 108.084 22.9085C106.386 21.2016 105.538 19.1094 105.538 16.6328C105.538 14.1563 106.386 12.0651 108.084 10.3583C109.781 8.6503 111.839 7.79688 114.257 7.79688C116.675 7.79688 118.737 8.6503 120.441 10.3583C122.147 12.0651 123 14.1574 123 16.6328H123ZM114.265 22.1923C114.89 22.1923 115.516 22.0926 116.142 21.8931L113.368 18.9643L115.722 16.8523L118.662 19.956C119.344 18.986 119.685 17.8786 119.685 16.633C119.685 15.015 119.165 13.6804 118.124 12.6274C117.083 11.5763 115.794 11.0499 114.257 11.0499C112.719 11.0499 111.43 11.5765 110.389 12.6274C109.349 13.6804 108.829 15.015 108.829 16.633C108.829 18.2511 109.35 19.5629 110.392 20.615C111.434 21.667 112.725 22.1925 114.266 22.1925L114.265 22.1923Z" fill="#0E2E51"/>
<path d="M17.0484 13.3491C16.5935 13.4734 16.1607 13.6523 15.7576 13.8785C15.6536 13.7912 15.5704 13.6758 15.5208 13.538L13.1797 7.0372C13.0305 6.62288 13.2419 6.16482 13.6518 6.01407C13.741 5.98121 13.8322 5.96582 13.9217 5.96582C14.2444 5.96582 14.5473 6.16707 14.664 6.49109L17.0051 12.9918C17.0476 13.1101 17.0608 13.232 17.0484 13.3491Z" fill="#34C347"/>
<path d="M12.9385 1.69968C12.7893 1.28541 12.3361 1.07181 11.9262 1.22259C11.5164 1.37337 11.305 1.83143 11.4542 2.2457L12.3965 4.86221C12.5457 5.27647 12.9989 5.49007 13.4088 5.33929C13.8186 5.18851 14.03 4.73045 13.8808 4.31618L12.9385 1.69968Z" fill="#34C347"/>
<path d="M12.9639 17.5013C12.8473 17.9473 12.7815 18.4142 12.7733 18.8954C12.6461 18.943 12.5051 18.9582 12.3619 18.9327L5.62099 17.7314C5.19154 17.6548 4.90475 17.2409 4.98035 16.8067C5.04796 16.4196 5.38119 16.147 5.75733 16.147C5.80284 16.147 5.8489 16.1509 5.89534 16.1592L12.6363 17.3605C12.7588 17.3822 12.8697 17.4316 12.9639 17.5013Z" fill="#34C347"/>
<path d="M0.927086 15.2737C0.497523 15.1971 0.0878897 15.487 0.012146 15.9212C-0.0635976 16.3553 0.223231 16.7693 0.652794 16.8459L3.36593 17.3294C3.79549 17.406 4.20512 17.1161 4.28087 16.6819C4.35661 16.2477 4.06978 15.8337 3.64022 15.7572L0.927086 15.2737Z" fill="#34C347"/>
<path d="M15.5784 24.0172C15.5555 24.152 15.4981 24.2825 15.4049 24.395L11.0051 29.6944C10.7248 30.0322 10.2267 30.0763 9.8925 29.7928C9.70638 29.6349 9.61035 29.4087 9.61035 29.181C9.61035 28.9998 9.67091 28.8179 9.79517 28.6683L14.1949 23.3688C14.2754 23.2719 14.3736 23.1993 14.4808 23.1516C14.8099 23.4826 15.1785 23.7736 15.5784 24.0172Z" fill="#34C347"/>
<path d="M6.55252 32.5742C6.27214 32.912 6.31572 33.4154 6.64987 33.6988C6.98401 33.9822 7.48217 33.9381 7.76255 33.6004L9.53342 31.4674C9.8138 31.1297 9.77022 30.6262 9.43608 30.3429C9.10193 30.0595 8.60377 30.1035 8.32339 30.4412L6.55252 32.5742Z" fill="#34C347"/>
<path d="M23.4762 31.9863C23.3871 32.0191 23.2959 32.0345 23.2063 32.0345C22.8837 32.0345 22.5807 31.8333 22.4641 31.5092L20.123 25.0085C20.0804 24.8902 20.0672 24.7684 20.0797 24.6512C20.5346 24.5269 20.9674 24.348 21.3704 24.1218C21.4744 24.2091 21.5577 24.3246 21.6073 24.4624L23.9484 30.9631C24.0976 31.3775 23.8862 31.8355 23.4762 31.9863Z" fill="#34C347"/>
<path d="M24.1894 36.3006C24.3386 36.7148 24.7918 36.9284 25.2017 36.7777C25.6116 36.6269 25.8229 36.1688 25.6737 35.7545L24.7315 33.138C24.5823 32.7238 24.1291 32.5102 23.7192 32.661C23.3093 32.8117 23.098 33.2698 23.2471 33.6841L24.1894 36.3006Z" fill="#34C347"/>
<path d="M32.1474 21.1935C32.08 21.5806 31.7466 21.8532 31.3706 21.8532C31.3251 21.8532 31.2791 21.8492 31.2326 21.841L24.4917 20.6397C24.3691 20.6179 24.2582 20.5685 24.1641 20.4989C24.2807 20.0528 24.3465 19.586 24.3546 19.1048C24.4819 19.0571 24.6229 19.0419 24.7661 19.0674L31.5068 20.2687C31.9364 20.3453 32.2232 20.7593 32.1474 21.1935Z" fill="#34C347"/>
<path d="M36.2008 22.7263C36.6304 22.8029 37.04 22.513 37.1158 22.0788C37.1915 21.6447 36.9047 21.2307 36.4751 21.1541L33.762 20.6706C33.3324 20.594 32.9228 20.8839 32.8471 21.3181C32.7713 21.7523 33.0581 22.1663 33.4877 22.2428L36.2008 22.7263Z" fill="#34C347"/>
<path d="M27.5173 8.81939C27.5173 9.00055 27.4568 9.18246 27.3325 9.33209L22.9328 14.6316C22.8523 14.7284 22.7541 14.8011 22.6469 14.8488C22.3177 14.5178 21.9492 14.2268 21.5493 13.9831C21.5722 13.8483 21.6296 13.7179 21.7228 13.6054L26.1226 8.30595C26.4029 7.96822 26.901 7.9241 27.2352 8.20758C27.4213 8.36546 27.5173 8.59167 27.5173 8.81939Z" fill="#34C347"/>
<path d="M30.5754 5.42576C30.8558 5.08805 30.8122 4.58455 30.4781 4.30118C30.1439 4.01781 29.6458 4.06186 29.3654 4.39957L27.5945 6.53257C27.3141 6.87028 27.3577 7.37377 27.6919 7.65714C28.026 7.94052 28.5242 7.89647 28.8045 7.55876L30.5754 5.42576Z" fill="#34C347"/>
<path d="M15.2277 14.2149C14.8469 14.4863 14.5 14.8034 14.1948 15.1578C14.0672 15.1117 13.9494 15.0319 13.856 14.9192L12.5823 13.3853C12.3018 13.0475 12.3455 12.5441 12.6796 12.2606C12.8277 12.1352 13.0077 12.074 13.1869 12.074C13.4122 12.074 13.636 12.1708 13.7923 12.359L15.0659 13.8931C15.1462 13.9898 15.1998 14.1002 15.2277 14.2149Z" fill="#77D4FD"/>
<path d="M7.42327 4.68734C7.14289 4.34963 6.64472 4.30558 6.31058 4.58896C5.97644 4.87233 5.93286 5.37582 6.21324 5.71353L11.1443 11.6529C11.4246 11.9906 11.9228 12.0347 12.2569 11.7513C12.5911 11.4679 12.6347 10.9644 12.3543 10.6267L7.42327 4.68734Z" fill="#77D4FD"/>
<path d="M13.0864 20.9044C12.9833 20.9926 12.8564 21.0551 12.7138 21.0806L10.7625 21.4283C10.3329 21.5049 9.92331 21.2151 9.84752 20.7808C9.83935 20.7339 9.83545 20.6872 9.83545 20.6412C9.83545 20.261 10.105 19.9244 10.4882 19.8561L12.4394 19.5084C12.5624 19.4864 12.6839 19.4945 12.7962 19.5277C12.8382 20.0055 12.9372 20.4668 13.0864 20.9044Z" fill="#77D4FD"/>
<path d="M8.28471 20.2484L0.729942 21.5948C0.300379 21.6713 0.0135505 22.0853 0.0892942 22.5195C0.165038 22.9537 0.574671 23.2436 1.00423 23.167L8.55901 21.8207C8.98857 21.7441 9.2754 21.3301 9.19965 20.8959C9.12391 20.4618 8.71428 20.1719 8.28471 20.2484Z" fill="#77D4FD"/>
<path d="M17.4217 25.1615L16.7441 27.0433C16.595 27.4577 16.1418 27.6713 15.7318 27.5205C15.411 27.4025 15.2119 27.0963 15.2119 26.7704C15.2119 26.6797 15.2273 26.5875 15.2598 26.4974L15.9374 24.6156C15.98 24.4973 16.0472 24.3954 16.1314 24.3137C16.5487 24.5093 16.993 24.6561 17.457 24.7468C17.481 24.8812 17.4713 25.0239 17.4217 25.1615Z" fill="#77D4FD"/>
<path d="M14.4945 28.6219L11.8707 35.9076C11.7215 36.3219 11.9329 36.7799 12.3427 36.9307C12.7526 37.0815 13.2059 36.8679 13.355 36.4536L15.9788 29.1679C16.128 28.7537 15.9166 28.2956 15.5067 28.1448C15.0969 27.994 14.6436 28.2076 14.4945 28.6219Z" fill="#77D4FD"/>
<path d="M24.4485 25.7395C24.3004 25.8649 24.1204 25.9261 23.9412 25.9261C23.7159 25.9261 23.492 25.8293 23.3358 25.6412L22.0622 24.107C21.9819 24.0103 21.9283 23.9 21.9004 23.7853C22.2812 23.5138 22.6281 23.1967 22.9333 22.8423C23.0609 22.8885 23.1787 22.9683 23.2721 23.0809L24.5458 24.6148C24.8263 24.9526 24.7826 25.4561 24.4485 25.7395Z" fill="#77D4FD"/>
<path d="M25.9838 26.3468C25.7034 26.0091 25.2053 25.965 24.8711 26.2484C24.537 26.5318 24.4934 27.0352 24.7738 27.373L29.7048 33.3123C29.9852 33.65 30.4834 33.6941 30.8175 33.4107C31.1516 33.1273 31.1952 32.6239 30.9148 32.2861L25.9838 26.3468Z" fill="#77D4FD"/>
<path d="M27.2934 17.359C27.2934 17.7392 27.0239 18.0758 26.6407 18.1441L24.6894 18.4918C24.5665 18.5137 24.445 18.5057 24.3326 18.4724C24.2906 17.9947 24.1916 17.5334 24.0425 17.0958C24.1456 17.0076 24.2724 16.9451 24.4151 16.9195L26.3664 16.5718C26.796 16.4952 27.2056 16.7851 27.2813 17.2193C27.2895 17.2663 27.2934 17.313 27.2934 17.359Z" fill="#77D4FD"/>
<path d="M36.1246 14.8329L28.5698 16.1793C28.1402 16.2558 27.8534 16.6698 27.9291 17.104C28.0049 17.5381 28.4145 17.828 28.8441 17.7515L36.3989 16.4051C36.8284 16.3286 37.1152 15.9146 37.0395 15.4804C36.9638 15.0463 36.5541 14.7564 36.1246 14.8329Z" fill="#77D4FD"/>
<path d="M21.9169 11.2299C21.9169 11.3206 21.9015 11.4128 21.869 11.5029L21.1914 13.3847C21.1489 13.503 21.0816 13.6049 20.9975 13.6866C20.5801 13.4909 20.1358 13.3441 19.6718 13.2535C19.6477 13.119 19.6575 12.9764 19.7071 12.8388L20.3847 10.9569C20.5338 10.5426 20.9871 10.329 21.397 10.4797C21.7178 10.5978 21.9169 10.9038 21.9169 11.2299Z" fill="#77D4FD"/>
<path d="M23.7738 1.54646L21.15 8.83218C21.0008 9.24645 21.2122 9.70451 21.622 9.85529C22.0319 10.0061 22.4851 9.79247 22.6343 9.37821L25.2581 2.09249C25.4073 1.67822 25.1959 1.22016 24.786 1.06938C24.3762 0.918599 23.9229 1.1322 23.7738 1.54646Z" fill="#77D4FD"/>
<path d="M19.1323 7.48305V12.8154C19.1323 12.9417 19.1033 13.0611 19.0517 13.1672C18.891 13.1535 18.7283 13.1465 18.5641 13.1465C18.2565 13.1465 17.9547 13.1707 17.6601 13.2175C17.5919 13.0994 17.5527 12.962 17.5527 12.8154V7.48305C17.5527 7.04226 17.9064 6.68481 18.3425 6.68481C18.5608 6.68481 18.758 6.77417 18.9011 6.91873C19.0439 7.06309 19.1323 7.26265 19.1323 7.48305Z" fill="#5498EE"/>
<path d="M19.1323 0.798233C19.1323 0.357381 18.7787 0 18.3425 0C17.9063 0 17.5527 0.357381 17.5527 0.798233V5.18101C17.5527 5.62186 17.9063 5.97924 18.3425 5.97924C18.7787 5.97924 19.1323 5.62186 19.1323 5.18101V0.798233Z" fill="#5498EE"/>
<path d="M13.8096 15.6567C13.5451 16.0402 13.3248 16.4572 13.1563 16.9001C13.0213 16.9006 12.8842 16.8663 12.7588 16.7931L8.18986 14.1269C7.81224 13.9065 7.68277 13.4182 7.90084 13.0365C8.11891 12.6547 8.60203 12.5239 8.97965 12.7443L13.5486 15.4104C13.6567 15.4735 13.7444 15.5585 13.8096 15.6567Z" fill="#5498EE"/>
<path d="M3.25161 9.40179C2.87385 9.18136 2.39082 9.31217 2.17273 9.69396C1.95463 10.0758 2.08406 10.5639 2.46181 10.7844L6.21727 12.9758C6.59502 13.1962 7.07805 13.0654 7.29615 12.6836C7.51424 12.3018 7.38482 11.8136 7.00706 11.5932L3.25161 9.40179Z" fill="#5498EE"/>
<path d="M14.0612 22.6819C13.9942 22.8011 13.8959 22.9042 13.77 22.9778L9.20099 25.6437C8.82318 25.8643 8.34024 25.7335 8.12217 25.3516C8.05029 25.2258 8.01611 25.0886 8.01611 24.9531C8.01611 24.6773 8.15784 24.409 8.4112 24.2613L12.9802 21.5951C13.0881 21.532 13.2046 21.4979 13.3208 21.49C13.5201 21.9182 13.7694 22.3181 14.0612 22.6819Z" fill="#5498EE"/>
<path d="M6.43895 25.4122L2.68349 27.6036C2.30574 27.824 2.17631 28.3122 2.39441 28.694C2.6125 29.0758 3.09553 29.2066 3.47328 28.9861L7.22874 26.7948C7.60649 26.5743 7.73592 26.0861 7.51783 25.7044C7.29973 25.3226 6.8167 25.1918 6.43895 25.4122Z" fill="#5498EE"/>
<path d="M19.5757 25.1848V30.5172C19.5757 30.9579 19.222 31.3154 18.7859 31.3154C18.5676 31.3154 18.3704 31.226 18.2273 31.0815C18.0845 30.9371 17.9961 30.7376 17.9961 30.5172V25.1848C17.9961 25.0585 18.0251 24.9391 18.0767 24.833C18.2374 24.8467 18.4001 24.8537 18.5643 24.8537C18.8719 24.8537 19.1737 24.8295 19.4683 24.7827C19.5365 24.9008 19.5757 25.0382 19.5757 25.1848Z" fill="#5498EE"/>
<path d="M19.5757 32.819C19.5757 32.3781 19.2221 32.0208 18.7859 32.0208C18.3497 32.0208 17.9961 32.3781 17.9961 32.819V37.2018C17.9961 37.6426 18.3497 38 18.7859 38C19.2221 38 19.5757 37.6426 19.5757 37.2018V32.819Z" fill="#5498EE"/>
<path d="M29.2276 24.9639C29.0813 25.2199 28.8158 25.3632 28.5428 25.3632C28.4089 25.3632 28.2731 25.3286 28.1488 25.2562L23.5796 22.59C23.4715 22.5269 23.3837 22.4419 23.3188 22.3437C23.5834 21.9602 23.8036 21.5432 23.9721 21.1003C24.1072 21.0998 24.244 21.1341 24.3694 21.2074L28.9386 23.8735C29.3162 24.0939 29.4457 24.5822 29.2276 24.9639Z" fill="#5498EE"/>
<path d="M30.9113 25.0246C30.5335 24.8042 30.0505 24.935 29.8324 25.3168C29.6143 25.6986 29.7437 26.1867 30.1215 26.4072L33.8769 28.5986C34.2547 28.819 34.7377 28.6882 34.9558 28.3064C35.1739 27.9246 35.0445 27.4364 34.6667 27.216L30.9113 25.0246Z" fill="#5498EE"/>
<path d="M29.112 13.0471C29.112 13.3229 28.9703 13.5912 28.7169 13.7389L24.1479 16.4051C24.04 16.4681 23.9236 16.5023 23.8073 16.5102C23.608 16.082 23.3587 15.6821 23.0669 15.3183C23.1339 15.1991 23.2322 15.096 23.3581 15.0224L27.9271 12.3564C28.3049 12.1359 28.7879 12.2667 29.0059 12.6486C29.0778 12.7743 29.112 12.9116 29.112 13.0471Z" fill="#5498EE"/>
<path d="M33.6553 9.01374L29.8998 11.2051C29.522 11.4256 29.3926 11.9137 29.6107 12.2955C29.8288 12.6773 30.3118 12.8081 30.6896 12.5877L34.4451 10.3963C34.8228 10.1759 34.9522 9.68771 34.7341 9.30592C34.516 8.92413 34.033 8.79332 33.6553 9.01374Z" fill="#5498EE"/>
</g>
<defs>
<clipPath id="clip0_59_5106">
<rect width="123" height="38" fill="white"/>
</clipPath>
</defs>
</svg>
