<svg xmlns="http://www.w3.org/2000/svg" width="20" height="20" viewBox="0 0 20 20" fill="none">
  <g clip-path="url(#clip0_390_12267)">
    <path d="M10 19.3751C10.6904 19.3751 11.25 18.8155 11.25 18.1251C11.25 17.4348 10.6904 16.8751 10 16.8751C9.30964 16.8751 8.75 17.4348 8.75 18.1251C8.75 18.8155 9.30964 19.3751 10 19.3751Z" fill="#5188D1"/>
    <path d="M14.0625 18.7501H12.5V17.5001H14.0625C15.9579 17.5001 17.5 15.9581 17.5 14.0626C17.5 12.4605 16.4128 11.0849 14.8563 10.7171L15.1437 9.50056C17.267 10.0022 18.75 11.8782 18.75 14.0626C18.75 16.6473 16.6472 18.7501 14.0625 18.7501Z" fill="#5188D1"/>
    <path d="M12.7588 9.11631L10.8838 7.24131C10.6479 7.00512 10.3339 6.87512 10 6.87512C9.66613 6.87512 9.35213 7.00512 9.11606 7.24131L7.24119 9.11631C6.9975 9.35981 6.875 9.68 6.875 10.0001C6.875 10.3202 6.9975 10.6404 7.24119 10.8839L9.11606 12.7589C9.35213 12.9951 9.66613 13.1251 10 13.1251C10.3339 13.1251 10.6479 12.9951 10.8838 12.7589L12.7588 10.8839C13.0025 10.6404 13.125 10.3202 13.125 10.0001C13.125 9.68 13.0025 9.35987 12.7588 9.11631ZM10 11.8751L8.125 10.0001L10 8.12512L11.8749 10.0001L10 11.8751Z" fill="#5188D1"/>
    <path d="M10 3.12512C10.6904 3.12512 11.25 2.56548 11.25 1.87512C11.25 1.18477 10.6904 0.625122 10 0.625122C9.30964 0.625122 8.75 1.18477 8.75 1.87512C8.75 2.56548 9.30964 3.12512 10 3.12512Z" fill="#5188D1"/>
    <path d="M4.85625 10.4997C2.733 9.99806 1.25 8.12206 1.25 5.93762C1.25 3.35293 3.35281 1.25012 5.9375 1.25012H7.5V2.50012H5.9375C4.04206 2.50012 2.5 4.04218 2.5 5.93762C2.5 7.53975 3.58719 8.91543 5.14375 9.28312L4.85625 10.4997Z" fill="#5188D1"/>
  </g>
  <defs>
    <clipPath id="clip0_390_12267">
      <rect width="20" height="20" fill="white"/>
    </clipPath>
  </defs>
</svg>