<svg xmlns="http://www.w3.org/2000/svg" width="24" height="24" viewBox="0 0 24 24" fill="none">
<path d="M8.25 12.75C8.87132 12.75 9.375 12.2463 9.375 11.625C9.375 11.0037 8.87132 10.5 8.25 10.5C7.62868 10.5 7.125 11.0037 7.125 11.625C7.125 12.2463 7.62868 12.75 8.25 12.75Z" fill="#2F61A0"/>
<path d="M9 9H7.5V6H9C9.39783 6 9.77936 5.84197 10.0607 5.56066C10.342 5.27936 10.5 4.89783 10.5 4.5C10.5 4.10218 10.342 3.72064 10.0607 3.43934C9.77936 3.15804 9.39783 3 9 3H7.5C7.10232 3.00046 6.72105 3.15864 6.43985 3.43984C6.15864 3.72105 6.00046 4.10232 6 4.5V4.875H4.5V4.5C4.5009 3.70462 4.81725 2.94208 5.37967 2.37967C5.94208 1.81725 6.70463 1.50089 7.5 1.5H9C9.79565 1.5 10.5587 1.81607 11.1213 2.37868C11.6839 2.94129 12 3.70435 12 4.5C12 5.29565 11.6839 6.05871 11.1213 6.62132C10.5587 7.18393 9.79565 7.5 9 7.5V9Z" fill="#2F61A0"/>
<path d="M16.8359 15.7753C17.5861 14.8774 18.1362 13.8299 18.4495 12.7026C18.7628 11.5754 18.8321 10.3942 18.6528 9.23804C18.4734 8.08186 18.0496 6.97722 17.4095 5.99783C16.7694 5.01844 15.9278 4.18682 14.9408 3.55845L14.1916 4.85595C15.1695 5.49572 15.9645 6.37851 16.4987 7.41785C17.0329 8.4572 17.2881 9.61748 17.2391 10.7851C17.1902 11.9526 16.8389 13.0875 16.2195 14.0785C15.6002 15.0695 14.7341 15.8826 13.7061 16.4383C12.678 16.994 11.5233 17.2732 10.355 17.2485C9.18663 17.2238 8.04472 16.8961 7.04109 16.2975C6.03745 15.6988 5.20649 14.8498 4.62957 13.8336C4.05266 12.8173 3.74958 11.6686 3.75 10.5H2.25C2.2488 12.0679 2.69472 13.6035 3.53546 14.9269C4.3762 16.2503 5.57688 17.3065 6.99668 17.9716C8.41647 18.6366 9.99648 18.8831 11.5514 18.6819C13.1063 18.4807 14.5716 17.8404 15.7754 16.8359L21.4394 22.5L22.5 21.4394L16.8359 15.7753Z" fill="#2F61A0"/>
</svg>