<svg xmlns="http://www.w3.org/2000/svg" width="44" height="53" viewBox="0 0 44 53" fill="none">
  <path d="M0.0842649 9.75152C0.0793455 9.76221 0.0700356 9.77046 0.0655394 9.78136C0.0577106 9.80051 0.0589272 9.82124 0.0525267 9.84076C0.0294637 9.91048 0.0158162 9.98099 0.0109497 10.0543C0.00968019 10.0734 0 10.0914 0 10.1105V45.2024C0 45.681 0.388052 46.069 0.866665 46.069H30.836V47.2332C30.836 50.2195 33.2659 52.6494 36.2522 52.6494C39.239 52.6494 41.6689 50.2195 41.6689 47.2332V29.2267C42.5974 28.9488 43.2803 28.0966 43.2803 27.0786V26.9114C43.2803 25.6694 42.2702 24.6593 41.0286 24.6593H40.845L41.5191 19.8799C41.5542 19.6315 41.4797 19.3797 41.3151 19.1906C41.1505 19.001 40.9118 18.8922 40.6609 18.8922H37.1189V1.5162C37.1189 1.03759 36.7308 0.649536 36.2522 0.649536H9.46095C9.44275 0.649536 9.42566 0.658846 9.40747 0.659957C9.33209 0.664665 9.25952 0.678682 9.188 0.702698C9.16954 0.708887 9.14991 0.70767 9.13182 0.715076C9.1214 0.71936 9.11363 0.728247 9.10336 0.732902C9.01069 0.775219 8.92262 0.828592 8.84777 0.903442L0.253906 9.49773C0.179585 9.57205 0.126424 9.65948 0.0842649 9.75152ZM8.59386 3.60881V9.24382H2.95885L8.59386 3.60881ZM39.9356 47.2332C39.9356 49.264 38.2831 50.9161 36.2522 50.9161C34.2214 50.9161 32.5693 49.264 32.5693 47.2332V29.3307H39.9356V47.2332ZM41.547 26.9114V27.0786C41.547 27.3646 41.3143 27.5974 41.0286 27.5974H31.4763C31.1906 27.5974 30.9579 27.3646 30.9579 27.0786V26.9114C30.9579 26.6254 31.1906 26.3926 31.4763 26.3926H41.0286C41.3143 26.3926 41.547 26.6254 41.547 26.9114ZM39.0947 24.6593H33.4102L32.8414 20.6256H39.6634L39.0947 24.6593ZM35.3856 18.8922H31.844C31.5931 18.8922 31.3544 19.001 31.1898 19.1906C31.0252 19.3797 30.9507 19.6315 30.9858 19.8799L31.6599 24.6593H31.4763C30.2347 24.6593 29.2245 25.6694 29.2245 26.9114V27.0786C29.2245 28.0966 29.9075 28.9488 30.836 29.2267V44.3357H1.73333V10.9771H9.46052C9.93914 10.9771 10.3272 10.5891 10.3272 10.1105V2.38287H35.3856V18.8922Z" fill="#84B8F9"/>
  <path d="M9.33261 15.5094L8.32122 14.4976C7.98268 14.159 7.43424 14.159 7.0957 14.4976C6.75716 14.8357 6.75716 15.3845 7.0957 15.7231L8.71985 17.3476C8.88235 17.5101 9.10283 17.6016 9.33261 17.6016C9.5624 17.6016 9.78287 17.5101 9.94537 17.3476L13.1251 14.1679C13.4637 13.8294 13.4637 13.2809 13.1251 12.9424C12.7866 12.6038 12.2381 12.6038 11.8996 12.9424L9.33261 15.5094Z" fill="#84B8F9"/>
  <path d="M16.8322 16.0116H29.412C29.8906 16.0116 30.2787 15.6236 30.2787 15.145C30.2787 14.6664 29.8906 14.2783 29.412 14.2783H16.8322C16.3536 14.2783 15.9656 14.6664 15.9656 15.145C15.9656 15.6236 16.3536 16.0116 16.8322 16.0116Z" fill="#84B8F9"/>
  <path d="M11.8996 19.8181L9.33261 22.3847L8.32122 21.3733C7.98268 21.0347 7.43424 21.0347 7.0957 21.3733C6.75716 21.7118 6.75716 22.2603 7.0957 22.5988L8.71985 24.223C8.88912 24.3922 9.11087 24.4769 9.33261 24.4769C9.55436 24.4769 9.7761 24.3922 9.94537 24.223L13.1251 21.0436C13.4637 20.7055 13.4637 20.1567 13.1251 19.8181C12.7866 19.4796 12.2381 19.4796 11.8996 19.8181Z" fill="#84B8F9"/>
  <path d="M16.8322 22.8874H26.5111C26.9897 22.8874 27.3778 22.4993 27.3778 22.0207C27.3778 21.5421 26.9897 21.1541 26.5111 21.1541H16.8322C16.3536 21.1541 15.9656 21.5421 15.9656 22.0207C15.9656 22.4993 16.3536 22.8874 16.8322 22.8874Z" fill="#84B8F9"/>
  <path d="M11.8996 26.6935L9.33261 29.2605L8.32122 28.2487C7.98268 27.9101 7.43424 27.9101 7.0957 28.2487C6.75716 28.5868 6.75716 29.1356 7.0957 29.4742L8.71985 31.0987C8.88235 31.2612 9.10283 31.3526 9.33261 31.3526C9.5624 31.3526 9.78287 31.2612 9.94537 31.0987L13.1251 27.919C13.4637 27.5805 13.4637 27.032 13.1251 26.6935C12.7866 26.3549 12.2381 26.3549 11.8996 26.6935Z" fill="#84B8F9"/>
  <path d="M16.8322 29.7627H26.5111C26.9897 29.7627 27.3778 29.3747 27.3778 28.8961C27.3778 28.4175 26.9897 28.0294 26.5111 28.0294H16.8322C16.3536 28.0294 15.9656 28.4175 15.9656 28.8961C15.9656 29.3747 16.3536 29.7627 16.8322 29.7627Z" fill="#84B8F9"/>
  <path d="M11.8996 33.5692L9.33261 36.1358L8.32122 35.1244C7.98268 34.7858 7.43424 34.7858 7.0957 35.1244C6.75716 35.4629 6.75716 36.0114 7.0957 36.3499L8.71985 37.9741C8.88912 38.1433 9.11087 38.228 9.33261 38.228C9.55436 38.228 9.7761 38.1433 9.94537 37.9741L13.1251 34.7947C13.4637 34.4566 13.4637 33.9078 13.1251 33.5692C12.7866 33.2307 12.2381 33.2307 11.8996 33.5692Z" fill="#84B8F9"/>
  <path d="M16.8322 36.6386H26.5111C26.9897 36.6386 27.3778 36.2506 27.3778 35.7719C27.3778 35.2933 26.9897 34.9053 26.5111 34.9053H16.8322C16.3536 34.9053 15.9656 35.2933 15.9656 35.7719C15.9656 36.2506 16.3536 36.6386 16.8322 36.6386Z" fill="#84B8F9"/>
</svg>