<svg xmlns="http://www.w3.org/2000/svg" width="24" height="24" viewBox="0 0 24 24" fill="none">
<path d="M12 9.75008L8.25001 13.5001L9.30751 14.5576L11.25 12.6226V21.0001H4.50001V22.5001H11.25C11.6478 22.5001 12.0294 22.342 12.3107 22.0607C12.592 21.7794 12.75 21.3979 12.75 21.0001V12.6226L14.6925 14.5576L15.75 13.5001L12 9.75008Z" fill="#2F61A0"/>
<path d="M17.625 16.5001H17.25V15.0001H17.625C18.4967 15.0004 19.3347 14.6633 19.9633 14.0594C20.5919 13.4555 20.9623 12.6317 20.9968 11.7607C21.0314 10.8897 20.7274 10.0391 20.1487 9.38732C19.5699 8.73551 18.7613 8.33305 17.8923 8.26433L17.2808 8.2164L17.2068 7.6074C17.0511 6.33621 16.4357 5.16592 15.4766 4.31717C14.5175 3.46843 13.2811 2.99989 12.0004 2.99989C10.7197 2.99989 9.48324 3.46843 8.52418 4.31717C7.56511 5.16592 6.94969 6.33621 6.79396 7.6074L6.71963 8.2164L6.10801 8.26433C5.23906 8.33305 4.43045 8.73548 3.85169 9.38727C3.27293 10.0391 2.96894 10.8896 3.00347 11.7606C3.03799 12.6315 3.40834 13.4553 4.03688 14.0593C4.66542 14.6632 5.50335 15.0003 6.37501 15.0001H6.75001V16.5001H6.37501C5.16707 16.5006 4.00199 16.0525 3.10576 15.2426C2.20953 14.4327 1.64604 13.3189 1.52458 12.1171C1.40313 10.9152 1.73237 9.71116 2.44845 8.73836C3.16452 7.76555 4.21639 7.09338 5.40001 6.85223C5.7196 5.33851 6.54978 3.98065 7.75143 3.00621C8.95307 2.03178 10.4531 1.5 12.0002 1.5C13.5473 1.5 15.0474 2.03178 16.249 3.00621C17.4507 3.98065 18.2809 5.33851 18.6005 6.85223C19.784 7.09355 20.8357 7.76581 21.5516 8.73863C22.2676 9.71144 22.5967 10.9155 22.4752 12.1172C22.3537 13.319 21.7902 14.4327 20.894 15.2426C19.9979 16.0524 18.8329 16.5005 17.625 16.5001Z" fill="#2F61A0"/>
</svg>