<svg width="38" height="38" viewBox="0 0 38 38" fill="none" xmlns="http://www.w3.org/2000/svg">
<path d="M17.1734 13.3491C16.7185 13.4734 16.2857 13.6523 15.8826 13.8785C15.7786 13.7912 15.6954 13.6758 15.6458 13.538L13.3047 7.0372C13.1555 6.62288 13.3669 6.16482 13.7768 6.01407C13.866 5.98121 13.9572 5.96582 14.0467 5.96582C14.3694 5.96582 14.6723 6.16707 14.789 6.49109L17.1301 12.9918C17.1726 13.1101 17.1858 13.232 17.1734 13.3491Z" fill="#34C347"/>
<path d="M13.0635 1.69968C12.9143 1.28541 12.4611 1.07181 12.0512 1.22259C11.6414 1.37337 11.43 1.83143 11.5792 2.2457L12.5215 4.86221C12.6707 5.27647 13.1239 5.49007 13.5338 5.33929C13.9436 5.18851 14.155 4.73045 14.0058 4.31618L13.0635 1.69968Z" fill="#34C347"/>
<path d="M13.0889 17.5013C12.9723 17.9473 12.9065 18.4142 12.8983 18.8954C12.7711 18.943 12.6301 18.9582 12.4869 18.9327L5.74599 17.7314C5.31654 17.6548 5.02975 17.2409 5.10535 16.8067C5.17296 16.4196 5.50619 16.147 5.88233 16.147C5.92784 16.147 5.9739 16.1509 6.02034 16.1592L12.7613 17.3605C12.8838 17.3822 12.9947 17.4316 13.0889 17.5013Z" fill="#34C347"/>
<path d="M1.05209 15.2737C0.622523 15.1971 0.21289 15.487 0.137146 15.9212C0.0614024 16.3553 0.348231 16.7693 0.777794 16.8459L3.49093 17.3294C3.92049 17.406 4.33012 17.1161 4.40587 16.6819C4.48161 16.2477 4.19478 15.8337 3.76522 15.7572L1.05209 15.2737Z" fill="#34C347"/>
<path d="M15.7034 24.0172C15.6805 24.152 15.6231 24.2825 15.5299 24.395L11.1301 29.6944C10.8498 30.0322 10.3517 30.0763 10.0175 29.7928C9.83138 29.6349 9.73535 29.4087 9.73535 29.181C9.73535 28.9998 9.79591 28.8179 9.92017 28.6683L14.3199 23.3688C14.4004 23.2719 14.4986 23.1993 14.6058 23.1516C14.9349 23.4826 15.3035 23.7736 15.7034 24.0172Z" fill="#34C347"/>
<path d="M6.67752 32.5742C6.39714 32.912 6.44072 33.4154 6.77487 33.6988C7.10901 33.9822 7.60717 33.9381 7.88755 33.6004L9.65842 31.4674C9.9388 31.1297 9.89522 30.6262 9.56108 30.3429C9.22693 30.0595 8.72877 30.1035 8.44839 30.4412L6.67752 32.5742Z" fill="#34C347"/>
<path d="M23.6012 31.9863C23.5121 32.0191 23.4209 32.0345 23.3313 32.0345C23.0087 32.0345 22.7057 31.8333 22.5891 31.5092L20.248 25.0085C20.2054 24.8902 20.1922 24.7684 20.2047 24.6512C20.6596 24.5269 21.0924 24.348 21.4954 24.1218C21.5994 24.2091 21.6827 24.3246 21.7323 24.4624L24.0734 30.9631C24.2226 31.3775 24.0112 31.8355 23.6012 31.9863Z" fill="#34C347"/>
<path d="M24.3144 36.3006C24.4636 36.7148 24.9168 36.9284 25.3267 36.7777C25.7366 36.6269 25.9479 36.1688 25.7987 35.7545L24.8565 33.138C24.7073 32.7238 24.2541 32.5102 23.8442 32.661C23.4343 32.8117 23.223 33.2698 23.3721 33.6841L24.3144 36.3006Z" fill="#34C347"/>
<path d="M32.2724 21.1935C32.205 21.5806 31.8716 21.8532 31.4956 21.8532C31.4501 21.8532 31.4041 21.8492 31.3576 21.841L24.6167 20.6397C24.4941 20.6179 24.3832 20.5685 24.2891 20.4989C24.4057 20.0528 24.4715 19.586 24.4796 19.1048C24.6069 19.0571 24.7479 19.0419 24.8911 19.0674L31.6318 20.2687C32.0614 20.3453 32.3482 20.7593 32.2724 21.1935Z" fill="#34C347"/>
<path d="M36.3258 22.7263C36.7554 22.8029 37.165 22.513 37.2408 22.0788C37.3165 21.6447 37.0297 21.2307 36.6001 21.1541L33.887 20.6706C33.4574 20.594 33.0478 20.8839 32.9721 21.3181C32.8963 21.7523 33.1831 22.1663 33.6127 22.2428L36.3258 22.7263Z" fill="#34C347"/>
<path d="M27.6423 8.81939C27.6423 9.00055 27.5818 9.18246 27.4575 9.33209L23.0578 14.6316C22.9773 14.7284 22.8791 14.8011 22.7719 14.8488C22.4427 14.5178 22.0742 14.2268 21.6743 13.9831C21.6972 13.8483 21.7546 13.7179 21.8478 13.6054L26.2476 8.30595C26.5279 7.96822 27.026 7.9241 27.3602 8.20758C27.5463 8.36546 27.6423 8.59167 27.6423 8.81939Z" fill="#34C347"/>
<path d="M30.7004 5.42576C30.9808 5.08805 30.9372 4.58455 30.6031 4.30118C30.2689 4.01781 29.7708 4.06186 29.4904 4.39957L27.7195 6.53257C27.4391 6.87028 27.4827 7.37377 27.8169 7.65714C28.151 7.94052 28.6492 7.89647 28.9295 7.55876L30.7004 5.42576Z" fill="#34C347"/>
<path d="M15.3527 14.2149C14.9719 14.4863 14.625 14.8034 14.3198 15.1578C14.1922 15.1117 14.0744 15.0319 13.981 14.9192L12.7073 13.3853C12.4268 13.0475 12.4705 12.5441 12.8046 12.2606C12.9527 12.1352 13.1327 12.074 13.3119 12.074C13.5372 12.074 13.761 12.1708 13.9173 12.359L15.1909 13.8931C15.2712 13.9898 15.3248 14.1002 15.3527 14.2149Z" fill="#77D4FD"/>
<path d="M7.54827 4.68734C7.26789 4.34963 6.76972 4.30558 6.43558 4.58896C6.10144 4.87233 6.05786 5.37582 6.33824 5.71353L11.2693 11.6529C11.5496 11.9906 12.0478 12.0347 12.3819 11.7513C12.7161 11.4679 12.7597 10.9644 12.4793 10.6267L7.54827 4.68734Z" fill="#77D4FD"/>
<path d="M13.2114 20.9044C13.1083 20.9926 12.9814 21.0551 12.8388 21.0806L10.8875 21.4283C10.4579 21.5049 10.0483 21.2151 9.97252 20.7808C9.96435 20.7339 9.96045 20.6872 9.96045 20.6412C9.96045 20.261 10.23 19.9244 10.6132 19.8561L12.5644 19.5084C12.6874 19.4864 12.8089 19.4945 12.9212 19.5277C12.9632 20.0055 13.0622 20.4668 13.2114 20.9044Z" fill="#77D4FD"/>
<path d="M8.40971 20.2484L0.854942 21.5948C0.425379 21.6713 0.13855 22.0853 0.214294 22.5195C0.290038 22.9537 0.699671 23.2436 1.12923 23.167L8.68401 21.8207C9.11357 21.7441 9.4004 21.3301 9.32465 20.8959C9.24891 20.4618 8.83928 20.1719 8.40971 20.2484Z" fill="#77D4FD"/>
<path d="M17.5467 25.1615L16.8691 27.0433C16.72 27.4577 16.2668 27.6713 15.8568 27.5205C15.536 27.4025 15.3369 27.0963 15.3369 26.7704C15.3369 26.6797 15.3523 26.5875 15.3848 26.4974L16.0624 24.6156C16.105 24.4973 16.1722 24.3954 16.2564 24.3137C16.6737 24.5093 17.118 24.6561 17.582 24.7468C17.606 24.8812 17.5963 25.0239 17.5467 25.1615Z" fill="#77D4FD"/>
<path d="M14.6195 28.6219L11.9957 35.9076C11.8465 36.3219 12.0579 36.7799 12.4677 36.9307C12.8776 37.0815 13.3309 36.8679 13.48 36.4536L16.1038 29.1679C16.253 28.7537 16.0416 28.2956 15.6317 28.1448C15.2219 27.994 14.7686 28.2076 14.6195 28.6219Z" fill="#77D4FD"/>
<path d="M24.5735 25.7395C24.4254 25.8649 24.2454 25.9261 24.0662 25.9261C23.8409 25.9261 23.617 25.8293 23.4608 25.6412L22.1872 24.107C22.1069 24.0103 22.0533 23.9 22.0254 23.7853C22.4062 23.5138 22.7531 23.1967 23.0583 22.8423C23.1859 22.8885 23.3037 22.9683 23.3971 23.0809L24.6708 24.6148C24.9513 24.9526 24.9076 25.4561 24.5735 25.7395Z" fill="#77D4FD"/>
<path d="M26.1088 26.3468C25.8284 26.0091 25.3303 25.965 24.9961 26.2484C24.662 26.5318 24.6184 27.0352 24.8988 27.373L29.8298 33.3123C30.1102 33.65 30.6084 33.6941 30.9425 33.4107C31.2766 33.1273 31.3202 32.6239 31.0398 32.2861L26.1088 26.3468Z" fill="#77D4FD"/>
<path d="M27.4184 17.359C27.4184 17.7392 27.1489 18.0758 26.7657 18.1441L24.8144 18.4918C24.6915 18.5137 24.57 18.5057 24.4576 18.4724C24.4156 17.9947 24.3166 17.5334 24.1675 17.0958C24.2706 17.0076 24.3974 16.9451 24.5401 16.9195L26.4914 16.5718C26.921 16.4952 27.3306 16.7851 27.4063 17.2193C27.4145 17.2663 27.4184 17.313 27.4184 17.359Z" fill="#77D4FD"/>
<path d="M36.2496 14.8329L28.6948 16.1793C28.2652 16.2558 27.9784 16.6698 28.0541 17.104C28.1299 17.5381 28.5395 17.828 28.9691 17.7515L36.5239 16.4051C36.9534 16.3286 37.2402 15.9146 37.1645 15.4804C37.0888 15.0463 36.6791 14.7564 36.2496 14.8329Z" fill="#77D4FD"/>
<path d="M22.0419 11.2299C22.0419 11.3206 22.0265 11.4128 21.994 11.5029L21.3164 13.3847C21.2739 13.503 21.2066 13.6049 21.1225 13.6866C20.7051 13.4909 20.2608 13.3441 19.7968 13.2535C19.7727 13.119 19.7825 12.9764 19.8321 12.8388L20.5097 10.9569C20.6588 10.5426 21.1121 10.329 21.522 10.4797C21.8428 10.5978 22.0419 10.9038 22.0419 11.2299Z" fill="#77D4FD"/>
<path d="M23.8988 1.54646L21.275 8.83218C21.1258 9.24645 21.3372 9.70451 21.747 9.85529C22.1569 10.0061 22.6101 9.79247 22.7593 9.37821L25.3831 2.09249C25.5323 1.67822 25.3209 1.22016 24.911 1.06938C24.5012 0.918599 24.0479 1.1322 23.8988 1.54646Z" fill="#77D4FD"/>
<path d="M19.2573 7.48305V12.8154C19.2573 12.9417 19.2283 13.0611 19.1767 13.1672C19.016 13.1535 18.8533 13.1465 18.6891 13.1465C18.3815 13.1465 18.0797 13.1707 17.7851 13.2175C17.7169 13.0994 17.6777 12.962 17.6777 12.8154V7.48305C17.6777 7.04226 18.0314 6.68481 18.4675 6.68481C18.6858 6.68481 18.883 6.77417 19.0261 6.91873C19.1689 7.06309 19.2573 7.26265 19.2573 7.48305Z" fill="#5498EE"/>
<path d="M19.2573 0.798233C19.2573 0.357381 18.9037 0 18.4675 0C18.0313 0 17.6777 0.357381 17.6777 0.798233V5.18101C17.6777 5.62186 18.0313 5.97924 18.4675 5.97924C18.9037 5.97924 19.2573 5.62186 19.2573 5.18101V0.798233Z" fill="#5498EE"/>
<path d="M13.9346 15.6567C13.6701 16.0402 13.4498 16.4572 13.2813 16.9001C13.1463 16.9006 13.0092 16.8663 12.8838 16.7931L8.31486 14.1269C7.93724 13.9065 7.80777 13.4182 8.02584 13.0365C8.24391 12.6547 8.72703 12.5239 9.10465 12.7443L13.6736 15.4104C13.7817 15.4735 13.8694 15.5585 13.9346 15.6567Z" fill="#5498EE"/>
<path d="M3.37661 9.40179C2.99885 9.18136 2.51582 9.31217 2.29773 9.69396C2.07963 10.0758 2.20906 10.5639 2.58681 10.7844L6.34227 12.9758C6.72002 13.1962 7.20305 13.0654 7.42115 12.6836C7.63924 12.3018 7.50982 11.8136 7.13206 11.5932L3.37661 9.40179Z" fill="#5498EE"/>
<path d="M14.1862 22.6819C14.1192 22.8011 14.0209 22.9042 13.895 22.9778L9.32599 25.6437C8.94818 25.8643 8.46524 25.7335 8.24717 25.3516C8.17529 25.2258 8.14111 25.0886 8.14111 24.9531C8.14111 24.6773 8.28284 24.409 8.5362 24.2613L13.1052 21.5951C13.2131 21.532 13.3296 21.4979 13.4458 21.49C13.6451 21.9182 13.8944 22.3181 14.1862 22.6819Z" fill="#5498EE"/>
<path d="M6.56395 25.4122L2.80849 27.6036C2.43074 27.824 2.30131 28.3122 2.51941 28.694C2.7375 29.0758 3.22053 29.2066 3.59828 28.9861L7.35374 26.7948C7.73149 26.5743 7.86092 26.0861 7.64283 25.7044C7.42473 25.3226 6.9417 25.1918 6.56395 25.4122Z" fill="#5498EE"/>
<path d="M19.7007 25.1848V30.5172C19.7007 30.9579 19.347 31.3154 18.9109 31.3154C18.6926 31.3154 18.4954 31.226 18.3523 31.0815C18.2095 30.9371 18.1211 30.7376 18.1211 30.5172V25.1848C18.1211 25.0585 18.1501 24.9391 18.2017 24.833C18.3624 24.8467 18.5251 24.8537 18.6893 24.8537C18.9969 24.8537 19.2987 24.8295 19.5933 24.7827C19.6615 24.9008 19.7007 25.0382 19.7007 25.1848Z" fill="#5498EE"/>
<path d="M19.7007 32.819C19.7007 32.3781 19.3471 32.0208 18.9109 32.0208C18.4747 32.0208 18.1211 32.3781 18.1211 32.819V37.2018C18.1211 37.6426 18.4747 38 18.9109 38C19.3471 38 19.7007 37.6426 19.7007 37.2018V32.819Z" fill="#5498EE"/>
<path d="M29.3526 24.9639C29.2063 25.2199 28.9408 25.3632 28.6678 25.3632C28.5339 25.3632 28.3981 25.3286 28.2738 25.2562L23.7046 22.59C23.5965 22.5269 23.5087 22.4419 23.4438 22.3437C23.7084 21.9602 23.9286 21.5432 24.0971 21.1003C24.2322 21.0998 24.369 21.1341 24.4944 21.2074L29.0636 23.8735C29.4412 24.0939 29.5707 24.5822 29.3526 24.9639Z" fill="#5498EE"/>
<path d="M31.0363 25.0246C30.6585 24.8042 30.1755 24.935 29.9574 25.3168C29.7393 25.6986 29.8687 26.1867 30.2465 26.4072L34.0019 28.5986C34.3797 28.819 34.8627 28.6882 35.0808 28.3064C35.2989 27.9246 35.1695 27.4364 34.7917 27.216L31.0363 25.0246Z" fill="#5498EE"/>
<path d="M29.237 13.0471C29.237 13.3229 29.0953 13.5912 28.8419 13.7389L24.2729 16.4051C24.165 16.4681 24.0486 16.5023 23.9323 16.5102C23.733 16.082 23.4837 15.6821 23.1919 15.3183C23.2589 15.1991 23.3572 15.096 23.4831 15.0224L28.0521 12.3564C28.4299 12.1359 28.9129 12.2667 29.1309 12.6486C29.2028 12.7743 29.237 12.9116 29.237 13.0471Z" fill="#5498EE"/>
<path d="M33.7803 9.01374L30.0248 11.2051C29.647 11.4256 29.5176 11.9137 29.7357 12.2955C29.9538 12.6773 30.4368 12.8081 30.8146 12.5877L34.5701 10.3963C34.9478 10.1759 35.0772 9.68771 34.8591 9.30592C34.641 8.92413 34.158 8.79332 33.7803 9.01374Z" fill="#5498EE"/>
</svg>
