<svg width="16" height="16" viewBox="0 0 16 16" fill="none" xmlns="http://www.w3.org/2000/svg">
<path d="M13 11C12.6469 11.0017 12.301 11.1003 12 11.285L10.455 9.735C10.8145 9.22789 11.0076 8.62162 11.0076 8C11.0076 7.37838 10.8145 6.77212 10.455 6.265L12 4.715C12.301 4.8997 12.6469 4.99828 13 5C13.3956 5 13.7822 4.8827 14.1111 4.66294C14.44 4.44318 14.6964 4.13082 14.8478 3.76537C14.9991 3.39992 15.0387 2.99778 14.9616 2.60982C14.8844 2.22186 14.6939 1.86549 14.4142 1.58579C14.1345 1.30608 13.7781 1.1156 13.3902 1.03843C13.0022 0.96126 12.6001 1.00087 12.2346 1.15224C11.8692 1.30362 11.5568 1.55996 11.3371 1.88886C11.1173 2.21776 11 2.60444 11 3C11.0017 3.35313 11.1003 3.69902 11.285 4L9.735 5.545C9.22789 5.1855 8.62162 4.9924 8 4.9924C7.37838 4.9924 6.77212 5.1855 6.265 5.545L4.715 4C4.8997 3.69902 4.99828 3.35313 5 3C5 2.60444 4.8827 2.21776 4.66294 1.88886C4.44318 1.55996 4.13082 1.30362 3.76537 1.15224C3.39992 1.00087 2.99778 0.96126 2.60982 1.03843C2.22186 1.1156 1.86549 1.30608 1.58579 1.58579C1.30608 1.86549 1.1156 2.22186 1.03843 2.60982C0.96126 2.99778 1.00087 3.39992 1.15224 3.76537C1.30362 4.13082 1.55996 4.44318 1.88886 4.66294C2.21776 4.8827 2.60444 5 3 5C3.35313 4.99828 3.69902 4.8997 4 4.715L5.545 6.265C5.1855 6.77212 4.9924 7.37838 4.9924 8C4.9924 8.62162 5.1855 9.22789 5.545 9.735L4 11.285C3.69902 11.1003 3.35313 11.0017 3 11C2.60444 11 2.21776 11.1173 1.88886 11.3371C1.55996 11.5568 1.30362 11.8692 1.15224 12.2346C1.00087 12.6001 0.96126 13.0022 1.03843 13.3902C1.1156 13.7781 1.30608 14.1345 1.58579 14.4142C1.86549 14.6939 2.22186 14.8844 2.60982 14.9616C2.99778 15.0387 3.39992 14.9991 3.76537 14.8478C4.13082 14.6964 4.44318 14.44 4.66294 14.1111C4.8827 13.7822 5 13.3956 5 13C4.99828 12.6469 4.8997 12.301 4.715 12L6.265 10.455C6.77212 10.8145 7.37838 11.0076 8 11.0076C8.62162 11.0076 9.22789 10.8145 9.735 10.455L11.285 12C11.1003 12.301 11.0017 12.6469 11 13C11 13.3956 11.1173 13.7822 11.3371 14.1111C11.5568 14.44 11.8692 14.6964 12.2346 14.8478C12.6001 14.9991 13.0022 15.0387 13.3902 14.9616C13.7781 14.8844 14.1345 14.6939 14.4142 14.4142C14.6939 14.1345 14.8844 13.7781 14.9616 13.3902C15.0387 13.0022 14.9991 12.6001 14.8478 12.2346C14.6964 11.8692 14.44 11.5568 14.1111 11.3371C13.7822 11.1173 13.3956 11 13 11ZM8 10C7.60444 10 7.21776 9.8827 6.88886 9.66294C6.55996 9.44318 6.30362 9.13082 6.15224 8.76537C6.00087 8.39992 5.96126 7.99778 6.03843 7.60982C6.1156 7.22186 6.30608 6.86549 6.58579 6.58579C6.86549 6.30608 7.22186 6.1156 7.60982 6.03843C7.99778 5.96126 8.39992 6.00087 8.76537 6.15224C9.13082 6.30362 9.44318 6.55996 9.66294 6.88886C9.8827 7.21776 10 7.60444 10 8C10 8.53043 9.78929 9.03914 9.41421 9.41421C9.03914 9.78929 8.53043 10 8 10Z" fill="#111111"/>
</svg>
