<svg xmlns="http://www.w3.org/2000/svg" width="26" height="61" viewBox="0 0 26 61" fill="none">
  <path d="M10.1465 59.7C7.9464 60.9703 5.10992 60.224 4.06567 57.908C2.22098 53.8168 0.981467 49.47 0.393536 45.0042C-0.394947 39.0151 0.00393638 32.9293 1.56741 27.0943C3.13089 21.2594 5.82834 15.7895 9.50575 10.997C12.2478 7.42346 15.4947 4.27875 19.1378 1.65804C21.2001 0.174478 24.0297 0.9464 25.3 3.14655C26.5703 5.34669 25.7948 8.13831 23.7702 9.67296C21.1548 11.6554 18.8108 13.983 16.8046 16.5976C13.8627 20.4316 11.7047 24.8075 10.4539 29.4755C9.20315 34.1434 8.88404 39.0121 9.51483 43.8034C9.94499 47.0707 10.8111 50.2585 12.0849 53.2831C13.0709 55.6244 12.3467 58.4297 10.1465 59.7Z" fill="url(#paint0_linear_990_9778)"/>
  <defs>
    <linearGradient id="paint0_linear_990_9778" x1="46" y1="-7" x2="8.80851" y2="59.5532" gradientUnits="userSpaceOnUse">
      <stop stop-color="#F2797F"/>
      <stop offset="0.5" stop-color="#E74850"/>
      <stop offset="1" stop-color="#F2797F"/>
    </linearGradient>
  </defs>
</svg>