<svg xmlns="http://www.w3.org/2000/svg" width="26" height="61" viewBox="0 0 26 61" fill="none">
  <path d="M0.699997 3.14655C1.97025 0.9464 4.79987 0.174478 6.86221 1.65804C10.5053 4.27875 13.7522 7.42346 16.4943 10.997C20.1717 15.7895 22.8691 21.2594 24.4326 27.0943C25.9961 32.9293 26.395 39.0151 25.6065 45.0042C25.0185 49.47 23.779 53.8168 21.9343 57.908C20.8901 60.224 18.0536 60.9703 15.8534 59.7C13.6533 58.4298 12.9291 55.6244 13.9151 53.2831C15.1889 50.2585 16.055 47.0708 16.4852 43.8034C17.116 39.0121 16.7969 34.1434 15.5461 29.4755C14.2953 24.8075 12.1373 20.4316 9.1954 16.5976C7.18919 13.983 4.84518 11.6554 2.22981 9.67296C0.205208 8.13831 -0.570259 5.34669 0.699997 3.14655Z" fill="url(#paint0_linear_990_9774)"/>
  <defs>
    <linearGradient id="paint0_linear_990_9774" x1="-20" y1="-7" x2="18.1702" y2="59.5532" gradientUnits="userSpaceOnUse">
      <stop stop-color="#F2797F"/>
      <stop offset="0.5" stop-color="#E74850"/>
      <stop offset="1" stop-color="#F2797F"/>
    </linearGradient>
  </defs>
</svg>