<svg width="16" height="20" viewBox="0 0 16 20" fill="none" xmlns="http://www.w3.org/2000/svg">
<path d="M15.4665 18.526C14.5796 15.7081 14.128 12.7765 14.1298 9.82843V5.55507C15.0197 4.32802 15.4968 2.85959 15.495 1.35626C15.501 1.30952 15.5016 1.26337 15.4968 1.21722V0.625H14.1655V1.23379C14.1625 1.27461 14.1631 1.31543 14.1685 1.35626C14.1685 3.51039 12.9923 5.50005 11.0841 6.57622C9.17587 7.65299 6.82514 7.65299 4.91634 6.57622C3.00753 5.50064 1.83126 3.51039 1.83126 1.35626C1.83792 1.30479 1.83731 1.25331 1.83126 1.20243V0.625H0.5V1.31543H0.501816C0.502422 1.32904 0.503027 1.34265 0.504843 1.35685C0.510897 2.86433 0.998843 4.33217 1.89846 5.55566V9.85682C1.90027 12.8049 1.44925 15.7365 0.56175 18.5544C0.50787 18.7189 0.524216 18.8976 0.606549 19.0502C0.690093 19.2022 0.831149 19.3164 1.00066 19.3661H1.19196C1.48497 19.3667 1.74348 19.1815 1.83126 18.9088C2.75751 15.9678 3.2279 12.9067 3.22608 9.82902V6.9738C4.56763 8.06181 6.25607 8.65759 8.0002 8.65759C9.74434 8.65759 11.4322 8.06181 12.7743 6.9738V9.82902C12.7804 12.9108 13.2605 15.9755 14.1976 18.9183C14.2854 19.191 14.5439 19.3756 14.8369 19.375H15.0282C15.1971 19.3259 15.3388 19.2123 15.4223 19.0591C15.5046 18.907 15.521 18.7278 15.4671 18.5633L15.4665 18.526Z" fill="#0059DB"/>
<path d="M11.4188 9.82902C10.0277 9.84144 8.73999 10.5449 8.0002 11.6956C7.26102 10.5443 5.97274 9.84085 4.58155 9.82902C4.21287 9.82902 3.91381 10.1219 3.91381 10.4828V14.3739C3.90836 15.3241 4.4968 16.1802 5.39883 16.5346C6.30026 16.8878 7.33124 16.6683 8.0002 15.979C8.66916 16.6683 9.70014 16.8878 10.6016 16.5346C11.5036 16.1802 12.092 15.3241 12.0866 14.3739V10.4828C12.0866 10.3094 12.017 10.1432 11.8917 10.0207C11.7663 9.89824 11.5962 9.82902 11.4188 9.82902ZM7.33124 14.3733C7.33124 14.9348 6.8657 15.3909 6.29118 15.3909V15.4276C5.71666 15.4276 5.24991 14.9727 5.24991 14.4112V11.2105C6.47159 11.5098 7.33003 12.5825 7.33124 13.8137V14.3733ZM10.7499 14.4112C10.7499 14.9727 10.2837 15.4276 9.70862 15.4276C9.1335 15.4276 8.66855 14.9727 8.66855 14.4112V13.8515C8.66916 12.6197 9.52761 11.5471 10.7499 11.2483V14.4112Z" fill="#0059DB"/>
</svg>
