<svg width="15" height="14" viewBox="0 0 15 14" fill="none" xmlns="http://www.w3.org/2000/svg">
<path d="M7.6665 10.5V9.62498C8.00477 9.59571 8.32187 9.44802 8.56196 9.20794C8.80205 8.96785 8.94973 8.65075 8.979 8.31248H9.854C9.82574 8.88351 9.5862 9.42364 9.18193 9.82791C8.77766 10.2322 8.23753 10.4717 7.6665 10.5Z" fill="#6C7584"/>
<path d="M7.6665 12.25C6.62262 12.2487 5.62187 11.8334 4.88373 11.0953C4.14559 10.3571 3.73032 9.35637 3.729 8.31248C3.75254 7.54493 3.978 6.79714 4.38267 6.14449L7.29585 1.50354C7.33793 1.44445 7.39352 1.39627 7.458 1.36303C7.52247 1.32978 7.59396 1.31244 7.6665 1.31244C7.73905 1.31244 7.81053 1.32978 7.87501 1.36303C7.93949 1.39627 7.99508 1.44445 8.03715 1.50354L10.9373 6.12196C11.3488 6.78056 11.5789 7.53629 11.604 8.31248C11.6027 9.35637 11.1874 10.3571 10.4493 11.0953C9.71114 11.8334 8.71039 12.2487 7.6665 12.25ZM7.6665 2.55861L5.13701 6.58707C4.81104 7.10548 4.62722 7.70054 4.604 8.31248C4.604 9.12471 4.92666 9.90367 5.50099 10.478C6.07532 11.0523 6.85428 11.375 7.6665 11.375C8.47873 11.375 9.25769 11.0523 9.83202 10.478C10.4063 9.90367 10.729 9.12471 10.729 8.31248C10.7041 7.69192 10.5157 7.08895 10.183 6.56454L7.6665 2.55861Z" fill="#6C7584"/>
</svg>
