<svg width="15" height="14" viewBox="0 0 15 14" fill="none" xmlns="http://www.w3.org/2000/svg">
<path d="M10.2915 0.875V0.4375H9.4165V0.875C9.41526 1.02148 9.40356 1.16768 9.3815 1.3125H5.9515C5.92945 1.16768 5.91775 1.02148 5.9165 0.875V0.4375H5.0415V0.875C5.0415 2.51777 5.90368 3.32653 6.8356 3.9375C5.90368 4.54847 5.0415 5.35723 5.0415 7C5.0415 8.64277 5.90368 9.45153 6.8356 10.0625C5.90368 10.6735 5.0415 11.4822 5.0415 13.125V13.5625H5.9165V13.125C5.91775 12.9785 5.92945 12.8323 5.9515 12.6875H9.3815C9.40356 12.8323 9.41526 12.9785 9.4165 13.125V13.5625H10.2915V13.125C10.2915 11.4822 9.42932 10.6735 8.4974 10.0625C9.42932 9.45153 10.2915 8.64277 10.2915 7C10.2915 5.35723 9.42932 4.54847 8.4974 3.9375C9.42932 3.32653 10.2915 2.51777 10.2915 0.875ZM9.4165 7C9.41526 7.14648 9.40356 7.29268 9.3815 7.4375H5.9515C5.90507 7.14768 5.90507 6.85232 5.9515 6.5625H9.3815C9.40356 6.70732 9.41526 6.85352 9.4165 7ZM9.0858 11.8125H6.24721C6.61197 11.29 7.09929 10.8648 7.6665 10.5744C8.23371 10.8648 8.72104 11.29 9.0858 11.8125ZM7.6665 9.55062C7.09929 9.26016 6.61197 8.83504 6.24721 8.3125H9.0858C8.72104 8.83504 8.23371 9.26016 7.6665 9.55062ZM9.0858 5.6875H6.24721C6.61197 5.16496 7.09929 4.73984 7.6665 4.44938C8.23371 4.73984 8.72104 5.16496 9.0858 5.6875ZM7.6665 3.42562C7.09929 3.13516 6.61197 2.71004 6.24721 2.1875H9.0858C8.72104 2.71004 8.23371 3.13516 7.6665 3.42562Z" fill="#6C7584"/>
</svg>
