<svg width="80" height="15" viewBox="0 0 80 15" fill="none" xmlns="http://www.w3.org/2000/svg">
<g clip-path="url(#clip0_1017_6940)">
<path d="M0 3.34445L1.60507 6.53334L3.29461 7.50556L5.15312 8.0889L6.92714 8.75001H8.36325L9.79937 9.17779L11.5734 10.0722L13.4319 9.56667L14.868 10.0722H16.811H18.2471H20.0211L21.8796 10.2278L23.5692 10.5778L25.0898 10.2278L26.7793 10.3833L28.2999 10.0722L30.2429 9.8389L31.7635 10.2278L33.453 8.75001L35.0581 9.17779L36.9166 9.02223L38.5216 8.47779L40.2112 8.75001L41.4784 8.32223L43.5058 8.75001L45.1109 8.0889L46.8849 6.80556L48.321 5.79445L50.095 7.50556L51.5312 8.47779L53.4741 8.32223H54.9947L56.9377 6.80556L58.3738 8.75001L59.8944 8.32223L61.8374 9.02223L63.358 8.75001L65.0475 9.17779L66.6526 9.02223L68.5956 8.32223L70.1162 8.75001L71.6367 8.0889H73.3263H75.1848L76.7054 8.32223L78.226 9.60556L80 9.17779" stroke="#E74850" stroke-width="1.5" stroke-linejoin="round"/>
</g>
<path d="M0 14H80" stroke="#363C47" stroke-dasharray="3 3"/>
<defs>
<clipPath id="clip0_1017_6940">
<rect width="80" height="14" fill="white"/>
</clipPath>
</defs>
</svg>
