<svg width="18" height="17" viewBox="0 0 18 17" fill="none" xmlns="http://www.w3.org/2000/svg">
<path d="M8.78046 10.4533C8.92513 10.9285 9.26777 11.0552 9.44797 11.0552H9.4632C9.67893 11.0552 9.9835 10.9074 10.1358 10.4903L10.5596 9.30747C10.7525 9.59789 11.0901 9.78534 11.4454 9.78534H13.08V8.53127H11.5343L11.2246 7.66531C11.047 7.16369 10.6637 7.12145 10.5419 7.12145C10.2348 7.12937 9.98858 7.32474 9.86675 7.65739L9.50635 8.64744L8.62817 5.75386C8.50127 5.33144 8.20432 5.18095 7.95305 5.18095C7.8363 5.18095 7.44036 5.22319 7.28553 5.75914L6.48604 8.53127H4.90482V9.78534H6.60279C7.05457 9.78534 7.47589 9.46852 7.60025 9.0329L7.96827 7.763L8.78046 10.4533Z" fill="#0059DB"/>
<path fill-rule="evenodd" clip-rule="evenodd" d="M11.2221 0.877539C11.7957 0.626726 12.4099 0.5 13.0317 0.5C13.651 0.5 14.2678 0.629367 14.8414 0.880179C15.415 1.13099 15.9327 1.49533 16.3693 1.95735C17.2551 2.8946 17.7525 4.15922 17.7525 5.47401C17.7525 6.78879 17.2551 8.05341 16.3693 8.99066L9.00127 16.7526L1.63325 8.99066C0.747462 8.05341 0.25 6.79143 0.25 5.47401C0.25 4.15658 0.747462 2.8946 1.63325 1.95471C2.0698 1.49269 2.58756 1.12571 3.16117 0.877539C3.73477 0.629366 4.35152 0.5 4.97081 0.5C5.5901 0.5 6.20685 0.629366 6.78046 0.877539C7.35406 1.12835 7.87183 1.49533 8.30838 1.95471L9.00127 2.68339L9.69416 1.95471C10.1307 1.49533 10.6485 1.12835 11.2221 0.877539ZM14.3566 2.07616C13.9378 1.89135 13.486 1.79894 13.0317 1.79894C12.5749 1.79894 12.1231 1.89399 11.7018 2.0788C11.2805 2.26625 10.8997 2.53554 10.5825 2.87876L9.00127 4.55524L7.41497 2.86556C7.09518 2.52762 6.71447 2.25833 6.29568 2.07616C5.8769 1.89399 5.42513 1.79894 4.97081 1.79894C4.5165 1.79894 4.06726 1.89135 3.64594 2.07616C3.22462 2.26097 2.84645 2.52762 2.52665 2.86556C1.86929 3.55991 1.50127 4.49188 1.50127 5.46608C1.50127 6.44029 1.86929 7.37226 2.52665 8.06661L9.00127 14.8861L15.4759 8.06661C16.1332 7.37226 16.5013 6.44029 16.5013 5.46608C16.5013 4.49188 16.1332 3.55991 15.4759 2.86556C15.1561 2.52762 14.7754 2.25833 14.3566 2.07616Z" fill="#0059DB"/>
</svg>
