<svg width="15" height="14" viewBox="0 0 15 14" fill="none" xmlns="http://www.w3.org/2000/svg">
<path d="M10.2915 3.5H9.854V0.875H8.979V3.5H6.354V0.875H5.479V3.5H5.0415C4.80944 3.5 4.58688 3.59219 4.42279 3.75628C4.25869 3.92038 4.1665 4.14294 4.1665 4.375V9.625C4.1665 9.85706 4.25869 10.0796 4.42279 10.2437C4.58688 10.4078 4.80944 10.5 5.0415 10.5H5.479V13.125H6.354V10.5H8.979V13.125H9.854V10.5H10.2915C10.5236 10.5 10.7461 10.4078 10.9102 10.2437C11.0743 10.0796 11.1665 9.85706 11.1665 9.625V4.375C11.1665 4.14294 11.0743 3.92038 10.9102 3.75628C10.7461 3.59219 10.5236 3.5 10.2915 3.5ZM5.0415 9.625V4.375H10.2915V9.625H5.0415Z" fill="#6C7584"/>
<path d="M12.479 6.125H11.604V7.875H12.479V6.125Z" fill="#6C7584"/>
</svg>
