<svg width="32" height="32" viewBox="0 0 32 32" fill="none" xmlns="http://www.w3.org/2000/svg">
<rect width="32" height="32" fill="white" fill-opacity="0.01" style="mix-blend-mode:multiply"/>
<path d="M22.9999 31.3599C22.8009 31.3599 22.6399 31.1989 22.6399 30.9999V29.9999C22.6399 29.4029 22.5289 28.8599 22.3259 28.3599H9.67289C9.46789 28.8609 9.35989 29.4029 9.35989 29.9999V30.9999C9.35989 31.1989 9.19889 31.3599 8.99989 31.3599C8.80089 31.3599 8.63989 31.1989 8.63989 30.9999V29.9999C8.63989 29.2119 8.80989 28.5109 9.10589 27.8799C9.11389 27.8559 9.12589 27.8329 9.13789 27.8119C10.0609 25.9179 12.1199 24.6689 14.0819 23.6219C14.2559 23.5249 14.4759 23.5939 14.5689 23.7689C14.6629 23.9449 14.5969 24.1629 14.4209 24.2559C12.3999 25.3359 10.8749 26.3629 10.0499 27.6399H21.9509C20.8039 25.8269 18.3709 24.5999 15.8369 23.3219C13.5299 22.1589 11.1709 20.9689 9.80889 19.2599C9.78589 19.2369 9.76489 19.2109 9.74789 19.1829C9.05889 18.2859 8.63989 17.2489 8.63989 15.9999C8.63989 12.6369 11.2179 11.0599 14.0899 9.61189C14.2689 9.52089 14.4839 9.59389 14.5729 9.77089C14.6629 9.94889 14.5909 10.1649 14.4139 10.2539C12.8359 11.0489 11.6059 11.7879 10.7539 12.6389H21.1419C19.8499 11.3439 17.8769 10.3489 15.8369 9.31989C12.2989 7.53689 8.63989 5.69189 8.63989 1.99989V0.999893C8.63989 0.800893 8.80089 0.639893 8.99989 0.639893C9.19889 0.639893 9.35989 0.800893 9.35989 0.999893V1.99989C9.35989 2.59689 9.47089 3.13989 9.67489 3.63989H22.3249C22.5269 3.13789 22.6399 2.59389 22.6399 1.99989V0.999893C22.6399 0.800893 22.8009 0.639893 22.9999 0.639893C23.1989 0.639893 23.3599 0.800893 23.3599 0.999893V1.99989C23.3599 5.14289 20.7469 6.97189 17.9219 8.48089C17.7459 8.57289 17.5279 8.50889 17.4349 8.33289C17.3409 8.15789 17.4079 7.93989 17.5819 7.84589C19.3619 6.89489 21.0529 5.81589 21.9569 4.35989H10.0469C11.1949 6.17389 13.6279 7.40089 16.1619 8.67889C19.7009 10.4629 23.3599 12.3079 23.3599 15.9999C23.3599 19.1309 21.1829 20.8699 17.9149 22.5179C17.7369 22.6069 17.5199 22.5369 17.4319 22.3589C17.3419 22.1809 17.4129 21.9639 17.5909 21.8759C19.1649 21.0819 20.4369 20.2989 21.3109 19.3609H10.8579C12.1489 20.6559 14.1229 21.6509 16.1619 22.6789C19.7009 24.4629 23.3599 26.3089 23.3599 29.9999V30.9999C23.3599 31.1989 23.1989 31.3599 22.9999 31.3599ZM10.2379 18.6399H21.8789C22.3159 17.9769 22.5729 17.2319 22.6289 16.3599H9.37389C9.44089 17.2239 9.75089 17.9719 10.2379 18.6399ZM9.37089 15.6399H22.6259C22.5589 14.7759 22.2489 14.0279 21.7619 13.3599H10.1529C10.1509 13.3599 10.1489 13.3599 10.1469 13.3599C9.68789 14.0189 9.42589 14.7579 9.37089 15.6399Z" fill="#3B8DF5"/>
</svg>
