<svg width="32" height="32" viewBox="0 0 32 32" fill="none" xmlns="http://www.w3.org/2000/svg">
<rect width="32" height="32" fill="white" fill-opacity="0.01" style="mix-blend-mode:multiply"/>
<path d="M27 31.36H4.99996C4.85396 31.36 4.72296 31.272 4.66696 31.137C4.61096 31.002 4.64196 30.848 4.74496 30.744L8.41196 27.078C8.47896 27.011 8.57096 26.973 8.66596 26.973H21.14V25.5C21.14 25.301 21.301 25.14 21.5 25.14H23.729C24.433 23.851 24.804 22.396 24.804 20.918C24.804 17.802 23.164 14.935 20.5 13.348C19.956 14.254 18.964 14.862 17.832 14.862C17.307 14.862 16.812 14.731 16.378 14.501L13.316 19.802C13.217 19.976 12.998 20.034 12.824 19.934L11.549 19.198L10.992 20.162L12.268 20.899C12.351 20.947 12.411 21.025 12.435 21.118C12.46 21.21 12.447 21.308 12.399 21.39L11.482 22.977C11.383 23.15 11.164 23.209 10.99 23.109L6.22996 20.359C6.05796 20.259 5.99896 20.04 6.09796 19.868L7.01496 18.28C7.06296 18.197 7.14096 18.136 7.23396 18.112C7.32696 18.088 7.42396 18.099 7.50696 18.148L8.78296 18.884L9.33896 17.92L8.06296 17.184C7.97996 17.136 7.91996 17.058 7.89596 16.966C7.87096 16.874 7.88396 16.776 7.93196 16.693L17.098 0.81999C17.198 0.64799 17.419 0.59099 17.589 0.68799L22.352 3.43499C22.435 3.48299 22.496 3.56099 22.52 3.65399C22.544 3.74699 22.532 3.84399 22.484 3.92699L19.486 9.11799C20.361 9.66899 20.944 10.643 20.944 11.751C20.944 12.077 20.893 12.391 20.799 12.687C23.722 14.395 25.526 17.519 25.526 20.917C25.526 22.385 25.187 23.832 24.542 25.139H27C27.199 25.139 27.36 25.3 27.36 25.499V31C27.36 31.199 27.199 31.36 27 31.36ZM5.86896 30.64H26.64V25.86H23.967C23.946 25.859 23.929 25.859 23.912 25.86H21.86V27.334C21.86 27.533 21.699 27.694 21.5 27.694H8.81596L5.86896 30.64ZM6.90196 19.916L11.041 22.305L11.598 21.342L8.73496 19.689C8.72996 19.687 8.72496 19.684 8.72096 19.681L7.45896 18.952L6.90196 19.916ZM9.89196 19.525L10.37 19.801L10.927 18.837L9.96296 18.28L9.40696 19.244L9.89196 19.525ZM11.103 18.108L12.874 19.129L15.784 14.089C15.134 13.519 14.723 12.682 14.723 11.751C14.723 10.037 16.118 8.64199 17.833 8.64199C18.183 8.64199 18.52 8.69999 18.834 8.80699L21.68 3.87799L17.541 1.49099L8.73496 16.741L9.99496 17.469C9.99996 17.472 10.006 17.475 10.011 17.478L11.103 18.108ZM16.512 13.743C16.89 13.995 17.345 14.142 17.833 14.142C18.805 14.142 19.643 13.559 20.016 12.725C20.021 12.713 20.027 12.701 20.033 12.688C20.156 12.4 20.223 12.084 20.223 11.752C20.223 10.435 19.151 9.36199 17.833 9.36199C16.515 9.36199 15.443 10.434 15.443 11.752C15.443 12.536 15.822 13.233 16.407 13.669C16.416 13.673 16.426 13.678 16.435 13.684C16.464 13.7 16.489 13.72 16.512 13.743Z" fill="#3B8DF5"/>
</svg>
