<svg width="32" height="32" viewBox="0 0 32 32" fill="none" xmlns="http://www.w3.org/2000/svg">
<g clip-path="url(#clip0_526_2224)">
<rect width="32" height="32" fill="white" fill-opacity="0.01" style="mix-blend-mode:multiply"/>
<path d="M30.9999 31.36H0.999893C0.800893 31.36 0.639893 31.199 0.639893 31V1.00001C0.639893 0.801015 0.800893 0.640015 0.999893 0.640015H30.9999C31.1989 0.640015 31.3599 0.801015 31.3599 1.00001V31C31.3599 31.199 31.1989 31.36 30.9999 31.36ZM1.35989 30.64H30.6399V1.36001H1.35989V30.64ZM11.0659 14.453C10.9739 14.453 10.8819 14.418 10.8119 14.348L5.11989 8.65601C4.97889 8.51501 4.97889 8.28801 5.11989 8.14702C8.02489 5.24102 11.8889 3.64001 15.9989 3.64001C20.1079 3.64001 23.9729 5.24102 26.8789 8.14702C26.9459 8.21402 26.9839 8.30602 26.9839 8.40101C26.9839 8.49601 26.9459 8.58801 26.8789 8.65501L21.1869 14.347C21.1199 14.415 21.0279 14.452 20.9319 14.452C20.8359 14.452 20.7439 14.414 20.6769 14.347C19.4279 13.097 17.7669 12.409 15.9989 12.409C14.2319 12.409 12.5709 13.097 11.3209 14.347C11.2499 14.418 11.1589 14.453 11.0659 14.453ZM5.88689 8.40402L11.0729 13.59C12.3369 12.442 13.9349 11.78 15.6399 11.698V8.05601H16.3599V11.698C18.0649 11.78 19.6639 12.442 20.9259 13.59L26.1129 8.40402C25.0679 7.40802 23.9009 6.58401 22.6469 5.94501L21.8129 7.38901L21.1899 7.02901L21.9959 5.63401C20.2409 4.84701 18.3339 4.41201 16.3609 4.36501V6.00001H15.6409V4.36401C13.6669 4.41101 11.7589 4.84601 10.0039 5.63301L10.8119 7.03201L10.1879 7.39201L9.35189 5.94401C8.09789 6.58301 6.93089 7.40802 5.88689 8.40402Z" fill="#3B8DF5"/>
</g>
<defs>
<clipPath id="clip0_526_2224">
<rect width="32" height="32" fill="white"/>
</clipPath>
</defs>
</svg>
