<svg width="16" height="16" viewBox="0 0 16 16" fill="none" xmlns="http://www.w3.org/2000/svg">
<path fill-rule="evenodd" clip-rule="evenodd" d="M1 7.99999C1 7.72385 1.22386 7.49999 1.5 7.49999L6 7.49999C6.27614 7.49999 6.5 7.72385 6.5 7.99999C6.5 8.27614 6.27614 8.49999 6 8.49999L1.5 8.49999C1.22386 8.49999 1 8.27614 1 7.99999Z" fill="#0B101A"/>
<path fill-rule="evenodd" clip-rule="evenodd" d="M3.64645 5.64644C3.84171 5.45118 4.15829 5.45118 4.35355 5.64644L6.35355 7.64644C6.54882 7.8417 6.54881 8.15828 6.35355 8.35355L4.35355 10.3535C4.15829 10.5488 3.84171 10.5488 3.64645 10.3535C3.45118 10.1583 3.45118 9.8417 3.64645 9.64644L5.29289 7.99999L3.64645 6.35355C3.45118 6.15828 3.45118 5.8417 3.64645 5.64644Z" fill="#0B101A"/>
<path fill-rule="evenodd" clip-rule="evenodd" d="M15 7.99999C15 7.72385 14.7761 7.49999 14.5 7.49999L10 7.49999C9.72386 7.49999 9.5 7.72385 9.5 7.99999C9.5 8.27614 9.72386 8.49999 10 8.49999L14.5 8.49999C14.7761 8.49999 15 8.27613 15 7.99999Z" fill="#0B101A"/>
<path fill-rule="evenodd" clip-rule="evenodd" d="M12.3536 5.64644C12.1583 5.45118 11.8417 5.45118 11.6464 5.64644L9.64645 7.64644C9.45118 7.8417 9.45118 8.15828 9.64645 8.35355L11.6464 10.3535C11.8417 10.5488 12.1583 10.5488 12.3536 10.3535C12.5488 10.1583 12.5488 9.8417 12.3536 9.64644L10.7071 7.99999L12.3536 6.35355C12.5488 6.15828 12.5488 5.8417 12.3536 5.64644Z" fill="#0B101A"/>
<path fill-rule="evenodd" clip-rule="evenodd" d="M8 15C7.72386 15 7.5 14.7761 7.5 14.5V1.5C7.5 1.22386 7.72386 1 8 1C8.27614 1 8.5 1.22386 8.5 1.5V14.5C8.5 14.7761 8.27614 15 8 15Z" fill="#0B101A"/>
</svg>
