<svg width="20" height="20" viewBox="0 0 20 20" fill="none" xmlns="http://www.w3.org/2000/svg">
<path d="M6.25 18.75C6.94036 18.75 7.5 18.1904 7.5 17.5C7.5 16.8096 6.94036 16.25 6.25 16.25C5.55964 16.25 5 16.8096 5 17.5C5 18.1904 5.55964 18.75 6.25 18.75Z" fill="#0974FB"/>
<path d="M15 18.75C15.6904 18.75 16.25 18.1904 16.25 17.5C16.25 16.8096 15.6904 16.25 15 16.25C14.3096 16.25 13.75 16.8096 13.75 17.5C13.75 18.1904 14.3096 18.75 15 18.75Z" fill="#0974FB"/>
<path d="M3.11288 1.75244C3.08454 1.61075 3.00799 1.48327 2.89625 1.39166C2.78451 1.30006 2.64449 1.25 2.5 1.25H0V2.5H1.9875L4.38713 14.4976C4.41546 14.6392 4.49201 14.7667 4.60375 14.8583C4.71549 14.9499 4.85551 15 5 15H16.25V13.75H5.5125L5.0125 11.25H16.25C16.3922 11.25 16.5301 11.2015 16.6411 11.1125C16.752 11.0236 16.8293 10.8994 16.8601 10.7606L18.2778 4.375H16.9982L15.7489 10H4.7625L3.11288 1.75244Z" fill="#0974FB"/>
<path d="M11.25 3.75V1.25H10V3.75H7.5V5H10V7.5H11.25V5H13.75V3.75H11.25Z" fill="#0974FB"/>
</svg>
