<svg width="32" height="28" viewBox="0 0 32 28" fill="none" xmlns="http://www.w3.org/2000/svg">
<path d="M5.78485 15.3272C6.00576 15.3272 6.18485 15.1481 6.18485 14.9272C6.18485 14.7063 6.00576 14.5272 5.78485 14.5272V15.3272ZM4.28382 17.9004C4.50474 17.9004 4.68382 17.7213 4.68382 17.5004C4.68382 17.2795 4.50474 17.1004 4.28382 17.1004V17.9004ZM3.53331 7.28599H11.6817V6.48599H3.53331V7.28599ZM13.1828 26.8571H2.03228V27.6571H13.1828V26.8571ZM14.2838 9.88804V17.9293H15.0838V9.88804H14.2838ZM14.2838 24.1478V25.7561H15.0838V24.1478H14.2838ZM0.93125 14.9272V9.88804H0.13125V14.9272H0.93125ZM0.53125 15.3272H5.78485V14.5272H0.53125V15.3272ZM0.93125 25.7561V19.2159H0.13125V25.7561H0.93125ZM0.93125 19.2159V17.5004H0.13125V19.2159H0.93125ZM0.93125 17.5004V14.9272H0.13125V17.5004H0.93125ZM0.53125 17.9004H4.28382V17.1004H0.53125V17.9004ZM2.03228 26.8571C1.4242 26.8571 0.93125 26.3641 0.93125 25.7561H0.13125C0.13125 26.806 0.98237 27.6571 2.03228 27.6571V26.8571ZM13.1828 27.6571C14.2327 27.6571 15.0838 26.806 15.0838 25.7561H14.2838C14.2838 26.3641 13.7909 26.8571 13.1828 26.8571V27.6571ZM11.6817 7.28599C13.1188 7.28599 14.2838 8.45097 14.2838 9.88804H15.0838C15.0838 8.00914 13.5607 6.48599 11.6817 6.48599V7.28599ZM3.53331 6.48599C1.6544 6.48599 0.13125 8.00914 0.13125 9.88804H0.93125C0.93125 8.45097 2.09623 7.28599 3.53331 7.28599V6.48599Z" fill="#3B8DF5"/>
<path d="M3.32031 2.38221C3.32031 1.43479 4.08835 0.666748 5.03577 0.666748H10.1822C11.1296 0.666748 11.8976 1.43479 11.8976 2.38221V4.09767C11.8976 4.45296 11.6096 4.74097 11.2543 4.74097H3.96361C3.60833 4.74097 3.32031 4.45296 3.32031 4.09767V2.38221Z" stroke="#3B8DF5" stroke-width="0.8"/>
<path d="M0.53125 11.8171H7.17866C7.7708 11.8171 8.25083 12.2972 8.25083 12.8893V23.3965C8.25083 23.9886 7.7708 24.4687 7.17866 24.4687H0.53125" stroke="#3B8DF5" stroke-width="0.8"/>
<path d="M4.82031 5.16992V6.67095M10.61 5.16992V6.67095" stroke="#3B8DF5" stroke-width="0.8"/>
<path d="M20.6506 23.1741L20.8505 23.5206L21.0526 23.404L21.0506 23.1706L20.6506 23.1741ZM16.919 25.3273L16.7191 25.6737L16.919 25.7891L17.1189 25.6737L16.919 25.3273ZM13.1875 23.1741H12.7875V23.4051L12.9876 23.5206L13.1875 23.1741ZM13.1875 18.8679L12.9876 18.5214L12.7875 18.6369V18.8679H13.1875ZM16.8808 12.4701L16.6809 12.1236L16.4808 12.2391V12.4701H16.8808ZM27.6754 22.7435C27.6754 22.9644 27.8545 23.1435 28.0754 23.1435C28.2963 23.1435 28.4754 22.9644 28.4754 22.7435H27.6754ZM20.6123 18.9294L20.4124 18.583L20.2123 18.6984V18.9294H20.6123ZM31.393 17.5572C31.5864 17.4506 31.6568 17.2073 31.5501 17.0138C31.4435 16.8204 31.2002 16.75 31.0067 16.8566L31.393 17.5572ZM16.6809 17.0833L20.4124 19.2365L20.8122 18.5435L17.0807 16.3904L16.6809 17.0833ZM20.2123 18.8936L20.2506 23.1777L21.0506 23.1706L21.0123 18.8864L20.2123 18.8936ZM20.4507 22.8277L16.7191 24.9808L17.1189 25.6737L20.8505 23.5206L20.4507 22.8277ZM17.1189 24.9808L13.3874 22.8277L12.9876 23.5206L16.7191 25.6737L17.1189 24.9808ZM13.5875 23.1741V18.8679H12.7875V23.1741H13.5875ZM13.3874 19.2144L17.0807 17.0833L16.6809 16.3904L12.9876 18.5214L13.3874 19.2144ZM20.4124 10.6634L24.1439 12.8165L24.5437 12.1236L20.8122 9.9705L20.4124 10.6634ZM23.9438 12.4701V16.7763H24.7438V12.4701H23.9438ZM24.1467 16.4283L20.4152 18.5419L20.8094 19.238L24.541 17.1244L24.1467 16.4283ZM17.2808 16.7369V12.4701H16.4808V16.7369H17.2808ZM17.0807 12.8165L20.8122 10.6634L20.4124 9.9705L16.6809 12.1236L17.0807 12.8165ZM24.1439 17.1228L27.8755 19.2759L28.2753 18.583L24.5437 16.4298L24.1439 17.1228ZM27.6754 18.9294V22.7435H28.4754V18.9294H27.6754ZM21.0123 23.1962V18.9294H20.2123V23.1962H21.0123ZM20.8122 19.2759L24.5437 17.1228L24.1439 16.4298L20.4124 18.583L20.8122 19.2759ZM28.2685 19.2797L31.393 17.5572L31.0067 16.8566L27.8823 18.5791L28.2685 19.2797ZM26.0125 11.0652L24.1467 12.122L24.541 12.8181L26.4067 11.7613L26.0125 11.0652ZM21.0123 10.317L21.0123 8.18359L20.2123 8.18359L20.2123 10.317L21.0123 10.317Z" fill="#3B8DF5"/>
<circle cx="20.6867" cy="7.31435" r="1.07216" stroke="#3B8DF5" stroke-width="0.8"/>
<path d="M28.1939 10.9596C28.1939 11.5518 27.7139 12.0318 27.1217 12.0318C26.5296 12.0318 26.0496 11.5518 26.0496 10.9596C26.0496 10.3675 26.5296 9.88745 27.1217 9.88745C27.7139 9.88745 28.1939 10.3675 28.1939 10.9596Z" fill="#3B8DF5"/>
<path fill-rule="evenodd" clip-rule="evenodd" d="M27.1212 10.4245C26.8251 10.4245 26.5851 10.6645 26.5851 10.9605C26.5851 11.2566 26.8251 11.4966 27.1212 11.4966C27.4173 11.4966 27.6573 11.2566 27.6573 10.9605C27.6573 10.6645 27.4173 10.4245 27.1212 10.4245ZM25.5129 10.9605C25.5129 10.0723 26.233 9.35229 27.1212 9.35229C28.0094 9.35229 28.7294 10.0723 28.7294 10.9605C28.7294 11.8487 28.0094 12.5688 27.1212 12.5688C26.233 12.5688 25.5129 11.8487 25.5129 10.9605Z" fill="#3B8DF5"/>
</svg>
