<svg width="16" height="16" viewBox="0 0 16 16" fill="none" xmlns="http://www.w3.org/2000/svg">
<path d="M12.6972 12.0001C12.9958 11.2831 13.0759 10.4939 12.9272 9.73165C12.7786 8.96937 12.4079 8.26805 11.8618 7.71585C12.0121 7.33727 12.0406 6.92125 11.9434 6.52569C11.8463 6.13013 11.6282 5.7747 11.3196 5.50885L12.7076 4.1209C12.8948 3.9332 13 3.67889 13 3.41375C13 3.14862 12.8948 2.8943 12.7076 2.7066L11.2935 1.2925C11.1058 1.1052 10.8515 1 10.5863 1C10.3211 1 10.0668 1.1052 9.87915 1.2925L3.29295 7.8787C3.10572 8.06642 3.00057 8.32073 3.00057 8.58585C3.00057 8.85098 3.10572 9.10529 3.29295 9.293L4.70705 10.7071C4.89475 10.8944 5.14906 10.9995 5.4142 10.9995C5.67934 10.9995 5.93365 10.8944 6.12135 10.7071L8.5088 8.3194C8.84733 8.71113 9.32668 8.95354 9.84283 8.99404C10.359 9.03453 10.8703 8.86984 11.2657 8.5357C11.6768 9.00598 11.9292 9.59379 11.9872 10.2157C12.0452 10.8376 11.9058 11.4619 11.5887 12.0001H8V14.0001H2V15.0001H14V12.0001H12.6972ZM5.41405 10.0001L4 8.58575L4.93935 7.64655L6.3535 9.0606L5.41405 10.0001ZM8 7.00005C8.00073 7.12638 8.01349 7.25235 8.0381 7.37625L7.06055 8.35355L5.64635 6.9395L10.5864 1.9995L12.0005 3.4136L10.3761 5.03815C10.0868 4.98066 9.7883 4.98825 9.50228 5.06038C9.21627 5.1325 8.94987 5.26736 8.72242 5.45516C8.49496 5.64297 8.31213 5.87903 8.18718 6.14623C8.06224 6.41343 7.9983 6.70509 8 7.00005ZM10 8.00005C9.80222 8.00005 9.60888 7.9414 9.44443 7.83152C9.27998 7.72164 9.15181 7.56546 9.07612 7.38274C9.00043 7.20001 8.98063 6.99894 9.01921 6.80496C9.0578 6.61098 9.15304 6.4328 9.29289 6.29295C9.43275 6.15309 9.61093 6.05785 9.80491 6.01927C9.99889 5.98068 10.2 6.00049 10.3827 6.07617C10.5654 6.15186 10.7216 6.28003 10.8315 6.44448C10.9414 6.60893 11 6.80227 11 7.00005C10.9997 7.26518 10.8942 7.51935 10.7068 7.70682C10.5193 7.89429 10.2651 7.99975 10 8.00005ZM13 14.0001H9V13.0001H13V14.0001Z" fill="#84B8F9"/>
</svg>
